<?xml version="1.0" encoding="utf-8"?>
<svg xmlns="http://www.w3.org/2000/svg" xmlns:xlink="http://www.w3.org/1999/xlink" width="600" height="400" viewBox="0 0 2400 1600">
<defs>
  <clipPath id="clip350">
    <rect x="0" y="0" width="2400" height="1600"/>
  </clipPath>
</defs>
<path clip-path="url(#clip350)" d="
M0 1600 L2400 1600 L2400 0 L0 0  Z
  " fill="#ffffff" fill-rule="evenodd" fill-opacity="1"/>
<defs>
  <clipPath id="clip351">
    <rect x="480" y="0" width="1681" height="1600"/>
  </clipPath>
</defs>
<path clip-path="url(#clip350)" d="
M221.637 1410.9 L2352.76 1410.9 L2352.76 47.2441 L221.637 47.2441  Z
  " fill="#ffffff" fill-rule="evenodd" fill-opacity="1"/>
<defs>
  <clipPath id="clip352">
    <rect x="221" y="47" width="2132" height="1365"/>
  </clipPath>
</defs>
<polyline clip-path="url(#clip352)" style="stroke:#000000; stroke-linecap:butt; stroke-linejoin:round; stroke-width:2; stroke-opacity:0.1; fill:none" points="
  281.952,1410.9 281.952,47.2441 
  "/>
<polyline clip-path="url(#clip352)" style="stroke:#000000; stroke-linecap:butt; stroke-linejoin:round; stroke-width:2; stroke-opacity:0.1; fill:none" points="
  784.574,1410.9 784.574,47.2441 
  "/>
<polyline clip-path="url(#clip352)" style="stroke:#000000; stroke-linecap:butt; stroke-linejoin:round; stroke-width:2; stroke-opacity:0.1; fill:none" points="
  1287.2,1410.9 1287.2,47.2441 
  "/>
<polyline clip-path="url(#clip352)" style="stroke:#000000; stroke-linecap:butt; stroke-linejoin:round; stroke-width:2; stroke-opacity:0.1; fill:none" points="
  1789.82,1410.9 1789.82,47.2441 
  "/>
<polyline clip-path="url(#clip352)" style="stroke:#000000; stroke-linecap:butt; stroke-linejoin:round; stroke-width:2; stroke-opacity:0.1; fill:none" points="
  2292.44,1410.9 2292.44,47.2441 
  "/>
<polyline clip-path="url(#clip350)" style="stroke:#000000; stroke-linecap:butt; stroke-linejoin:round; stroke-width:4; stroke-opacity:1; fill:none" points="
  221.637,1410.9 2352.76,1410.9 
  "/>
<polyline clip-path="url(#clip350)" style="stroke:#000000; stroke-linecap:butt; stroke-linejoin:round; stroke-width:4; stroke-opacity:1; fill:none" points="
  281.952,1410.9 281.952,1392 
  "/>
<polyline clip-path="url(#clip350)" style="stroke:#000000; stroke-linecap:butt; stroke-linejoin:round; stroke-width:4; stroke-opacity:1; fill:none" points="
  784.574,1410.9 784.574,1392 
  "/>
<polyline clip-path="url(#clip350)" style="stroke:#000000; stroke-linecap:butt; stroke-linejoin:round; stroke-width:4; stroke-opacity:1; fill:none" points="
  1287.2,1410.9 1287.2,1392 
  "/>
<polyline clip-path="url(#clip350)" style="stroke:#000000; stroke-linecap:butt; stroke-linejoin:round; stroke-width:4; stroke-opacity:1; fill:none" points="
  1789.82,1410.9 1789.82,1392 
  "/>
<polyline clip-path="url(#clip350)" style="stroke:#000000; stroke-linecap:butt; stroke-linejoin:round; stroke-width:4; stroke-opacity:1; fill:none" points="
  2292.44,1410.9 2292.44,1392 
  "/>
<path clip-path="url(#clip350)" d="M247.395 1485.02 L255.034 1485.02 L255.034 1458.66 L246.724 1460.32 L246.724 1456.06 L254.988 1454.4 L259.664 1454.4 L259.664 1485.02 L267.303 1485.02 L267.303 1488.96 L247.395 1488.96 L247.395 1485.02 Z" fill="#000000" fill-rule="evenodd" fill-opacity="1" /><path clip-path="url(#clip350)" d="M286.747 1457.48 Q283.136 1457.48 281.307 1461.04 Q279.502 1464.58 279.502 1471.71 Q279.502 1478.82 281.307 1482.38 Q283.136 1485.92 286.747 1485.92 Q290.381 1485.92 292.187 1482.38 Q294.016 1478.82 294.016 1471.71 Q294.016 1464.58 292.187 1461.04 Q290.381 1457.48 286.747 1457.48 M286.747 1453.77 Q292.557 1453.77 295.613 1458.38 Q298.691 1462.96 298.691 1471.71 Q298.691 1480.44 295.613 1485.04 Q292.557 1489.63 286.747 1489.63 Q280.937 1489.63 277.858 1485.04 Q274.803 1480.44 274.803 1471.71 Q274.803 1462.96 277.858 1458.38 Q280.937 1453.77 286.747 1453.77 Z" fill="#000000" fill-rule="evenodd" fill-opacity="1" /><path clip-path="url(#clip350)" d="M311.387 1446.41 Q314.114 1446.99 315.637 1448.83 Q317.179 1450.68 317.179 1453.38 Q317.179 1457.54 314.321 1459.82 Q311.462 1462.09 306.196 1462.09 Q304.428 1462.09 302.547 1461.73 Q300.685 1461.4 298.691 1460.7 L298.691 1457.03 Q300.271 1457.95 302.152 1458.42 Q304.033 1458.89 306.083 1458.89 Q309.656 1458.89 311.518 1457.48 Q313.399 1456.07 313.399 1453.38 Q313.399 1450.9 311.65 1449.51 Q309.92 1448.1 306.816 1448.1 L303.544 1448.1 L303.544 1444.98 L306.967 1444.98 Q309.769 1444.98 311.255 1443.87 Q312.741 1442.74 312.741 1440.63 Q312.741 1438.47 311.199 1437.32 Q309.675 1436.16 306.816 1436.16 Q305.255 1436.16 303.469 1436.49 Q301.682 1436.83 299.538 1437.55 L299.538 1434.16 Q301.701 1433.56 303.581 1433.26 Q305.481 1432.96 307.155 1432.96 Q311.481 1432.96 314.001 1434.93 Q316.521 1436.89 316.521 1440.24 Q316.521 1442.57 315.186 1444.19 Q313.85 1445.79 311.387 1446.41 Z" fill="#000000" fill-rule="evenodd" fill-opacity="1" /><path clip-path="url(#clip350)" d="M749.03 1485.02 L756.669 1485.02 L756.669 1458.66 L748.359 1460.32 L748.359 1456.06 L756.623 1454.4 L761.299 1454.4 L761.299 1485.02 L768.938 1485.02 L768.938 1488.96 L749.03 1488.96 L749.03 1485.02 Z" fill="#000000" fill-rule="evenodd" fill-opacity="1" /><path clip-path="url(#clip350)" d="M788.382 1457.48 Q784.771 1457.48 782.942 1461.04 Q781.137 1464.58 781.137 1471.71 Q781.137 1478.82 782.942 1482.38 Q784.771 1485.92 788.382 1485.92 Q792.016 1485.92 793.822 1482.38 Q795.65 1478.82 795.65 1471.71 Q795.65 1464.58 793.822 1461.04 Q792.016 1457.48 788.382 1457.48 M788.382 1453.77 Q794.192 1453.77 797.248 1458.38 Q800.326 1462.96 800.326 1471.71 Q800.326 1480.44 797.248 1485.04 Q794.192 1489.63 788.382 1489.63 Q782.572 1489.63 779.493 1485.04 Q776.438 1480.44 776.438 1471.71 Q776.438 1462.96 779.493 1458.38 Q782.572 1453.77 788.382 1453.77 Z" fill="#000000" fill-rule="evenodd" fill-opacity="1" /><path clip-path="url(#clip350)" d="M813.003 1436.78 L803.411 1451.77 L813.003 1451.77 L813.003 1436.78 M812.006 1433.47 L816.783 1433.47 L816.783 1451.77 L820.789 1451.77 L820.789 1454.93 L816.783 1454.93 L816.783 1461.55 L813.003 1461.55 L813.003 1454.93 L800.326 1454.93 L800.326 1451.26 L812.006 1433.47 Z" fill="#000000" fill-rule="evenodd" fill-opacity="1" /><path clip-path="url(#clip350)" d="M1252.8 1485.02 L1260.44 1485.02 L1260.44 1458.66 L1252.13 1460.32 L1252.13 1456.06 L1260.39 1454.4 L1265.07 1454.4 L1265.07 1485.02 L1272.71 1485.02 L1272.71 1488.96 L1252.8 1488.96 L1252.8 1485.02 Z" fill="#000000" fill-rule="evenodd" fill-opacity="1" /><path clip-path="url(#clip350)" d="M1292.15 1457.48 Q1288.54 1457.48 1286.71 1461.04 Q1284.91 1464.58 1284.91 1471.71 Q1284.91 1478.82 1286.71 1482.38 Q1288.54 1485.92 1292.15 1485.92 Q1295.79 1485.92 1297.59 1482.38 Q1299.42 1478.82 1299.42 1471.71 Q1299.42 1464.58 1297.59 1461.04 Q1295.79 1457.48 1292.15 1457.48 M1292.15 1453.77 Q1297.96 1453.77 1301.02 1458.38 Q1304.1 1462.96 1304.1 1471.71 Q1304.1 1480.44 1301.02 1485.04 Q1297.96 1489.63 1292.15 1489.63 Q1286.34 1489.63 1283.26 1485.04 Q1280.21 1480.44 1280.21 1471.71 Q1280.21 1462.96 1283.26 1458.38 Q1286.34 1453.77 1292.15 1453.77 Z" fill="#000000" fill-rule="evenodd" fill-opacity="1" /><path clip-path="url(#clip350)" d="M1305.28 1433.47 L1320.2 1433.47 L1320.2 1436.66 L1308.76 1436.66 L1308.76 1443.55 Q1309.59 1443.27 1310.42 1443.13 Q1311.24 1442.98 1312.07 1442.98 Q1316.77 1442.98 1319.52 1445.56 Q1322.26 1448.14 1322.26 1452.54 Q1322.26 1457.07 1319.44 1459.59 Q1316.62 1462.09 1311.49 1462.09 Q1309.72 1462.09 1307.88 1461.79 Q1306.05 1461.49 1304.1 1460.89 L1304.1 1457.07 Q1305.79 1457.99 1307.59 1458.44 Q1309.4 1458.89 1311.41 1458.89 Q1314.67 1458.89 1316.57 1457.18 Q1318.47 1455.47 1318.47 1452.54 Q1318.47 1449.6 1316.57 1447.89 Q1314.67 1446.18 1311.41 1446.18 Q1309.89 1446.18 1308.37 1446.52 Q1306.86 1446.86 1305.28 1447.57 L1305.28 1433.47 Z" fill="#000000" fill-rule="evenodd" fill-opacity="1" /><path clip-path="url(#clip350)" d="M1754.81 1485.02 L1762.45 1485.02 L1762.45 1458.66 L1754.14 1460.32 L1754.14 1456.06 L1762.4 1454.4 L1767.08 1454.4 L1767.08 1485.02 L1774.72 1485.02 L1774.72 1488.96 L1754.81 1488.96 L1754.81 1485.02 Z" fill="#000000" fill-rule="evenodd" fill-opacity="1" /><path clip-path="url(#clip350)" d="M1794.16 1457.48 Q1790.55 1457.48 1788.72 1461.04 Q1786.92 1464.58 1786.92 1471.71 Q1786.92 1478.82 1788.72 1482.38 Q1790.55 1485.92 1794.16 1485.92 Q1797.8 1485.92 1799.6 1482.38 Q1801.43 1478.82 1801.43 1471.71 Q1801.43 1464.58 1799.6 1461.04 Q1797.8 1457.48 1794.16 1457.48 M1794.16 1453.77 Q1799.97 1453.77 1803.03 1458.38 Q1806.11 1462.96 1806.11 1471.71 Q1806.11 1480.44 1803.03 1485.04 Q1799.97 1489.63 1794.16 1489.63 Q1788.35 1489.63 1785.27 1485.04 Q1782.22 1480.44 1782.22 1471.71 Q1782.22 1462.96 1785.27 1458.38 Q1788.35 1453.77 1794.16 1453.77 Z" fill="#000000" fill-rule="evenodd" fill-opacity="1" /><path clip-path="url(#clip350)" d="M1816.13 1445.99 Q1813.57 1445.99 1812.07 1447.74 Q1810.58 1449.49 1810.58 1452.54 Q1810.58 1455.57 1812.07 1457.33 Q1813.57 1459.08 1816.13 1459.08 Q1818.69 1459.08 1820.18 1457.33 Q1821.68 1455.57 1821.68 1452.54 Q1821.68 1449.49 1820.18 1447.74 Q1818.69 1445.99 1816.13 1445.99 M1823.67 1434.09 L1823.67 1437.55 Q1822.24 1436.87 1820.78 1436.51 Q1819.33 1436.16 1817.9 1436.16 Q1814.14 1436.16 1812.14 1438.69 Q1810.17 1441.23 1809.89 1446.37 Q1811 1444.73 1812.67 1443.87 Q1814.34 1442.98 1816.36 1442.98 Q1820.59 1442.98 1823.03 1445.56 Q1825.5 1448.12 1825.5 1452.54 Q1825.5 1456.86 1822.94 1459.48 Q1820.38 1462.09 1816.13 1462.09 Q1811.26 1462.09 1808.68 1458.37 Q1806.11 1454.62 1806.11 1447.53 Q1806.11 1440.88 1809.27 1436.93 Q1812.43 1432.96 1817.75 1432.96 Q1819.18 1432.96 1820.63 1433.24 Q1822.09 1433.52 1823.67 1434.09 Z" fill="#000000" fill-rule="evenodd" fill-opacity="1" /><path clip-path="url(#clip350)" d="M2258.1 1485.02 L2265.74 1485.02 L2265.74 1458.66 L2257.43 1460.32 L2257.43 1456.06 L2265.69 1454.4 L2270.37 1454.4 L2270.37 1485.02 L2278.01 1485.02 L2278.01 1488.96 L2258.1 1488.96 L2258.1 1485.02 Z" fill="#000000" fill-rule="evenodd" fill-opacity="1" /><path clip-path="url(#clip350)" d="M2297.45 1457.48 Q2293.84 1457.48 2292.01 1461.04 Q2290.21 1464.58 2290.21 1471.71 Q2290.21 1478.82 2292.01 1482.38 Q2293.84 1485.92 2297.45 1485.92 Q2301.09 1485.92 2302.89 1482.38 Q2304.72 1478.82 2304.72 1471.71 Q2304.72 1464.58 2302.89 1461.04 Q2301.09 1457.48 2297.45 1457.48 M2297.45 1453.77 Q2303.26 1453.77 2306.32 1458.38 Q2309.4 1462.96 2309.4 1471.71 Q2309.4 1480.44 2306.32 1485.04 Q2303.26 1489.63 2297.45 1489.63 Q2291.64 1489.63 2288.56 1485.04 Q2285.51 1480.44 2285.51 1471.71 Q2285.51 1462.96 2288.56 1458.38 Q2291.64 1453.77 2297.45 1453.77 Z" fill="#000000" fill-rule="evenodd" fill-opacity="1" /><path clip-path="url(#clip350)" d="M2309.4 1433.47 L2327.45 1433.47 L2327.45 1435.08 L2317.26 1461.55 L2313.29 1461.55 L2322.88 1436.66 L2309.4 1436.66 L2309.4 1433.47 Z" fill="#000000" fill-rule="evenodd" fill-opacity="1" /><path clip-path="url(#clip350)" d="M1269.21 1526.67 L1277.87 1526.67 L1298.94 1566.42 L1298.94 1526.67 L1305.18 1526.67 L1305.18 1574.19 L1296.52 1574.19 L1275.45 1534.43 L1275.45 1574.19 L1269.21 1574.19 L1269.21 1526.67 Z" fill="#000000" fill-rule="evenodd" fill-opacity="1" /><polyline clip-path="url(#clip352)" style="stroke:#000000; stroke-linecap:butt; stroke-linejoin:round; stroke-width:2; stroke-opacity:0.1; fill:none" points="
  221.637,1030.84 2352.76,1030.84 
  "/>
<polyline clip-path="url(#clip352)" style="stroke:#000000; stroke-linecap:butt; stroke-linejoin:round; stroke-width:2; stroke-opacity:0.1; fill:none" points="
  221.637,568.807 2352.76,568.807 
  "/>
<polyline clip-path="url(#clip352)" style="stroke:#000000; stroke-linecap:butt; stroke-linejoin:round; stroke-width:2; stroke-opacity:0.1; fill:none" points="
  221.637,106.779 2352.76,106.779 
  "/>
<polyline clip-path="url(#clip350)" style="stroke:#000000; stroke-linecap:butt; stroke-linejoin:round; stroke-width:4; stroke-opacity:1; fill:none" points="
  221.637,1410.9 221.637,47.2441 
  "/>
<polyline clip-path="url(#clip350)" style="stroke:#000000; stroke-linecap:butt; stroke-linejoin:round; stroke-width:4; stroke-opacity:1; fill:none" points="
  221.637,1030.84 240.535,1030.84 
  "/>
<polyline clip-path="url(#clip350)" style="stroke:#000000; stroke-linecap:butt; stroke-linejoin:round; stroke-width:4; stroke-opacity:1; fill:none" points="
  221.637,568.807 240.535,568.807 
  "/>
<polyline clip-path="url(#clip350)" style="stroke:#000000; stroke-linecap:butt; stroke-linejoin:round; stroke-width:4; stroke-opacity:1; fill:none" points="
  221.637,106.779 240.535,106.779 
  "/>
<path clip-path="url(#clip350)" d="M114.931 1050.63 L122.57 1050.63 L122.57 1024.26 L114.26 1025.93 L114.26 1021.67 L122.524 1020 L127.2 1020 L127.2 1050.63 L134.839 1050.63 L134.839 1054.56 L114.931 1054.56 L114.931 1050.63 Z" fill="#000000" fill-rule="evenodd" fill-opacity="1" /><path clip-path="url(#clip350)" d="M154.283 1023.08 Q150.672 1023.08 148.843 1026.65 Q147.038 1030.19 147.038 1037.32 Q147.038 1044.42 148.843 1047.99 Q150.672 1051.53 154.283 1051.53 Q157.917 1051.53 159.723 1047.99 Q161.552 1044.42 161.552 1037.32 Q161.552 1030.19 159.723 1026.65 Q157.917 1023.08 154.283 1023.08 M154.283 1019.38 Q160.093 1019.38 163.149 1023.99 Q166.227 1028.57 166.227 1037.32 Q166.227 1046.05 163.149 1050.65 Q160.093 1055.23 154.283 1055.23 Q148.473 1055.23 145.394 1050.65 Q142.339 1046.05 142.339 1037.32 Q142.339 1028.57 145.394 1023.99 Q148.473 1019.38 154.283 1019.38 Z" fill="#000000" fill-rule="evenodd" fill-opacity="1" /><path clip-path="url(#clip350)" d="M175.932 1001.57 Q172.998 1001.57 171.512 1004.47 Q170.045 1007.35 170.045 1013.14 Q170.045 1018.92 171.512 1021.81 Q172.998 1024.69 175.932 1024.69 Q178.885 1024.69 180.352 1021.81 Q181.838 1018.92 181.838 1013.14 Q181.838 1007.35 180.352 1004.47 Q178.885 1001.57 175.932 1001.57 M175.932 998.565 Q180.653 998.565 183.136 1002.31 Q185.637 1006.03 185.637 1013.14 Q185.637 1020.23 183.136 1023.97 Q180.653 1027.7 175.932 1027.7 Q171.212 1027.7 168.71 1023.97 Q166.227 1020.23 166.227 1013.14 Q166.227 1006.03 168.71 1002.31 Q171.212 998.565 175.932 998.565 Z" fill="#000000" fill-rule="evenodd" fill-opacity="1" /><path clip-path="url(#clip350)" d="M117.621 588.6 L125.26 588.6 L125.26 562.234 L116.95 563.901 L116.95 559.642 L125.214 557.975 L129.889 557.975 L129.889 588.6 L137.528 588.6 L137.528 592.535 L117.621 592.535 L117.621 588.6 Z" fill="#000000" fill-rule="evenodd" fill-opacity="1" /><path clip-path="url(#clip350)" d="M156.973 561.054 Q153.362 561.054 151.533 564.618 Q149.727 568.16 149.727 575.29 Q149.727 582.396 151.533 585.961 Q153.362 589.503 156.973 589.503 Q160.607 589.503 162.412 585.961 Q164.241 582.396 164.241 575.29 Q164.241 568.16 162.412 564.618 Q160.607 561.054 156.973 561.054 M156.973 557.35 Q162.783 557.35 165.838 561.956 Q168.917 566.54 168.917 575.29 Q168.917 584.016 165.838 588.623 Q162.783 593.206 156.973 593.206 Q151.162 593.206 148.084 588.623 Q145.028 584.016 145.028 575.29 Q145.028 566.54 148.084 561.956 Q151.162 557.35 156.973 557.35 Z" fill="#000000" fill-rule="evenodd" fill-opacity="1" /><path clip-path="url(#clip350)" d="M169.462 561.927 L175.669 561.927 L175.669 540.505 L168.917 541.859 L168.917 538.399 L175.631 537.045 L179.431 537.045 L179.431 561.927 L185.637 561.927 L185.637 565.125 L169.462 565.125 L169.462 561.927 Z" fill="#000000" fill-rule="evenodd" fill-opacity="1" /><path clip-path="url(#clip350)" d="M116.511 126.571 L124.15 126.571 L124.15 100.205 L115.84 101.872 L115.84 97.6128 L124.104 95.9462 L128.78 95.9462 L128.78 126.571 L136.419 126.571 L136.419 130.506 L116.511 130.506 L116.511 126.571 Z" fill="#000000" fill-rule="evenodd" fill-opacity="1" /><path clip-path="url(#clip350)" d="M155.863 99.0248 Q152.252 99.0248 150.423 102.59 Q148.618 106.131 148.618 113.261 Q148.618 120.367 150.423 123.932 Q152.252 127.474 155.863 127.474 Q159.497 127.474 161.303 123.932 Q163.131 120.367 163.131 113.261 Q163.131 106.131 161.303 102.59 Q159.497 99.0248 155.863 99.0248 M155.863 95.3212 Q161.673 95.3212 164.729 99.9276 Q167.807 104.511 167.807 113.261 Q167.807 121.988 164.729 126.594 Q161.673 131.177 155.863 131.177 Q150.053 131.177 146.974 126.594 Q143.919 121.988 143.919 113.261 Q143.919 104.511 146.974 99.9276 Q150.053 95.3212 155.863 95.3212 Z" fill="#000000" fill-rule="evenodd" fill-opacity="1" /><path clip-path="url(#clip350)" d="M172.378 99.8984 L185.637 99.8984 L185.637 103.096 L167.807 103.096 L167.807 99.8984 Q169.97 97.6603 173.694 93.8988 Q177.437 90.1184 178.396 89.0275 Q180.22 86.9775 180.935 85.5669 Q181.669 84.1375 181.669 82.7646 Q181.669 80.5264 180.089 79.1158 Q178.528 77.7053 176.008 77.7053 Q174.221 77.7053 172.227 78.3259 Q170.252 78.9466 167.995 80.2067 L167.995 76.3699 Q170.29 75.4483 172.284 74.9781 Q174.277 74.5079 175.932 74.5079 Q180.296 74.5079 182.891 76.6896 Q185.487 78.8713 185.487 82.5201 Q185.487 84.2504 184.828 85.8114 Q184.189 87.3537 182.477 89.4601 Q182.007 90.0055 179.487 92.6198 Q176.967 95.2153 172.378 99.8984 Z" fill="#000000" fill-rule="evenodd" fill-opacity="1" /><path clip-path="url(#clip350)" d="M32.4621 1022.02 Q32.4621 1026.73 36.1542 1029.47 Q39.8145 1032.21 46.212 1032.21 Q52.6095 1032.21 56.3017 1029.5 Q59.9619 1026.76 59.9619 1022.02 Q59.9619 1017.34 56.2698 1014.6 Q52.5777 1011.87 46.212 1011.87 Q39.8781 1011.87 36.186 1014.6 Q32.4621 1017.34 32.4621 1022.02 M27.4968 1022.02 Q27.4968 1014.38 32.4621 1010.02 Q37.4273 1005.66 46.212 1005.66 Q54.9649 1005.66 59.9619 1010.02 Q64.9272 1014.38 64.9272 1022.02 Q64.9272 1029.69 59.9619 1034.05 Q54.9649 1038.38 46.212 1038.38 Q37.4273 1038.38 32.4621 1034.05 Q27.4968 1029.69 27.4968 1022.02 Z" fill="#000000" fill-rule="evenodd" fill-opacity="1" /><path clip-path="url(#clip350)" d="M58.657 990.287 L77.5631 990.287 L77.5631 996.175 L28.3562 996.175 L28.3562 990.287 L33.7671 990.287 Q30.5842 988.441 29.0564 985.64 Q27.4968 982.807 27.4968 978.893 Q27.4968 972.4 32.6531 968.357 Q37.8093 964.283 46.212 964.283 Q54.6147 964.283 59.771 968.357 Q64.9272 972.4 64.9272 978.893 Q64.9272 982.807 63.3994 985.64 Q61.8398 988.441 58.657 990.287 M46.212 970.362 Q39.7508 970.362 36.0905 973.036 Q32.3984 975.678 32.3984 980.325 Q32.3984 984.972 36.0905 987.645 Q39.7508 990.287 46.212 990.287 Q52.6732 990.287 56.3653 987.645 Q60.0256 984.972 60.0256 980.325 Q60.0256 975.678 56.3653 973.036 Q52.6732 970.362 46.212 970.362 Z" fill="#000000" fill-rule="evenodd" fill-opacity="1" /><path clip-path="url(#clip350)" d="M44.7161 924.084 L47.5806 924.084 L47.5806 951.011 Q53.6281 950.629 56.8109 947.382 Q59.9619 944.104 59.9619 938.279 Q59.9619 934.905 59.1344 931.754 Q58.3069 928.572 56.6518 925.452 L62.1899 925.452 Q63.5267 928.603 64.227 931.914 Q64.9272 935.224 64.9272 938.629 Q64.9272 947.159 59.9619 952.157 Q54.9967 957.122 46.5303 957.122 Q37.7774 957.122 32.6531 952.411 Q27.4968 947.669 27.4968 939.648 Q27.4968 932.455 32.1438 928.285 Q36.7589 924.084 44.7161 924.084 M42.9973 929.94 Q38.1912 930.004 35.3266 932.646 Q32.4621 935.256 32.4621 939.584 Q32.4621 944.486 35.2312 947.446 Q38.0002 950.374 43.0292 950.82 L42.9973 929.94 Z" fill="#000000" fill-rule="evenodd" fill-opacity="1" /><path clip-path="url(#clip350)" d="M33.8307 893.815 Q33.2578 894.802 33.0032 895.979 Q32.7167 897.125 32.7167 898.525 Q32.7167 903.491 35.9632 906.164 Q39.1779 908.806 45.2253 908.806 L64.0042 908.806 L64.0042 914.694 L28.3562 914.694 L28.3562 908.806 L33.8944 908.806 Q30.6479 906.96 29.0883 904 Q27.4968 901.04 27.4968 896.807 Q27.4968 896.202 27.5923 895.47 Q27.656 894.738 27.8151 893.847 L33.8307 893.815 Z" fill="#000000" fill-rule="evenodd" fill-opacity="1" /><path clip-path="url(#clip350)" d="M46.0847 871.471 Q46.0847 878.569 47.7079 881.306 Q49.3312 884.043 53.2461 884.043 Q56.3653 884.043 58.2114 882.006 Q60.0256 879.938 60.0256 876.405 Q60.0256 871.535 56.5881 868.607 Q53.1188 865.647 47.3897 865.647 L46.0847 865.647 L46.0847 871.471 M43.6657 859.79 L64.0042 859.79 L64.0042 865.647 L58.5933 865.647 Q61.8398 867.652 63.3994 870.644 Q64.9272 873.636 64.9272 877.964 Q64.9272 883.439 61.8716 886.685 Q58.7843 889.9 53.6281 889.9 Q47.6125 889.9 44.5569 885.89 Q41.5014 881.847 41.5014 873.858 L41.5014 865.647 L40.9285 865.647 Q36.8862 865.647 34.6901 868.32 Q32.4621 870.962 32.4621 875.768 Q32.4621 878.824 33.1941 881.72 Q33.9262 884.616 35.3903 887.29 L29.9795 887.29 Q28.7381 884.075 28.1334 881.052 Q27.4968 878.028 27.4968 875.163 Q27.4968 867.429 31.5072 863.61 Q35.5176 859.79 43.6657 859.79 Z" fill="#000000" fill-rule="evenodd" fill-opacity="1" /><path clip-path="url(#clip350)" d="M18.2347 841.934 L28.3562 841.934 L28.3562 829.871 L32.9077 829.871 L32.9077 841.934 L52.2594 841.934 Q56.6199 841.934 57.8613 840.757 Q59.1026 839.547 59.1026 835.887 L59.1026 829.871 L64.0042 829.871 L64.0042 835.887 Q64.0042 842.666 61.4897 845.245 Q58.9434 847.823 52.2594 847.823 L32.9077 847.823 L32.9077 852.119 L28.3562 852.119 L28.3562 847.823 L18.2347 847.823 L18.2347 841.934 Z" fill="#000000" fill-rule="evenodd" fill-opacity="1" /><path clip-path="url(#clip350)" d="M28.3562 822.169 L28.3562 816.312 L64.0042 816.312 L64.0042 822.169 L28.3562 822.169 M14.479 822.169 L14.479 816.312 L21.895 816.312 L21.895 822.169 L14.479 822.169 Z" fill="#000000" fill-rule="evenodd" fill-opacity="1" /><path clip-path="url(#clip350)" d="M32.4621 790.245 Q32.4621 794.955 36.1542 797.693 Q39.8145 800.43 46.212 800.43 Q52.6095 800.43 56.3017 797.725 Q59.9619 794.987 59.9619 790.245 Q59.9619 785.566 56.2698 782.829 Q52.5777 780.092 46.212 780.092 Q39.8781 780.092 36.186 782.829 Q32.4621 785.566 32.4621 790.245 M27.4968 790.245 Q27.4968 782.606 32.4621 778.245 Q37.4273 773.885 46.212 773.885 Q54.9649 773.885 59.9619 778.245 Q64.9272 782.606 64.9272 790.245 Q64.9272 797.915 59.9619 802.276 Q54.9649 806.605 46.212 806.605 Q37.4273 806.605 32.4621 802.276 Q27.4968 797.915 27.4968 790.245 Z" fill="#000000" fill-rule="evenodd" fill-opacity="1" /><path clip-path="url(#clip350)" d="M42.4881 734.545 L64.0042 734.545 L64.0042 740.401 L42.679 740.401 Q37.6183 740.401 35.1038 742.375 Q32.5894 744.348 32.5894 748.295 Q32.5894 753.037 35.6131 755.775 Q38.6368 758.512 43.8567 758.512 L64.0042 758.512 L64.0042 764.4 L28.3562 764.4 L28.3562 758.512 L33.8944 758.512 Q30.6797 756.411 29.0883 753.578 Q27.4968 750.714 27.4968 746.99 Q27.4968 740.847 31.3163 737.696 Q35.1038 734.545 42.4881 734.545 Z" fill="#000000" fill-rule="evenodd" fill-opacity="1" /><path clip-path="url(#clip350)" d="M18.2347 696.351 L28.3562 696.351 L28.3562 684.288 L32.9077 684.288 L32.9077 696.351 L52.2594 696.351 Q56.6199 696.351 57.8613 695.173 Q59.1026 693.963 59.1026 690.303 L59.1026 684.288 L64.0042 684.288 L64.0042 690.303 Q64.0042 697.083 61.4897 699.661 Q58.9434 702.239 52.2594 702.239 L32.9077 702.239 L32.9077 706.536 L28.3562 706.536 L28.3562 702.239 L18.2347 702.239 L18.2347 696.351 Z" fill="#000000" fill-rule="evenodd" fill-opacity="1" /><path clip-path="url(#clip350)" d="M28.3562 676.585 L28.3562 670.729 L64.0042 670.729 L64.0042 676.585 L28.3562 676.585 M14.479 676.585 L14.479 670.729 L21.895 670.729 L21.895 676.585 L14.479 676.585 Z" fill="#000000" fill-rule="evenodd" fill-opacity="1" /><path clip-path="url(#clip350)" d="M35.1993 630.72 Q31.2526 628.524 29.3747 625.468 Q27.4968 622.413 27.4968 618.275 Q27.4968 612.705 31.4117 609.682 Q35.2948 606.658 42.4881 606.658 L64.0042 606.658 L64.0042 612.546 L42.679 612.546 Q37.5546 612.546 35.072 614.36 Q32.5894 616.175 32.5894 619.898 Q32.5894 624.45 35.6131 627.092 Q38.6368 629.734 43.8567 629.734 L64.0042 629.734 L64.0042 635.622 L42.679 635.622 Q37.5228 635.622 35.072 637.436 Q32.5894 639.25 32.5894 643.038 Q32.5894 647.526 35.6449 650.167 Q38.6686 652.809 43.8567 652.809 L64.0042 652.809 L64.0042 658.697 L28.3562 658.697 L28.3562 652.809 L33.8944 652.809 Q30.616 650.804 29.0564 648.003 Q27.4968 645.202 27.4968 641.351 Q27.4968 637.468 29.4702 634.762 Q31.4436 632.025 35.1993 630.72 Z" fill="#000000" fill-rule="evenodd" fill-opacity="1" /><path clip-path="url(#clip350)" d="M44.7161 564.485 L47.5806 564.485 L47.5806 591.412 Q53.6281 591.03 56.8109 587.784 Q59.9619 584.505 59.9619 578.681 Q59.9619 575.307 59.1344 572.156 Q58.3069 568.973 56.6518 565.854 L62.1899 565.854 Q63.5267 569.005 64.227 572.315 Q64.9272 575.625 64.9272 579.031 Q64.9272 587.561 59.9619 592.558 Q54.9967 597.523 46.5303 597.523 Q37.7774 597.523 32.6531 592.812 Q27.4968 588.07 27.4968 580.049 Q27.4968 572.856 32.1438 568.686 Q36.7589 564.485 44.7161 564.485 M42.9973 570.341 Q38.1912 570.405 35.3266 573.047 Q32.4621 575.657 32.4621 579.986 Q32.4621 584.887 35.2312 587.847 Q38.0002 590.775 43.0292 591.221 L42.9973 570.341 Z" fill="#000000" fill-rule="evenodd" fill-opacity="1" /><path clip-path="url(#clip350)" d="M14.479 534.694 L14.479 521.198 L19.0304 521.198 L19.0304 528.837 L68.0464 528.837 L68.0464 521.198 L72.5979 521.198 L72.5979 534.694 L14.479 534.694 Z" fill="#000000" fill-rule="evenodd" fill-opacity="1" /><path clip-path="url(#clip350)" d="M42.4881 479.089 L64.0042 479.089 L64.0042 484.946 L42.679 484.946 Q37.6183 484.946 35.1038 486.919 Q32.5894 488.892 32.5894 492.839 Q32.5894 497.581 35.6131 500.319 Q38.6368 503.056 43.8567 503.056 L64.0042 503.056 L64.0042 508.944 L28.3562 508.944 L28.3562 503.056 L33.8944 503.056 Q30.6797 500.955 29.0883 498.123 Q27.4968 495.258 27.4968 491.534 Q27.4968 485.391 31.3163 482.24 Q35.1038 479.089 42.4881 479.089 Z" fill="#000000" fill-rule="evenodd" fill-opacity="1" /><path clip-path="url(#clip350)" d="M29.4065 444.682 L34.9447 444.682 Q33.6716 447.165 33.035 449.839 Q32.3984 452.512 32.3984 455.377 Q32.3984 459.737 33.7352 461.933 Q35.072 464.098 37.7456 464.098 Q39.7826 464.098 40.9603 462.538 Q42.1061 460.979 43.1565 456.268 L43.6021 454.263 Q44.9389 448.024 47.3897 445.414 Q49.8086 442.773 54.1691 442.773 Q59.1344 442.773 62.0308 446.719 Q64.9272 450.634 64.9272 457.509 Q64.9272 460.374 64.3543 463.493 Q63.8132 466.58 62.6992 470.018 L56.6518 470.018 Q58.3387 466.771 59.198 463.62 Q60.0256 460.469 60.0256 457.382 Q60.0256 453.244 58.6251 451.016 Q57.1929 448.788 54.6147 448.788 Q52.2276 448.788 50.9545 450.412 Q49.6813 452.003 48.5037 457.446 L48.0262 459.483 Q46.8804 464.925 44.5251 467.344 Q42.138 469.763 38.0002 469.763 Q32.9713 469.763 30.2341 466.199 Q27.4968 462.634 27.4968 456.077 Q27.4968 452.831 27.9743 449.966 Q28.4517 447.101 29.4065 444.682 Z" fill="#000000" fill-rule="evenodd" fill-opacity="1" /><path clip-path="url(#clip350)" d="M14.479 419.761 L72.5979 419.761 L72.5979 433.256 L68.0464 433.256 L68.0464 425.649 L19.0304 425.649 L19.0304 433.256 L14.479 433.256 L14.479 419.761 Z" fill="#000000" fill-rule="evenodd" fill-opacity="1" /><polyline clip-path="url(#clip352)" style="stroke:#009af9; stroke-linecap:butt; stroke-linejoin:round; stroke-width:4; stroke-opacity:1; fill:none" points="
  281.952,450.864 784.574,341.784 1287.2,237.993 1789.82,167.197 2292.44,85.838 
  "/>
<path clip-path="url(#clip352)" d="M281.952 434.864 L265.952 450.864 L281.952 466.864 L297.952 450.864 L281.952 434.864 Z" fill="#009af9" fill-rule="evenodd" fill-opacity="1" stroke="#000000" stroke-opacity="1" stroke-width="3.2"/>
<path clip-path="url(#clip352)" d="M784.574 325.784 L768.574 341.784 L784.574 357.784 L800.574 341.784 L784.574 325.784 Z" fill="#009af9" fill-rule="evenodd" fill-opacity="1" stroke="#000000" stroke-opacity="1" stroke-width="3.2"/>
<path clip-path="url(#clip352)" d="M1287.2 221.993 L1271.2 237.993 L1287.2 253.993 L1303.2 237.993 L1287.2 221.993 Z" fill="#009af9" fill-rule="evenodd" fill-opacity="1" stroke="#000000" stroke-opacity="1" stroke-width="3.2"/>
<path clip-path="url(#clip352)" d="M1789.82 151.197 L1773.82 167.197 L1789.82 183.197 L1805.82 167.197 L1789.82 151.197 Z" fill="#009af9" fill-rule="evenodd" fill-opacity="1" stroke="#000000" stroke-opacity="1" stroke-width="3.2"/>
<path clip-path="url(#clip352)" d="M2292.44 69.838 L2276.44 85.838 L2292.44 101.838 L2308.44 85.838 L2292.44 69.838 Z" fill="#009af9" fill-rule="evenodd" fill-opacity="1" stroke="#000000" stroke-opacity="1" stroke-width="3.2"/>
<polyline clip-path="url(#clip352)" style="stroke:#e26f46; stroke-linecap:butt; stroke-linejoin:round; stroke-width:4; stroke-opacity:1; fill:none" points="
  281.952,440.015 784.574,355.166 1287.2,262.594 1789.82,184.164 2292.44,108.795 
  "/>
<path clip-path="url(#clip352)" d="M281.952 424.015 L265.952 456.015 L297.952 456.015 L281.952 424.015 Z" fill="#e26f46" fill-rule="evenodd" fill-opacity="1" stroke="#000000" stroke-opacity="1" stroke-width="3.2"/>
<path clip-path="url(#clip352)" d="M784.574 339.166 L768.574 371.166 L800.574 371.166 L784.574 339.166 Z" fill="#e26f46" fill-rule="evenodd" fill-opacity="1" stroke="#000000" stroke-opacity="1" stroke-width="3.2"/>
<path clip-path="url(#clip352)" d="M1287.2 246.594 L1271.2 278.594 L1303.2 278.594 L1287.2 246.594 Z" fill="#e26f46" fill-rule="evenodd" fill-opacity="1" stroke="#000000" stroke-opacity="1" stroke-width="3.2"/>
<path clip-path="url(#clip352)" d="M1789.82 168.164 L1773.82 200.164 L1805.82 200.164 L1789.82 168.164 Z" fill="#e26f46" fill-rule="evenodd" fill-opacity="1" stroke="#000000" stroke-opacity="1" stroke-width="3.2"/>
<path clip-path="url(#clip352)" d="M2292.44 92.7952 L2276.44 124.795 L2308.44 124.795 L2292.44 92.7952 Z" fill="#e26f46" fill-rule="evenodd" fill-opacity="1" stroke="#000000" stroke-opacity="1" stroke-width="3.2"/>
<polyline clip-path="url(#clip352)" style="stroke:#3da44d; stroke-linecap:butt; stroke-linejoin:round; stroke-width:4; stroke-opacity:1; fill:none" points="
  281.952,1372.3 784.574,1349.61 1287.2,1332.24 1789.82,1310.82 2292.44,1305.02 
  "/>
<path clip-path="url(#clip352)" d="M297.952 1356.3 L265.952 1356.3 L281.952 1388.3 L297.952 1356.3 Z" fill="#3da44d" fill-rule="evenodd" fill-opacity="1" stroke="#000000" stroke-opacity="1" stroke-width="3.2"/>
<path clip-path="url(#clip352)" d="M800.574 1333.61 L768.574 1333.61 L784.574 1365.61 L800.574 1333.61 Z" fill="#3da44d" fill-rule="evenodd" fill-opacity="1" stroke="#000000" stroke-opacity="1" stroke-width="3.2"/>
<path clip-path="url(#clip352)" d="M1303.2 1316.24 L1271.2 1316.24 L1287.2 1348.24 L1303.2 1316.24 Z" fill="#3da44d" fill-rule="evenodd" fill-opacity="1" stroke="#000000" stroke-opacity="1" stroke-width="3.2"/>
<path clip-path="url(#clip352)" d="M1805.82 1294.82 L1773.82 1294.82 L1789.82 1326.82 L1805.82 1294.82 Z" fill="#3da44d" fill-rule="evenodd" fill-opacity="1" stroke="#000000" stroke-opacity="1" stroke-width="3.2"/>
<path clip-path="url(#clip352)" d="M2308.44 1289.02 L2276.44 1289.02 L2292.44 1321.02 L2308.44 1289.02 Z" fill="#3da44d" fill-rule="evenodd" fill-opacity="1" stroke="#000000" stroke-opacity="1" stroke-width="3.2"/>
<path clip-path="url(#clip350)" d="
M292.674 300.059 L679.719 300.059 L679.719 92.6992 L292.674 92.6992  Z
  " fill="#ffffff" fill-rule="evenodd" fill-opacity="1"/>
<polyline clip-path="url(#clip350)" style="stroke:#000000; stroke-linecap:butt; stroke-linejoin:round; stroke-width:4; stroke-opacity:1; fill:none" points="
  292.674,300.059 679.719,300.059 679.719,92.6992 292.674,92.6992 292.674,300.059 
  "/>
<polyline clip-path="url(#clip350)" style="stroke:#009af9; stroke-linecap:butt; stroke-linejoin:round; stroke-width:4; stroke-opacity:1; fill:none" points="
  316.353,144.539 458.428,144.539 
  "/>
<path clip-path="url(#clip350)" d="M387.391 118.939 L361.791 144.539 L387.391 170.139 L412.991 144.539 L387.391 118.939 Z" fill="#009af9" fill-rule="evenodd" fill-opacity="1" stroke="#000000" stroke-opacity="1" stroke-width="5.12"/>
<path clip-path="url(#clip350)" d="M482.107 135.893 L486.366 135.893 L486.366 161.819 L482.107 161.819 L482.107 135.893 M482.107 125.801 L486.366 125.801 L486.366 131.194 L482.107 131.194 L482.107 125.801 Z" fill="#000000" fill-rule="evenodd" fill-opacity="1" /><path clip-path="url(#clip350)" d="M516.829 146.171 L516.829 161.819 L512.57 161.819 L512.57 146.31 Q512.57 142.629 511.135 140.801 Q509.7 138.972 506.829 138.972 Q503.38 138.972 501.389 141.171 Q499.399 143.37 499.399 147.166 L499.399 161.819 L495.116 161.819 L495.116 135.893 L499.399 135.893 L499.399 139.921 Q500.927 137.583 502.987 136.426 Q505.07 135.268 507.778 135.268 Q512.246 135.268 514.538 138.046 Q516.829 140.801 516.829 146.171 Z" fill="#000000" fill-rule="evenodd" fill-opacity="1" /><path clip-path="url(#clip350)" d="M541.852 136.657 L541.852 140.685 Q540.047 139.759 538.102 139.296 Q536.158 138.833 534.074 138.833 Q530.903 138.833 529.306 139.805 Q527.732 140.778 527.732 142.722 Q527.732 144.204 528.866 145.06 Q530 145.893 533.426 146.657 L534.885 146.981 Q539.422 147.954 541.32 149.736 Q543.241 151.495 543.241 154.666 Q543.241 158.278 540.371 160.384 Q537.524 162.49 532.524 162.49 Q530.44 162.49 528.172 162.074 Q525.926 161.68 523.426 160.87 L523.426 156.472 Q525.787 157.699 528.079 158.324 Q530.371 158.926 532.616 158.926 Q535.625 158.926 537.246 157.907 Q538.866 156.866 538.866 154.991 Q538.866 153.254 537.686 152.328 Q536.528 151.403 532.57 150.546 L531.088 150.199 Q527.13 149.366 525.371 147.653 Q523.612 145.916 523.612 142.907 Q523.612 139.25 526.204 137.259 Q528.797 135.268 533.565 135.268 Q535.926 135.268 538.01 135.616 Q540.093 135.963 541.852 136.657 Z" fill="#000000" fill-rule="evenodd" fill-opacity="1" /><path clip-path="url(#clip350)" d="M572.199 147.791 L572.199 149.875 L552.616 149.875 Q552.894 154.273 555.255 156.588 Q557.639 158.879 561.875 158.879 Q564.329 158.879 566.621 158.278 Q568.935 157.676 571.204 156.472 L571.204 160.5 Q568.912 161.472 566.505 161.981 Q564.097 162.49 561.621 162.49 Q555.417 162.49 551.783 158.879 Q548.172 155.268 548.172 149.111 Q548.172 142.745 551.598 139.018 Q555.047 135.268 560.88 135.268 Q566.111 135.268 569.144 138.648 Q572.199 142.004 572.199 147.791 M567.94 146.541 Q567.894 143.046 565.972 140.963 Q564.074 138.879 560.926 138.879 Q557.361 138.879 555.209 140.893 Q553.079 142.907 552.755 146.565 L567.94 146.541 Z" fill="#000000" fill-rule="evenodd" fill-opacity="1" /><path clip-path="url(#clip350)" d="M594.213 139.875 Q593.495 139.458 592.639 139.273 Q591.806 139.065 590.787 139.065 Q587.176 139.065 585.232 141.426 Q583.31 143.764 583.31 148.162 L583.31 161.819 L579.028 161.819 L579.028 135.893 L583.31 135.893 L583.31 139.921 Q584.653 137.56 586.806 136.426 Q588.958 135.268 592.037 135.268 Q592.477 135.268 593.009 135.338 Q593.542 135.384 594.19 135.5 L594.213 139.875 Z" fill="#000000" fill-rule="evenodd" fill-opacity="1" /><path clip-path="url(#clip350)" d="M602.894 128.532 L602.894 135.893 L611.667 135.893 L611.667 139.204 L602.894 139.204 L602.894 153.278 Q602.894 156.449 603.75 157.352 Q604.63 158.254 607.292 158.254 L611.667 158.254 L611.667 161.819 L607.292 161.819 Q602.361 161.819 600.486 159.99 Q598.611 158.139 598.611 153.278 L598.611 139.204 L595.486 139.204 L595.486 135.893 L598.611 135.893 L598.611 128.532 L602.894 128.532 Z" fill="#000000" fill-rule="evenodd" fill-opacity="1" /><polyline clip-path="url(#clip350)" style="stroke:#e26f46; stroke-linecap:butt; stroke-linejoin:round; stroke-width:4; stroke-opacity:1; fill:none" points="
  316.353,196.379 458.428,196.379 
  "/>
<path clip-path="url(#clip350)" d="M387.391 170.779 L361.791 221.979 L412.991 221.979 L387.391 170.779 Z" fill="#e26f46" fill-rule="evenodd" fill-opacity="1" stroke="#000000" stroke-opacity="1" stroke-width="5.12"/>
<path clip-path="url(#clip350)" d="M501.019 191.669 L501.019 177.641 L505.278 177.641 L505.278 213.659 L501.019 213.659 L501.019 209.77 Q499.677 212.085 497.616 213.219 Q495.579 214.33 492.709 214.33 Q488.01 214.33 485.047 210.58 Q482.107 206.831 482.107 200.719 Q482.107 194.608 485.047 190.858 Q488.01 187.108 492.709 187.108 Q495.579 187.108 497.616 188.243 Q499.677 189.354 501.019 191.669 M486.505 200.719 Q486.505 205.418 488.427 208.104 Q490.371 210.766 493.751 210.766 Q497.13 210.766 499.075 208.104 Q501.019 205.418 501.019 200.719 Q501.019 196.02 499.075 193.358 Q497.13 190.673 493.751 190.673 Q490.371 190.673 488.427 193.358 Q486.505 196.02 486.505 200.719 Z" fill="#000000" fill-rule="evenodd" fill-opacity="1" /><path clip-path="url(#clip350)" d="M536.227 199.631 L536.227 201.715 L516.644 201.715 Q516.922 206.113 519.283 208.428 Q521.667 210.719 525.903 210.719 Q528.357 210.719 530.649 210.118 Q532.963 209.516 535.232 208.312 L535.232 212.34 Q532.94 213.312 530.533 213.821 Q528.125 214.33 525.649 214.33 Q519.445 214.33 515.811 210.719 Q512.2 207.108 512.2 200.951 Q512.2 194.585 515.626 190.858 Q519.075 187.108 524.908 187.108 Q530.139 187.108 533.172 190.488 Q536.227 193.844 536.227 199.631 M531.968 198.381 Q531.922 194.886 530 192.803 Q528.102 190.719 524.954 190.719 Q521.389 190.719 519.237 192.733 Q517.107 194.747 516.783 198.405 L531.968 198.381 Z" fill="#000000" fill-rule="evenodd" fill-opacity="1" /><path clip-path="url(#clip350)" d="M543.218 177.641 L547.477 177.641 L547.477 213.659 L543.218 213.659 L543.218 177.641 Z" fill="#000000" fill-rule="evenodd" fill-opacity="1" /><path clip-path="url(#clip350)" d="M578.565 199.631 L578.565 201.715 L558.982 201.715 Q559.26 206.113 561.621 208.428 Q564.005 210.719 568.241 210.719 Q570.695 210.719 572.986 210.118 Q575.301 209.516 577.57 208.312 L577.57 212.34 Q575.278 213.312 572.871 213.821 Q570.463 214.33 567.986 214.33 Q561.783 214.33 558.148 210.719 Q554.537 207.108 554.537 200.951 Q554.537 194.585 557.963 190.858 Q561.412 187.108 567.246 187.108 Q572.477 187.108 575.509 190.488 Q578.565 193.844 578.565 199.631 M574.306 198.381 Q574.259 194.886 572.338 192.803 Q570.44 190.719 567.292 190.719 Q563.727 190.719 561.574 192.733 Q559.445 194.747 559.121 198.405 L574.306 198.381 Z" fill="#000000" fill-rule="evenodd" fill-opacity="1" /><path clip-path="url(#clip350)" d="M589.769 180.372 L589.769 187.733 L598.542 187.733 L598.542 191.044 L589.769 191.044 L589.769 205.118 Q589.769 208.289 590.625 209.192 Q591.505 210.094 594.167 210.094 L598.542 210.094 L598.542 213.659 L594.167 213.659 Q589.236 213.659 587.361 211.83 Q585.486 209.979 585.486 205.118 L585.486 191.044 L582.361 191.044 L582.361 187.733 L585.486 187.733 L585.486 180.372 L589.769 180.372 Z" fill="#000000" fill-rule="evenodd" fill-opacity="1" /><path clip-path="url(#clip350)" d="M626.319 199.631 L626.319 201.715 L606.736 201.715 Q607.014 206.113 609.375 208.428 Q611.759 210.719 615.995 210.719 Q618.449 210.719 620.741 210.118 Q623.055 209.516 625.324 208.312 L625.324 212.34 Q623.032 213.312 620.625 213.821 Q618.218 214.33 615.741 214.33 Q609.537 214.33 605.903 210.719 Q602.292 207.108 602.292 200.951 Q602.292 194.585 605.718 190.858 Q609.167 187.108 615 187.108 Q620.231 187.108 623.264 190.488 Q626.319 193.844 626.319 199.631 M622.06 198.381 Q622.014 194.886 620.093 192.803 Q618.194 190.719 615.046 190.719 Q611.481 190.719 609.329 192.733 Q607.199 194.747 606.875 198.405 L622.06 198.381 Z" fill="#000000" fill-rule="evenodd" fill-opacity="1" /><polyline clip-path="url(#clip350)" style="stroke:#3da44d; stroke-linecap:butt; stroke-linejoin:round; stroke-width:4; stroke-opacity:1; fill:none" points="
  316.353,248.219 458.428,248.219 
  "/>
<path clip-path="url(#clip350)" d="M412.991 222.619 L361.791 222.619 L387.391 273.819 L412.991 222.619 Z" fill="#3da44d" fill-rule="evenodd" fill-opacity="1" stroke="#000000" stroke-opacity="1" stroke-width="5.12"/>
<path clip-path="url(#clip350)" d="M482.107 229.481 L486.366 229.481 L486.366 265.499 L482.107 265.499 L482.107 229.481 Z" fill="#000000" fill-rule="evenodd" fill-opacity="1" /><path clip-path="url(#clip350)" d="M505.325 242.559 Q501.899 242.559 499.908 245.245 Q497.917 247.907 497.917 252.559 Q497.917 257.212 499.885 259.897 Q501.876 262.559 505.325 262.559 Q508.727 262.559 510.718 259.874 Q512.709 257.189 512.709 252.559 Q512.709 247.953 510.718 245.268 Q508.727 242.559 505.325 242.559 M505.325 238.948 Q510.88 238.948 514.051 242.559 Q517.223 246.171 517.223 252.559 Q517.223 258.925 514.051 262.559 Q510.88 266.17 505.325 266.17 Q499.746 266.17 496.575 262.559 Q493.427 258.925 493.427 252.559 Q493.427 246.171 496.575 242.559 Q499.746 238.948 505.325 238.948 Z" fill="#000000" fill-rule="evenodd" fill-opacity="1" /><path clip-path="url(#clip350)" d="M534.329 242.559 Q530.903 242.559 528.912 245.245 Q526.922 247.907 526.922 252.559 Q526.922 257.212 528.889 259.897 Q530.88 262.559 534.329 262.559 Q537.732 262.559 539.723 259.874 Q541.713 257.189 541.713 252.559 Q541.713 247.953 539.723 245.268 Q537.732 242.559 534.329 242.559 M534.329 238.948 Q539.885 238.948 543.056 242.559 Q546.227 246.171 546.227 252.559 Q546.227 258.925 543.056 262.559 Q539.885 266.17 534.329 266.17 Q528.75 266.17 525.579 262.559 Q522.431 258.925 522.431 252.559 Q522.431 246.171 525.579 242.559 Q528.75 238.948 534.329 238.948 Z" fill="#000000" fill-rule="evenodd" fill-opacity="1" /><path clip-path="url(#clip350)" d="M553.125 229.481 L557.408 229.481 L557.408 250.754 L570.116 239.573 L575.556 239.573 L561.806 251.703 L576.134 265.499 L570.579 265.499 L557.408 252.837 L557.408 265.499 L553.125 265.499 L553.125 229.481 Z" fill="#000000" fill-rule="evenodd" fill-opacity="1" /><path clip-path="url(#clip350)" d="M578.843 255.268 L578.843 239.573 L583.102 239.573 L583.102 255.106 Q583.102 258.786 584.537 260.638 Q585.972 262.467 588.843 262.467 Q592.292 262.467 594.282 260.268 Q596.296 258.069 596.296 254.272 L596.296 239.573 L600.556 239.573 L600.556 265.499 L596.296 265.499 L596.296 261.518 Q594.745 263.879 592.685 265.036 Q590.648 266.17 587.94 266.17 Q583.472 266.17 581.158 263.393 Q578.843 260.615 578.843 255.268 M589.56 238.948 L589.56 238.948 Z" fill="#000000" fill-rule="evenodd" fill-opacity="1" /><path clip-path="url(#clip350)" d="M613.449 261.61 L613.449 275.36 L609.167 275.36 L609.167 239.573 L613.449 239.573 L613.449 243.509 Q614.792 241.194 616.829 240.083 Q618.889 238.948 621.736 238.948 Q626.458 238.948 629.398 242.698 Q632.361 246.448 632.361 252.559 Q632.361 258.671 629.398 262.42 Q626.458 266.17 621.736 266.17 Q618.889 266.17 616.829 265.059 Q614.792 263.925 613.449 261.61 M627.94 252.559 Q627.94 247.86 625.995 245.198 Q624.074 242.513 620.694 242.513 Q617.315 242.513 615.37 245.198 Q613.449 247.86 613.449 252.559 Q613.449 257.258 615.37 259.944 Q617.315 262.606 620.694 262.606 Q624.074 262.606 625.995 259.944 Q627.94 257.258 627.94 252.559 Z" fill="#000000" fill-rule="evenodd" fill-opacity="1" /></svg>
