<?xml version="1.0" encoding="utf-8"?>
<svg xmlns="http://www.w3.org/2000/svg" xmlns:xlink="http://www.w3.org/1999/xlink" width="600" height="400" viewBox="0 0 2400 1600">
<defs>
  <clipPath id="clip320">
    <rect x="0" y="0" width="2400" height="1600"/>
  </clipPath>
</defs>
<path clip-path="url(#clip320)" d="
M0 1600 L2400 1600 L2400 0 L0 0  Z
  " fill="#ffffff" fill-rule="evenodd" fill-opacity="1"/>
<defs>
  <clipPath id="clip321">
    <rect x="480" y="0" width="1681" height="1600"/>
  </clipPath>
</defs>
<path clip-path="url(#clip320)" d="
M232.389 1410.9 L2352.76 1410.9 L2352.76 47.2441 L232.389 47.2441  Z
  " fill="#ffffff" fill-rule="evenodd" fill-opacity="1"/>
<defs>
  <clipPath id="clip322">
    <rect x="232" y="47" width="2121" height="1365"/>
  </clipPath>
</defs>
<polyline clip-path="url(#clip322)" style="stroke:#000000; stroke-linecap:butt; stroke-linejoin:round; stroke-width:2; stroke-opacity:0.1; fill:none" points="
  292.4,1410.9 292.4,47.2441 
  "/>
<polyline clip-path="url(#clip322)" style="stroke:#000000; stroke-linecap:butt; stroke-linejoin:round; stroke-width:2; stroke-opacity:0.1; fill:none" points="
  792.486,1410.9 792.486,47.2441 
  "/>
<polyline clip-path="url(#clip322)" style="stroke:#000000; stroke-linecap:butt; stroke-linejoin:round; stroke-width:2; stroke-opacity:0.1; fill:none" points="
  1292.57,1410.9 1292.57,47.2441 
  "/>
<polyline clip-path="url(#clip322)" style="stroke:#000000; stroke-linecap:butt; stroke-linejoin:round; stroke-width:2; stroke-opacity:0.1; fill:none" points="
  1792.66,1410.9 1792.66,47.2441 
  "/>
<polyline clip-path="url(#clip322)" style="stroke:#000000; stroke-linecap:butt; stroke-linejoin:round; stroke-width:2; stroke-opacity:0.1; fill:none" points="
  2292.75,1410.9 2292.75,47.2441 
  "/>
<polyline clip-path="url(#clip320)" style="stroke:#000000; stroke-linecap:butt; stroke-linejoin:round; stroke-width:4; stroke-opacity:1; fill:none" points="
  232.389,1410.9 2352.76,1410.9 
  "/>
<polyline clip-path="url(#clip320)" style="stroke:#000000; stroke-linecap:butt; stroke-linejoin:round; stroke-width:4; stroke-opacity:1; fill:none" points="
  292.4,1410.9 292.4,1392 
  "/>
<polyline clip-path="url(#clip320)" style="stroke:#000000; stroke-linecap:butt; stroke-linejoin:round; stroke-width:4; stroke-opacity:1; fill:none" points="
  792.486,1410.9 792.486,1392 
  "/>
<polyline clip-path="url(#clip320)" style="stroke:#000000; stroke-linecap:butt; stroke-linejoin:round; stroke-width:4; stroke-opacity:1; fill:none" points="
  1292.57,1410.9 1292.57,1392 
  "/>
<polyline clip-path="url(#clip320)" style="stroke:#000000; stroke-linecap:butt; stroke-linejoin:round; stroke-width:4; stroke-opacity:1; fill:none" points="
  1792.66,1410.9 1792.66,1392 
  "/>
<polyline clip-path="url(#clip320)" style="stroke:#000000; stroke-linecap:butt; stroke-linejoin:round; stroke-width:4; stroke-opacity:1; fill:none" points="
  2292.75,1410.9 2292.75,1392 
  "/>
<path clip-path="url(#clip320)" d="M257.843 1485.02 L265.482 1485.02 L265.482 1458.66 L257.172 1460.32 L257.172 1456.06 L265.436 1454.4 L270.112 1454.4 L270.112 1485.02 L277.751 1485.02 L277.751 1488.96 L257.843 1488.96 L257.843 1485.02 Z" fill="#000000" fill-rule="evenodd" fill-opacity="1" /><path clip-path="url(#clip320)" d="M297.195 1457.48 Q293.584 1457.48 291.755 1461.04 Q289.95 1464.58 289.95 1471.71 Q289.95 1478.82 291.755 1482.38 Q293.584 1485.92 297.195 1485.92 Q300.829 1485.92 302.635 1482.38 Q304.463 1478.82 304.463 1471.71 Q304.463 1464.58 302.635 1461.04 Q300.829 1457.48 297.195 1457.48 M297.195 1453.77 Q303.005 1453.77 306.061 1458.38 Q309.139 1462.96 309.139 1471.71 Q309.139 1480.44 306.061 1485.04 Q303.005 1489.63 297.195 1489.63 Q291.385 1489.63 288.306 1485.04 Q285.251 1480.44 285.251 1471.71 Q285.251 1462.96 288.306 1458.38 Q291.385 1453.77 297.195 1453.77 Z" fill="#000000" fill-rule="evenodd" fill-opacity="1" /><path clip-path="url(#clip320)" d="M321.835 1446.41 Q324.562 1446.99 326.085 1448.83 Q327.627 1450.68 327.627 1453.38 Q327.627 1457.54 324.769 1459.82 Q321.91 1462.09 316.644 1462.09 Q314.876 1462.09 312.995 1461.73 Q311.133 1461.4 309.139 1460.7 L309.139 1457.03 Q310.719 1457.95 312.6 1458.42 Q314.481 1458.89 316.531 1458.89 Q320.104 1458.89 321.966 1457.48 Q323.847 1456.07 323.847 1453.38 Q323.847 1450.9 322.098 1449.51 Q320.368 1448.1 317.264 1448.1 L313.992 1448.1 L313.992 1444.98 L317.415 1444.98 Q320.217 1444.98 321.703 1443.87 Q323.189 1442.74 323.189 1440.63 Q323.189 1438.47 321.647 1437.32 Q320.123 1436.16 317.264 1436.16 Q315.703 1436.16 313.917 1436.49 Q312.13 1436.83 309.986 1437.55 L309.986 1434.16 Q312.149 1433.56 314.029 1433.26 Q315.929 1432.96 317.603 1432.96 Q321.929 1432.96 324.449 1434.93 Q326.969 1436.89 326.969 1440.24 Q326.969 1442.57 325.634 1444.19 Q324.298 1445.79 321.835 1446.41 Z" fill="#000000" fill-rule="evenodd" fill-opacity="1" /><path clip-path="url(#clip320)" d="M756.942 1485.02 L764.581 1485.02 L764.581 1458.66 L756.271 1460.32 L756.271 1456.06 L764.535 1454.4 L769.211 1454.4 L769.211 1485.02 L776.85 1485.02 L776.85 1488.96 L756.942 1488.96 L756.942 1485.02 Z" fill="#000000" fill-rule="evenodd" fill-opacity="1" /><path clip-path="url(#clip320)" d="M796.294 1457.48 Q792.683 1457.48 790.854 1461.04 Q789.049 1464.58 789.049 1471.71 Q789.049 1478.82 790.854 1482.38 Q792.683 1485.92 796.294 1485.92 Q799.928 1485.92 801.734 1482.38 Q803.563 1478.82 803.563 1471.71 Q803.563 1464.58 801.734 1461.04 Q799.928 1457.48 796.294 1457.48 M796.294 1453.77 Q802.104 1453.77 805.16 1458.38 Q808.238 1462.96 808.238 1471.71 Q808.238 1480.44 805.16 1485.04 Q802.104 1489.63 796.294 1489.63 Q790.484 1489.63 787.405 1485.04 Q784.35 1480.44 784.35 1471.71 Q784.35 1462.96 787.405 1458.38 Q790.484 1453.77 796.294 1453.77 Z" fill="#000000" fill-rule="evenodd" fill-opacity="1" /><path clip-path="url(#clip320)" d="M820.915 1436.78 L811.323 1451.77 L820.915 1451.77 L820.915 1436.78 M819.918 1433.47 L824.695 1433.47 L824.695 1451.77 L828.701 1451.77 L828.701 1454.93 L824.695 1454.93 L824.695 1461.55 L820.915 1461.55 L820.915 1454.93 L808.238 1454.93 L808.238 1451.26 L819.918 1433.47 Z" fill="#000000" fill-rule="evenodd" fill-opacity="1" /><path clip-path="url(#clip320)" d="M1258.18 1485.02 L1265.81 1485.02 L1265.81 1458.66 L1257.5 1460.32 L1257.5 1456.06 L1265.77 1454.4 L1270.44 1454.4 L1270.44 1485.02 L1278.08 1485.02 L1278.08 1488.96 L1258.18 1488.96 L1258.18 1485.02 Z" fill="#000000" fill-rule="evenodd" fill-opacity="1" /><path clip-path="url(#clip320)" d="M1297.53 1457.48 Q1293.92 1457.48 1292.09 1461.04 Q1290.28 1464.58 1290.28 1471.71 Q1290.28 1478.82 1292.09 1482.38 Q1293.92 1485.92 1297.53 1485.92 Q1301.16 1485.92 1302.97 1482.38 Q1304.8 1478.82 1304.8 1471.71 Q1304.8 1464.58 1302.97 1461.04 Q1301.16 1457.48 1297.53 1457.48 M1297.53 1453.77 Q1303.34 1453.77 1306.39 1458.38 Q1309.47 1462.96 1309.47 1471.71 Q1309.47 1480.44 1306.39 1485.04 Q1303.34 1489.63 1297.53 1489.63 Q1291.72 1489.63 1288.64 1485.04 Q1285.58 1480.44 1285.58 1471.71 Q1285.58 1462.96 1288.64 1458.38 Q1291.72 1453.77 1297.53 1453.77 Z" fill="#000000" fill-rule="evenodd" fill-opacity="1" /><path clip-path="url(#clip320)" d="M1310.66 1433.47 L1325.57 1433.47 L1325.57 1436.66 L1314.14 1436.66 L1314.14 1443.55 Q1314.96 1443.27 1315.79 1443.13 Q1316.62 1442.98 1317.45 1442.98 Q1322.15 1442.98 1324.89 1445.56 Q1327.64 1448.14 1327.64 1452.54 Q1327.64 1457.07 1324.82 1459.59 Q1322 1462.09 1316.86 1462.09 Q1315.1 1462.09 1313.25 1461.79 Q1311.43 1461.49 1309.47 1460.89 L1309.47 1457.07 Q1311.16 1457.99 1312.97 1458.44 Q1314.78 1458.89 1316.79 1458.89 Q1320.04 1458.89 1321.94 1457.18 Q1323.84 1455.47 1323.84 1452.54 Q1323.84 1449.6 1321.94 1447.89 Q1320.04 1446.18 1316.79 1446.18 Q1315.26 1446.18 1313.74 1446.52 Q1312.24 1446.86 1310.66 1447.57 L1310.66 1433.47 Z" fill="#000000" fill-rule="evenodd" fill-opacity="1" /><path clip-path="url(#clip320)" d="M1757.65 1485.02 L1765.29 1485.02 L1765.29 1458.66 L1756.98 1460.32 L1756.98 1456.06 L1765.24 1454.4 L1769.92 1454.4 L1769.92 1485.02 L1777.56 1485.02 L1777.56 1488.96 L1757.65 1488.96 L1757.65 1485.02 Z" fill="#000000" fill-rule="evenodd" fill-opacity="1" /><path clip-path="url(#clip320)" d="M1797 1457.48 Q1793.39 1457.48 1791.56 1461.04 Q1789.76 1464.58 1789.76 1471.71 Q1789.76 1478.82 1791.56 1482.38 Q1793.39 1485.92 1797 1485.92 Q1800.64 1485.92 1802.44 1482.38 Q1804.27 1478.82 1804.27 1471.71 Q1804.27 1464.58 1802.44 1461.04 Q1800.64 1457.48 1797 1457.48 M1797 1453.77 Q1802.81 1453.77 1805.87 1458.38 Q1808.95 1462.96 1808.95 1471.71 Q1808.95 1480.44 1805.87 1485.04 Q1802.81 1489.63 1797 1489.63 Q1791.19 1489.63 1788.11 1485.04 Q1785.06 1480.44 1785.06 1471.71 Q1785.06 1462.96 1788.11 1458.38 Q1791.19 1453.77 1797 1453.77 Z" fill="#000000" fill-rule="evenodd" fill-opacity="1" /><path clip-path="url(#clip320)" d="M1818.97 1445.99 Q1816.41 1445.99 1814.91 1447.74 Q1813.42 1449.49 1813.42 1452.54 Q1813.42 1455.57 1814.91 1457.33 Q1816.41 1459.08 1818.97 1459.08 Q1821.53 1459.08 1823.02 1457.33 Q1824.52 1455.57 1824.52 1452.54 Q1824.52 1449.49 1823.02 1447.74 Q1821.53 1445.99 1818.97 1445.99 M1826.51 1434.09 L1826.51 1437.55 Q1825.08 1436.87 1823.62 1436.51 Q1822.17 1436.16 1820.74 1436.16 Q1816.98 1436.16 1814.98 1438.69 Q1813.01 1441.23 1812.73 1446.37 Q1813.84 1444.73 1815.51 1443.87 Q1817.19 1442.98 1819.2 1442.98 Q1823.43 1442.98 1825.87 1445.56 Q1828.34 1448.12 1828.34 1452.54 Q1828.34 1456.86 1825.78 1459.48 Q1823.22 1462.09 1818.97 1462.09 Q1814.1 1462.09 1811.52 1458.37 Q1808.95 1454.62 1808.95 1447.53 Q1808.95 1440.88 1812.11 1436.93 Q1815.27 1432.96 1820.59 1432.96 Q1822.02 1432.96 1823.47 1433.24 Q1824.93 1433.52 1826.51 1434.09 Z" fill="#000000" fill-rule="evenodd" fill-opacity="1" /><path clip-path="url(#clip320)" d="M2258.41 1485.02 L2266.04 1485.02 L2266.04 1458.66 L2257.73 1460.32 L2257.73 1456.06 L2266 1454.4 L2270.67 1454.4 L2270.67 1485.02 L2278.31 1485.02 L2278.31 1488.96 L2258.41 1488.96 L2258.41 1485.02 Z" fill="#000000" fill-rule="evenodd" fill-opacity="1" /><path clip-path="url(#clip320)" d="M2297.76 1457.48 Q2294.15 1457.48 2292.32 1461.04 Q2290.51 1464.58 2290.51 1471.71 Q2290.51 1478.82 2292.32 1482.38 Q2294.15 1485.92 2297.76 1485.92 Q2301.39 1485.92 2303.2 1482.38 Q2305.03 1478.82 2305.03 1471.71 Q2305.03 1464.58 2303.2 1461.04 Q2301.39 1457.48 2297.76 1457.48 M2297.76 1453.77 Q2303.57 1453.77 2306.62 1458.38 Q2309.7 1462.96 2309.7 1471.71 Q2309.7 1480.44 2306.62 1485.04 Q2303.57 1489.63 2297.76 1489.63 Q2291.95 1489.63 2288.87 1485.04 Q2285.81 1480.44 2285.81 1471.71 Q2285.81 1462.96 2288.87 1458.38 Q2291.95 1453.77 2297.76 1453.77 Z" fill="#000000" fill-rule="evenodd" fill-opacity="1" /><path clip-path="url(#clip320)" d="M2309.7 1433.47 L2327.76 1433.47 L2327.76 1435.08 L2317.56 1461.55 L2313.59 1461.55 L2323.19 1436.66 L2309.7 1436.66 L2309.7 1433.47 Z" fill="#000000" fill-rule="evenodd" fill-opacity="1" /><path clip-path="url(#clip320)" d="M1274.59 1526.67 L1283.25 1526.67 L1304.32 1566.42 L1304.32 1526.67 L1310.56 1526.67 L1310.56 1574.19 L1301.9 1574.19 L1280.83 1534.43 L1280.83 1574.19 L1274.59 1574.19 L1274.59 1526.67 Z" fill="#000000" fill-rule="evenodd" fill-opacity="1" /><polyline clip-path="url(#clip322)" style="stroke:#000000; stroke-linecap:butt; stroke-linejoin:round; stroke-width:2; stroke-opacity:0.1; fill:none" points="
  232.389,1374.42 2352.76,1374.42 
  "/>
<polyline clip-path="url(#clip322)" style="stroke:#000000; stroke-linecap:butt; stroke-linejoin:round; stroke-width:2; stroke-opacity:0.1; fill:none" points="
  232.389,1084.2 2352.76,1084.2 
  "/>
<polyline clip-path="url(#clip322)" style="stroke:#000000; stroke-linecap:butt; stroke-linejoin:round; stroke-width:2; stroke-opacity:0.1; fill:none" points="
  232.389,793.978 2352.76,793.978 
  "/>
<polyline clip-path="url(#clip322)" style="stroke:#000000; stroke-linecap:butt; stroke-linejoin:round; stroke-width:2; stroke-opacity:0.1; fill:none" points="
  232.389,503.756 2352.76,503.756 
  "/>
<polyline clip-path="url(#clip322)" style="stroke:#000000; stroke-linecap:butt; stroke-linejoin:round; stroke-width:2; stroke-opacity:0.1; fill:none" points="
  232.389,213.535 2352.76,213.535 
  "/>
<polyline clip-path="url(#clip320)" style="stroke:#000000; stroke-linecap:butt; stroke-linejoin:round; stroke-width:4; stroke-opacity:1; fill:none" points="
  232.389,1410.9 232.389,47.2441 
  "/>
<polyline clip-path="url(#clip320)" style="stroke:#000000; stroke-linecap:butt; stroke-linejoin:round; stroke-width:4; stroke-opacity:1; fill:none" points="
  232.389,1374.42 251.287,1374.42 
  "/>
<polyline clip-path="url(#clip320)" style="stroke:#000000; stroke-linecap:butt; stroke-linejoin:round; stroke-width:4; stroke-opacity:1; fill:none" points="
  232.389,1084.2 251.287,1084.2 
  "/>
<polyline clip-path="url(#clip320)" style="stroke:#000000; stroke-linecap:butt; stroke-linejoin:round; stroke-width:4; stroke-opacity:1; fill:none" points="
  232.389,793.978 251.287,793.978 
  "/>
<polyline clip-path="url(#clip320)" style="stroke:#000000; stroke-linecap:butt; stroke-linejoin:round; stroke-width:4; stroke-opacity:1; fill:none" points="
  232.389,503.756 251.287,503.756 
  "/>
<polyline clip-path="url(#clip320)" style="stroke:#000000; stroke-linecap:butt; stroke-linejoin:round; stroke-width:4; stroke-opacity:1; fill:none" points="
  232.389,213.535 251.287,213.535 
  "/>
<path clip-path="url(#clip320)" d="M184.445 1360.22 Q180.834 1360.22 179.005 1363.78 Q177.2 1367.32 177.2 1374.45 Q177.2 1381.56 179.005 1385.13 Q180.834 1388.67 184.445 1388.67 Q188.079 1388.67 189.885 1385.13 Q191.713 1381.56 191.713 1374.45 Q191.713 1367.32 189.885 1363.78 Q188.079 1360.22 184.445 1360.22 M184.445 1356.51 Q190.255 1356.51 193.311 1361.12 Q196.389 1365.7 196.389 1374.45 Q196.389 1383.18 193.311 1387.79 Q190.255 1392.37 184.445 1392.37 Q178.635 1392.37 175.556 1387.79 Q172.501 1383.18 172.501 1374.45 Q172.501 1365.7 175.556 1361.12 Q178.635 1356.51 184.445 1356.51 Z" fill="#000000" fill-rule="evenodd" fill-opacity="1" /><path clip-path="url(#clip320)" d="M149.306 1097.54 L165.626 1097.54 L165.626 1101.48 L143.681 1101.48 L143.681 1097.54 Q146.343 1094.79 150.927 1090.16 Q155.533 1085.51 156.714 1084.16 Q158.959 1081.64 159.839 1079.9 Q160.741 1078.15 160.741 1076.46 Q160.741 1073.7 158.797 1071.96 Q156.876 1070.23 153.774 1070.23 Q151.575 1070.23 149.121 1070.99 Q146.691 1071.76 143.913 1073.31 L143.913 1068.59 Q146.737 1067.45 149.191 1066.87 Q151.644 1066.29 153.681 1066.29 Q159.052 1066.29 162.246 1068.98 Q165.44 1071.66 165.44 1076.15 Q165.44 1078.28 164.63 1080.21 Q163.843 1082.1 161.737 1084.7 Q161.158 1085.37 158.056 1088.59 Q154.954 1091.78 149.306 1097.54 Z" fill="#000000" fill-rule="evenodd" fill-opacity="1" /><path clip-path="url(#clip320)" d="M175.487 1066.92 L193.843 1066.92 L193.843 1070.85 L179.769 1070.85 L179.769 1079.33 Q180.788 1078.98 181.806 1078.82 Q182.825 1078.63 183.843 1078.63 Q189.63 1078.63 193.01 1081.8 Q196.389 1084.97 196.389 1090.39 Q196.389 1095.97 192.917 1099.07 Q189.445 1102.15 183.126 1102.15 Q180.95 1102.15 178.681 1101.78 Q176.436 1101.41 174.028 1100.67 L174.028 1095.97 Q176.112 1097.1 178.334 1097.66 Q180.556 1098.21 183.033 1098.21 Q187.038 1098.21 189.375 1096.11 Q191.713 1094 191.713 1090.39 Q191.713 1086.78 189.375 1084.67 Q187.038 1082.57 183.033 1082.57 Q181.158 1082.57 179.283 1082.98 Q177.431 1083.4 175.487 1084.28 L175.487 1066.92 Z" fill="#000000" fill-rule="evenodd" fill-opacity="1" /><path clip-path="url(#clip320)" d="M144.329 776.698 L162.686 776.698 L162.686 780.633 L148.612 780.633 L148.612 789.105 Q149.63 788.758 150.649 788.596 Q151.667 788.41 152.686 788.41 Q158.473 788.41 161.852 791.582 Q165.232 794.753 165.232 800.17 Q165.232 805.748 161.76 808.85 Q158.288 811.929 151.968 811.929 Q149.792 811.929 147.524 811.558 Q145.279 811.188 142.871 810.447 L142.871 805.748 Q144.954 806.883 147.177 807.438 Q149.399 807.994 151.876 807.994 Q155.88 807.994 158.218 805.887 Q160.556 803.781 160.556 800.17 Q160.556 796.559 158.218 794.452 Q155.88 792.346 151.876 792.346 Q150.001 792.346 148.126 792.762 Q146.274 793.179 144.329 794.059 L144.329 776.698 Z" fill="#000000" fill-rule="evenodd" fill-opacity="1" /><path clip-path="url(#clip320)" d="M184.445 779.776 Q180.834 779.776 179.005 783.341 Q177.2 786.883 177.2 794.012 Q177.2 801.119 179.005 804.683 Q180.834 808.225 184.445 808.225 Q188.079 808.225 189.885 804.683 Q191.713 801.119 191.713 794.012 Q191.713 786.883 189.885 783.341 Q188.079 779.776 184.445 779.776 M184.445 776.073 Q190.255 776.073 193.311 780.679 Q196.389 785.262 196.389 794.012 Q196.389 802.739 193.311 807.346 Q190.255 811.929 184.445 811.929 Q178.635 811.929 175.556 807.346 Q172.501 802.739 172.501 794.012 Q172.501 785.262 175.556 780.679 Q178.635 776.073 184.445 776.073 Z" fill="#000000" fill-rule="evenodd" fill-opacity="1" /><path clip-path="url(#clip320)" d="M144.098 486.476 L166.32 486.476 L166.32 488.467 L153.774 521.036 L148.89 521.036 L160.695 490.412 L144.098 490.412 L144.098 486.476 Z" fill="#000000" fill-rule="evenodd" fill-opacity="1" /><path clip-path="url(#clip320)" d="M175.487 486.476 L193.843 486.476 L193.843 490.412 L179.769 490.412 L179.769 498.884 Q180.788 498.537 181.806 498.375 Q182.825 498.189 183.843 498.189 Q189.63 498.189 193.01 501.361 Q196.389 504.532 196.389 509.949 Q196.389 515.527 192.917 518.629 Q189.445 521.708 183.126 521.708 Q180.95 521.708 178.681 521.337 Q176.436 520.967 174.028 520.226 L174.028 515.527 Q176.112 516.661 178.334 517.217 Q180.556 517.773 183.033 517.773 Q187.038 517.773 189.375 515.666 Q191.713 513.56 191.713 509.949 Q191.713 506.337 189.375 504.231 Q187.038 502.124 183.033 502.124 Q181.158 502.124 179.283 502.541 Q177.431 502.958 175.487 503.837 L175.487 486.476 Z" fill="#000000" fill-rule="evenodd" fill-opacity="1" /><path clip-path="url(#clip320)" d="M114.931 226.88 L122.57 226.88 L122.57 200.515 L114.26 202.181 L114.26 197.922 L122.524 196.255 L127.2 196.255 L127.2 226.88 L134.839 226.88 L134.839 230.815 L114.931 230.815 L114.931 226.88 Z" fill="#000000" fill-rule="evenodd" fill-opacity="1" /><path clip-path="url(#clip320)" d="M154.283 199.334 Q150.672 199.334 148.843 202.899 Q147.038 206.44 147.038 213.57 Q147.038 220.676 148.843 224.241 Q150.672 227.783 154.283 227.783 Q157.917 227.783 159.723 224.241 Q161.552 220.676 161.552 213.57 Q161.552 206.44 159.723 202.899 Q157.917 199.334 154.283 199.334 M154.283 195.63 Q160.093 195.63 163.149 200.237 Q166.227 204.82 166.227 213.57 Q166.227 222.297 163.149 226.903 Q160.093 231.487 154.283 231.487 Q148.473 231.487 145.394 226.903 Q142.339 222.297 142.339 213.57 Q142.339 204.82 145.394 200.237 Q148.473 195.63 154.283 195.63 Z" fill="#000000" fill-rule="evenodd" fill-opacity="1" /><path clip-path="url(#clip320)" d="M184.445 199.334 Q180.834 199.334 179.005 202.899 Q177.2 206.44 177.2 213.57 Q177.2 220.676 179.005 224.241 Q180.834 227.783 184.445 227.783 Q188.079 227.783 189.885 224.241 Q191.713 220.676 191.713 213.57 Q191.713 206.44 189.885 202.899 Q188.079 199.334 184.445 199.334 M184.445 195.63 Q190.255 195.63 193.311 200.237 Q196.389 204.82 196.389 213.57 Q196.389 222.297 193.311 226.903 Q190.255 231.487 184.445 231.487 Q178.635 231.487 175.556 226.903 Q172.501 222.297 172.501 213.57 Q172.501 204.82 175.556 200.237 Q178.635 195.63 184.445 195.63 Z" fill="#000000" fill-rule="evenodd" fill-opacity="1" /><path clip-path="url(#clip320)" d="M32.4621 1022.02 Q32.4621 1026.73 36.1542 1029.47 Q39.8145 1032.21 46.212 1032.21 Q52.6095 1032.21 56.3017 1029.5 Q59.9619 1026.76 59.9619 1022.02 Q59.9619 1017.34 56.2698 1014.6 Q52.5777 1011.87 46.212 1011.87 Q39.8781 1011.87 36.186 1014.6 Q32.4621 1017.34 32.4621 1022.02 M27.4968 1022.02 Q27.4968 1014.38 32.4621 1010.02 Q37.4273 1005.66 46.212 1005.66 Q54.9649 1005.66 59.9619 1010.02 Q64.9272 1014.38 64.9272 1022.02 Q64.9272 1029.69 59.9619 1034.05 Q54.9649 1038.38 46.212 1038.38 Q37.4273 1038.38 32.4621 1034.05 Q27.4968 1029.69 27.4968 1022.02 Z" fill="#000000" fill-rule="evenodd" fill-opacity="1" /><path clip-path="url(#clip320)" d="M58.657 990.287 L77.5631 990.287 L77.5631 996.175 L28.3562 996.175 L28.3562 990.287 L33.7671 990.287 Q30.5842 988.441 29.0564 985.64 Q27.4968 982.807 27.4968 978.893 Q27.4968 972.4 32.6531 968.357 Q37.8093 964.283 46.212 964.283 Q54.6147 964.283 59.771 968.357 Q64.9272 972.4 64.9272 978.893 Q64.9272 982.807 63.3994 985.64 Q61.8398 988.441 58.657 990.287 M46.212 970.362 Q39.7508 970.362 36.0905 973.036 Q32.3984 975.678 32.3984 980.325 Q32.3984 984.972 36.0905 987.645 Q39.7508 990.287 46.212 990.287 Q52.6732 990.287 56.3653 987.645 Q60.0256 984.972 60.0256 980.325 Q60.0256 975.678 56.3653 973.036 Q52.6732 970.362 46.212 970.362 Z" fill="#000000" fill-rule="evenodd" fill-opacity="1" /><path clip-path="url(#clip320)" d="M44.7161 924.084 L47.5806 924.084 L47.5806 951.011 Q53.6281 950.629 56.8109 947.382 Q59.9619 944.104 59.9619 938.279 Q59.9619 934.905 59.1344 931.754 Q58.3069 928.572 56.6518 925.452 L62.1899 925.452 Q63.5267 928.603 64.227 931.914 Q64.9272 935.224 64.9272 938.629 Q64.9272 947.159 59.9619 952.157 Q54.9967 957.122 46.5303 957.122 Q37.7774 957.122 32.6531 952.411 Q27.4968 947.669 27.4968 939.648 Q27.4968 932.455 32.1438 928.285 Q36.7589 924.084 44.7161 924.084 M42.9973 929.94 Q38.1912 930.004 35.3266 932.646 Q32.4621 935.256 32.4621 939.584 Q32.4621 944.486 35.2312 947.446 Q38.0002 950.374 43.0292 950.82 L42.9973 929.94 Z" fill="#000000" fill-rule="evenodd" fill-opacity="1" /><path clip-path="url(#clip320)" d="M33.8307 893.815 Q33.2578 894.802 33.0032 895.979 Q32.7167 897.125 32.7167 898.525 Q32.7167 903.491 35.9632 906.164 Q39.1779 908.806 45.2253 908.806 L64.0042 908.806 L64.0042 914.694 L28.3562 914.694 L28.3562 908.806 L33.8944 908.806 Q30.6479 906.96 29.0883 904 Q27.4968 901.04 27.4968 896.807 Q27.4968 896.202 27.5923 895.47 Q27.656 894.738 27.8151 893.847 L33.8307 893.815 Z" fill="#000000" fill-rule="evenodd" fill-opacity="1" /><path clip-path="url(#clip320)" d="M46.0847 871.471 Q46.0847 878.569 47.7079 881.306 Q49.3312 884.043 53.2461 884.043 Q56.3653 884.043 58.2114 882.006 Q60.0256 879.938 60.0256 876.405 Q60.0256 871.535 56.5881 868.607 Q53.1188 865.647 47.3897 865.647 L46.0847 865.647 L46.0847 871.471 M43.6657 859.79 L64.0042 859.79 L64.0042 865.647 L58.5933 865.647 Q61.8398 867.652 63.3994 870.644 Q64.9272 873.636 64.9272 877.964 Q64.9272 883.439 61.8716 886.685 Q58.7843 889.9 53.6281 889.9 Q47.6125 889.9 44.5569 885.89 Q41.5014 881.847 41.5014 873.858 L41.5014 865.647 L40.9285 865.647 Q36.8862 865.647 34.6901 868.32 Q32.4621 870.962 32.4621 875.768 Q32.4621 878.824 33.1941 881.72 Q33.9262 884.616 35.3903 887.29 L29.9795 887.29 Q28.7381 884.075 28.1334 881.052 Q27.4968 878.028 27.4968 875.163 Q27.4968 867.429 31.5072 863.61 Q35.5176 859.79 43.6657 859.79 Z" fill="#000000" fill-rule="evenodd" fill-opacity="1" /><path clip-path="url(#clip320)" d="M18.2347 841.934 L28.3562 841.934 L28.3562 829.871 L32.9077 829.871 L32.9077 841.934 L52.2594 841.934 Q56.6199 841.934 57.8613 840.757 Q59.1026 839.547 59.1026 835.887 L59.1026 829.871 L64.0042 829.871 L64.0042 835.887 Q64.0042 842.666 61.4897 845.245 Q58.9434 847.823 52.2594 847.823 L32.9077 847.823 L32.9077 852.119 L28.3562 852.119 L28.3562 847.823 L18.2347 847.823 L18.2347 841.934 Z" fill="#000000" fill-rule="evenodd" fill-opacity="1" /><path clip-path="url(#clip320)" d="M28.3562 822.169 L28.3562 816.312 L64.0042 816.312 L64.0042 822.169 L28.3562 822.169 M14.479 822.169 L14.479 816.312 L21.895 816.312 L21.895 822.169 L14.479 822.169 Z" fill="#000000" fill-rule="evenodd" fill-opacity="1" /><path clip-path="url(#clip320)" d="M32.4621 790.245 Q32.4621 794.955 36.1542 797.693 Q39.8145 800.43 46.212 800.43 Q52.6095 800.43 56.3017 797.725 Q59.9619 794.987 59.9619 790.245 Q59.9619 785.566 56.2698 782.829 Q52.5777 780.092 46.212 780.092 Q39.8781 780.092 36.186 782.829 Q32.4621 785.566 32.4621 790.245 M27.4968 790.245 Q27.4968 782.606 32.4621 778.245 Q37.4273 773.885 46.212 773.885 Q54.9649 773.885 59.9619 778.245 Q64.9272 782.606 64.9272 790.245 Q64.9272 797.915 59.9619 802.276 Q54.9649 806.605 46.212 806.605 Q37.4273 806.605 32.4621 802.276 Q27.4968 797.915 27.4968 790.245 Z" fill="#000000" fill-rule="evenodd" fill-opacity="1" /><path clip-path="url(#clip320)" d="M42.4881 734.545 L64.0042 734.545 L64.0042 740.401 L42.679 740.401 Q37.6183 740.401 35.1038 742.375 Q32.5894 744.348 32.5894 748.295 Q32.5894 753.037 35.6131 755.775 Q38.6368 758.512 43.8567 758.512 L64.0042 758.512 L64.0042 764.4 L28.3562 764.4 L28.3562 758.512 L33.8944 758.512 Q30.6797 756.411 29.0883 753.578 Q27.4968 750.714 27.4968 746.99 Q27.4968 740.847 31.3163 737.696 Q35.1038 734.545 42.4881 734.545 Z" fill="#000000" fill-rule="evenodd" fill-opacity="1" /><path clip-path="url(#clip320)" d="M18.2347 696.351 L28.3562 696.351 L28.3562 684.288 L32.9077 684.288 L32.9077 696.351 L52.2594 696.351 Q56.6199 696.351 57.8613 695.173 Q59.1026 693.963 59.1026 690.303 L59.1026 684.288 L64.0042 684.288 L64.0042 690.303 Q64.0042 697.083 61.4897 699.661 Q58.9434 702.239 52.2594 702.239 L32.9077 702.239 L32.9077 706.536 L28.3562 706.536 L28.3562 702.239 L18.2347 702.239 L18.2347 696.351 Z" fill="#000000" fill-rule="evenodd" fill-opacity="1" /><path clip-path="url(#clip320)" d="M28.3562 676.585 L28.3562 670.729 L64.0042 670.729 L64.0042 676.585 L28.3562 676.585 M14.479 676.585 L14.479 670.729 L21.895 670.729 L21.895 676.585 L14.479 676.585 Z" fill="#000000" fill-rule="evenodd" fill-opacity="1" /><path clip-path="url(#clip320)" d="M35.1993 630.72 Q31.2526 628.524 29.3747 625.468 Q27.4968 622.413 27.4968 618.275 Q27.4968 612.705 31.4117 609.682 Q35.2948 606.658 42.4881 606.658 L64.0042 606.658 L64.0042 612.546 L42.679 612.546 Q37.5546 612.546 35.072 614.36 Q32.5894 616.175 32.5894 619.898 Q32.5894 624.45 35.6131 627.092 Q38.6368 629.734 43.8567 629.734 L64.0042 629.734 L64.0042 635.622 L42.679 635.622 Q37.5228 635.622 35.072 637.436 Q32.5894 639.25 32.5894 643.038 Q32.5894 647.526 35.6449 650.167 Q38.6686 652.809 43.8567 652.809 L64.0042 652.809 L64.0042 658.697 L28.3562 658.697 L28.3562 652.809 L33.8944 652.809 Q30.616 650.804 29.0564 648.003 Q27.4968 645.202 27.4968 641.351 Q27.4968 637.468 29.4702 634.762 Q31.4436 632.025 35.1993 630.72 Z" fill="#000000" fill-rule="evenodd" fill-opacity="1" /><path clip-path="url(#clip320)" d="M44.7161 564.485 L47.5806 564.485 L47.5806 591.412 Q53.6281 591.03 56.8109 587.784 Q59.9619 584.505 59.9619 578.681 Q59.9619 575.307 59.1344 572.156 Q58.3069 568.973 56.6518 565.854 L62.1899 565.854 Q63.5267 569.005 64.227 572.315 Q64.9272 575.625 64.9272 579.031 Q64.9272 587.561 59.9619 592.558 Q54.9967 597.523 46.5303 597.523 Q37.7774 597.523 32.6531 592.812 Q27.4968 588.07 27.4968 580.049 Q27.4968 572.856 32.1438 568.686 Q36.7589 564.485 44.7161 564.485 M42.9973 570.341 Q38.1912 570.405 35.3266 573.047 Q32.4621 575.657 32.4621 579.986 Q32.4621 584.887 35.2312 587.847 Q38.0002 590.775 43.0292 591.221 L42.9973 570.341 Z" fill="#000000" fill-rule="evenodd" fill-opacity="1" /><path clip-path="url(#clip320)" d="M14.479 534.694 L14.479 521.198 L19.0304 521.198 L19.0304 528.837 L68.0464 528.837 L68.0464 521.198 L72.5979 521.198 L72.5979 534.694 L14.479 534.694 Z" fill="#000000" fill-rule="evenodd" fill-opacity="1" /><path clip-path="url(#clip320)" d="M42.4881 479.089 L64.0042 479.089 L64.0042 484.946 L42.679 484.946 Q37.6183 484.946 35.1038 486.919 Q32.5894 488.892 32.5894 492.839 Q32.5894 497.581 35.6131 500.319 Q38.6368 503.056 43.8567 503.056 L64.0042 503.056 L64.0042 508.944 L28.3562 508.944 L28.3562 503.056 L33.8944 503.056 Q30.6797 500.955 29.0883 498.123 Q27.4968 495.258 27.4968 491.534 Q27.4968 485.391 31.3163 482.24 Q35.1038 479.089 42.4881 479.089 Z" fill="#000000" fill-rule="evenodd" fill-opacity="1" /><path clip-path="url(#clip320)" d="M29.4065 444.682 L34.9447 444.682 Q33.6716 447.165 33.035 449.839 Q32.3984 452.512 32.3984 455.377 Q32.3984 459.737 33.7352 461.933 Q35.072 464.098 37.7456 464.098 Q39.7826 464.098 40.9603 462.538 Q42.1061 460.979 43.1565 456.268 L43.6021 454.263 Q44.9389 448.024 47.3897 445.414 Q49.8086 442.773 54.1691 442.773 Q59.1344 442.773 62.0308 446.719 Q64.9272 450.634 64.9272 457.509 Q64.9272 460.374 64.3543 463.493 Q63.8132 466.58 62.6992 470.018 L56.6518 470.018 Q58.3387 466.771 59.198 463.62 Q60.0256 460.469 60.0256 457.382 Q60.0256 453.244 58.6251 451.016 Q57.1929 448.788 54.6147 448.788 Q52.2276 448.788 50.9545 450.412 Q49.6813 452.003 48.5037 457.446 L48.0262 459.483 Q46.8804 464.925 44.5251 467.344 Q42.138 469.763 38.0002 469.763 Q32.9713 469.763 30.2341 466.199 Q27.4968 462.634 27.4968 456.077 Q27.4968 452.831 27.9743 449.966 Q28.4517 447.101 29.4065 444.682 Z" fill="#000000" fill-rule="evenodd" fill-opacity="1" /><path clip-path="url(#clip320)" d="M14.479 419.761 L72.5979 419.761 L72.5979 433.256 L68.0464 433.256 L68.0464 425.649 L19.0304 425.649 L19.0304 433.256 L14.479 433.256 L14.479 419.761 Z" fill="#000000" fill-rule="evenodd" fill-opacity="1" /><polyline clip-path="url(#clip322)" style="stroke:#009af9; stroke-linecap:butt; stroke-linejoin:round; stroke-width:4; stroke-opacity:1; fill:none" points="
  292.4,1165.46 792.486,1014.55 1292.57,770.76 1792.66,515.365 2292.75,85.838 
  "/>
<path clip-path="url(#clip322)" d="M292.4 1149.46 L276.4 1165.46 L292.4 1181.46 L308.4 1165.46 L292.4 1149.46 Z" fill="#009af9" fill-rule="evenodd" fill-opacity="1" stroke="#000000" stroke-opacity="1" stroke-width="3.2"/>
<path clip-path="url(#clip322)" d="M792.486 998.546 L776.486 1014.55 L792.486 1030.55 L808.486 1014.55 L792.486 998.546 Z" fill="#009af9" fill-rule="evenodd" fill-opacity="1" stroke="#000000" stroke-opacity="1" stroke-width="3.2"/>
<path clip-path="url(#clip322)" d="M1292.57 754.76 L1276.57 770.76 L1292.57 786.76 L1308.57 770.76 L1292.57 754.76 Z" fill="#009af9" fill-rule="evenodd" fill-opacity="1" stroke="#000000" stroke-opacity="1" stroke-width="3.2"/>
<path clip-path="url(#clip322)" d="M1792.66 499.365 L1776.66 515.365 L1792.66 531.365 L1808.66 515.365 L1792.66 499.365 Z" fill="#009af9" fill-rule="evenodd" fill-opacity="1" stroke="#000000" stroke-opacity="1" stroke-width="3.2"/>
<path clip-path="url(#clip322)" d="M2292.75 69.838 L2276.75 85.838 L2292.75 101.838 L2308.75 85.838 L2292.75 69.838 Z" fill="#009af9" fill-rule="evenodd" fill-opacity="1" stroke="#000000" stroke-opacity="1" stroke-width="3.2"/>
<polyline clip-path="url(#clip322)" style="stroke:#e26f46; stroke-linecap:butt; stroke-linejoin:round; stroke-width:4; stroke-opacity:1; fill:none" points="
  292.4,1153.85 792.486,1037.76 1292.57,840.413 1792.66,585.018 2292.75,225.144 
  "/>
<path clip-path="url(#clip322)" d="M292.4 1137.85 L276.4 1169.85 L308.4 1169.85 L292.4 1137.85 Z" fill="#e26f46" fill-rule="evenodd" fill-opacity="1" stroke="#000000" stroke-opacity="1" stroke-width="3.2"/>
<path clip-path="url(#clip322)" d="M792.486 1021.76 L776.486 1053.76 L808.486 1053.76 L792.486 1021.76 Z" fill="#e26f46" fill-rule="evenodd" fill-opacity="1" stroke="#000000" stroke-opacity="1" stroke-width="3.2"/>
<path clip-path="url(#clip322)" d="M1292.57 824.413 L1276.57 856.413 L1308.57 856.413 L1292.57 824.413 Z" fill="#e26f46" fill-rule="evenodd" fill-opacity="1" stroke="#000000" stroke-opacity="1" stroke-width="3.2"/>
<path clip-path="url(#clip322)" d="M1792.66 569.018 L1776.66 601.018 L1808.66 601.018 L1792.66 569.018 Z" fill="#e26f46" fill-rule="evenodd" fill-opacity="1" stroke="#000000" stroke-opacity="1" stroke-width="3.2"/>
<path clip-path="url(#clip322)" d="M2292.75 209.144 L2276.75 241.144 L2308.75 241.144 L2292.75 209.144 Z" fill="#e26f46" fill-rule="evenodd" fill-opacity="1" stroke="#000000" stroke-opacity="1" stroke-width="3.2"/>
<polyline clip-path="url(#clip322)" style="stroke:#3da44d; stroke-linecap:butt; stroke-linejoin:round; stroke-width:4; stroke-opacity:1; fill:none" points="
  292.4,1372.3 792.486,1372.05 1292.57,1371.83 1792.66,1371.54 2292.75,1371.46 
  "/>
<path clip-path="url(#clip322)" d="M308.4 1356.3 L276.4 1356.3 L292.4 1388.3 L308.4 1356.3 Z" fill="#3da44d" fill-rule="evenodd" fill-opacity="1" stroke="#000000" stroke-opacity="1" stroke-width="3.2"/>
<path clip-path="url(#clip322)" d="M808.486 1356.05 L776.486 1356.05 L792.486 1388.05 L808.486 1356.05 Z" fill="#3da44d" fill-rule="evenodd" fill-opacity="1" stroke="#000000" stroke-opacity="1" stroke-width="3.2"/>
<path clip-path="url(#clip322)" d="M1308.57 1355.83 L1276.57 1355.83 L1292.57 1387.83 L1308.57 1355.83 Z" fill="#3da44d" fill-rule="evenodd" fill-opacity="1" stroke="#000000" stroke-opacity="1" stroke-width="3.2"/>
<path clip-path="url(#clip322)" d="M1808.66 1355.54 L1776.66 1355.54 L1792.66 1387.54 L1808.66 1355.54 Z" fill="#3da44d" fill-rule="evenodd" fill-opacity="1" stroke="#000000" stroke-opacity="1" stroke-width="3.2"/>
<path clip-path="url(#clip322)" d="M2308.75 1355.46 L2276.75 1355.46 L2292.75 1387.46 L2308.75 1355.46 Z" fill="#3da44d" fill-rule="evenodd" fill-opacity="1" stroke="#000000" stroke-opacity="1" stroke-width="3.2"/>
<path clip-path="url(#clip320)" d="
M303.068 300.059 L688.918 300.059 L688.918 92.6992 L303.068 92.6992  Z
  " fill="#ffffff" fill-rule="evenodd" fill-opacity="1"/>
<polyline clip-path="url(#clip320)" style="stroke:#000000; stroke-linecap:butt; stroke-linejoin:round; stroke-width:4; stroke-opacity:1; fill:none" points="
  303.068,300.059 688.918,300.059 688.918,92.6992 303.068,92.6992 303.068,300.059 
  "/>
<polyline clip-path="url(#clip320)" style="stroke:#009af9; stroke-linecap:butt; stroke-linejoin:round; stroke-width:4; stroke-opacity:1; fill:none" points="
  326.628,144.539 467.986,144.539 
  "/>
<path clip-path="url(#clip320)" d="M397.307 118.939 L371.707 144.539 L397.307 170.139 L422.907 144.539 L397.307 118.939 Z" fill="#009af9" fill-rule="evenodd" fill-opacity="1" stroke="#000000" stroke-opacity="1" stroke-width="5.12"/>
<path clip-path="url(#clip320)" d="M491.545 135.893 L495.804 135.893 L495.804 161.819 L491.545 161.819 L491.545 135.893 M491.545 125.801 L495.804 125.801 L495.804 131.194 L491.545 131.194 L491.545 125.801 Z" fill="#000000" fill-rule="evenodd" fill-opacity="1" /><path clip-path="url(#clip320)" d="M526.267 146.171 L526.267 161.819 L522.008 161.819 L522.008 146.31 Q522.008 142.629 520.573 140.801 Q519.138 138.972 516.267 138.972 Q512.818 138.972 510.828 141.171 Q508.837 143.37 508.837 147.166 L508.837 161.819 L504.554 161.819 L504.554 135.893 L508.837 135.893 L508.837 139.921 Q510.365 137.583 512.425 136.426 Q514.508 135.268 517.216 135.268 Q521.684 135.268 523.976 138.046 Q526.267 140.801 526.267 146.171 Z" fill="#000000" fill-rule="evenodd" fill-opacity="1" /><path clip-path="url(#clip320)" d="M551.29 136.657 L551.29 140.685 Q549.485 139.759 547.54 139.296 Q545.596 138.833 543.513 138.833 Q540.341 138.833 538.744 139.805 Q537.17 140.778 537.17 142.722 Q537.17 144.204 538.304 145.06 Q539.439 145.893 542.864 146.657 L544.323 146.981 Q548.86 147.954 550.758 149.736 Q552.679 151.495 552.679 154.666 Q552.679 158.278 549.809 160.384 Q546.962 162.49 541.962 162.49 Q539.878 162.49 537.61 162.074 Q535.364 161.68 532.864 160.87 L532.864 156.472 Q535.226 157.699 537.517 158.324 Q539.809 158.926 542.054 158.926 Q545.063 158.926 546.684 157.907 Q548.304 156.866 548.304 154.991 Q548.304 153.254 547.124 152.328 Q545.966 151.403 542.008 150.546 L540.526 150.199 Q536.568 149.366 534.809 147.653 Q533.05 145.916 533.05 142.907 Q533.05 139.25 535.642 137.259 Q538.235 135.268 543.003 135.268 Q545.364 135.268 547.448 135.616 Q549.531 135.963 551.29 136.657 Z" fill="#000000" fill-rule="evenodd" fill-opacity="1" /><path clip-path="url(#clip320)" d="M581.637 147.791 L581.637 149.875 L562.054 149.875 Q562.332 154.273 564.693 156.588 Q567.077 158.879 571.313 158.879 Q573.767 158.879 576.059 158.278 Q578.373 157.676 580.642 156.472 L580.642 160.5 Q578.35 161.472 575.943 161.981 Q573.536 162.49 571.059 162.49 Q564.855 162.49 561.221 158.879 Q557.61 155.268 557.61 149.111 Q557.61 142.745 561.036 139.018 Q564.485 135.268 570.318 135.268 Q575.549 135.268 578.582 138.648 Q581.637 142.004 581.637 147.791 M577.378 146.541 Q577.332 143.046 575.411 140.963 Q573.512 138.879 570.364 138.879 Q566.799 138.879 564.647 140.893 Q562.517 142.907 562.193 146.565 L577.378 146.541 Z" fill="#000000" fill-rule="evenodd" fill-opacity="1" /><path clip-path="url(#clip320)" d="M603.651 139.875 Q602.934 139.458 602.077 139.273 Q601.244 139.065 600.225 139.065 Q596.614 139.065 594.67 141.426 Q592.748 143.764 592.748 148.162 L592.748 161.819 L588.466 161.819 L588.466 135.893 L592.748 135.893 L592.748 139.921 Q594.091 137.56 596.244 136.426 Q598.397 135.268 601.475 135.268 Q601.915 135.268 602.447 135.338 Q602.98 135.384 603.628 135.5 L603.651 139.875 Z" fill="#000000" fill-rule="evenodd" fill-opacity="1" /><path clip-path="url(#clip320)" d="M612.332 128.532 L612.332 135.893 L621.105 135.893 L621.105 139.204 L612.332 139.204 L612.332 153.278 Q612.332 156.449 613.188 157.352 Q614.068 158.254 616.73 158.254 L621.105 158.254 L621.105 161.819 L616.73 161.819 Q611.799 161.819 609.924 159.99 Q608.049 158.139 608.049 153.278 L608.049 139.204 L604.924 139.204 L604.924 135.893 L608.049 135.893 L608.049 128.532 L612.332 128.532 Z" fill="#000000" fill-rule="evenodd" fill-opacity="1" /><polyline clip-path="url(#clip320)" style="stroke:#e26f46; stroke-linecap:butt; stroke-linejoin:round; stroke-width:4; stroke-opacity:1; fill:none" points="
  326.628,196.379 467.986,196.379 
  "/>
<path clip-path="url(#clip320)" d="M397.307 170.779 L371.707 221.979 L422.907 221.979 L397.307 170.779 Z" fill="#e26f46" fill-rule="evenodd" fill-opacity="1" stroke="#000000" stroke-opacity="1" stroke-width="5.12"/>
<path clip-path="url(#clip320)" d="M510.457 191.669 L510.457 177.641 L514.716 177.641 L514.716 213.659 L510.457 213.659 L510.457 209.77 Q509.115 212.085 507.054 213.219 Q505.017 214.33 502.147 214.33 Q497.448 214.33 494.485 210.58 Q491.545 206.831 491.545 200.719 Q491.545 194.608 494.485 190.858 Q497.448 187.108 502.147 187.108 Q505.017 187.108 507.054 188.243 Q509.115 189.354 510.457 191.669 M495.943 200.719 Q495.943 205.418 497.865 208.104 Q499.809 210.766 503.189 210.766 Q506.568 210.766 508.513 208.104 Q510.457 205.418 510.457 200.719 Q510.457 196.02 508.513 193.358 Q506.568 190.673 503.189 190.673 Q499.809 190.673 497.865 193.358 Q495.943 196.02 495.943 200.719 Z" fill="#000000" fill-rule="evenodd" fill-opacity="1" /><path clip-path="url(#clip320)" d="M545.665 199.631 L545.665 201.715 L526.082 201.715 Q526.36 206.113 528.721 208.428 Q531.105 210.719 535.341 210.719 Q537.795 210.719 540.087 210.118 Q542.401 209.516 544.67 208.312 L544.67 212.34 Q542.378 213.312 539.971 213.821 Q537.564 214.33 535.087 214.33 Q528.883 214.33 525.249 210.719 Q521.638 207.108 521.638 200.951 Q521.638 194.585 525.064 190.858 Q528.513 187.108 534.346 187.108 Q539.577 187.108 542.61 190.488 Q545.665 193.844 545.665 199.631 M541.406 198.381 Q541.36 194.886 539.439 192.803 Q537.54 190.719 534.392 190.719 Q530.827 190.719 528.675 192.733 Q526.545 194.747 526.221 198.405 L541.406 198.381 Z" fill="#000000" fill-rule="evenodd" fill-opacity="1" /><path clip-path="url(#clip320)" d="M552.656 177.641 L556.915 177.641 L556.915 213.659 L552.656 213.659 L552.656 177.641 Z" fill="#000000" fill-rule="evenodd" fill-opacity="1" /><path clip-path="url(#clip320)" d="M588.003 199.631 L588.003 201.715 L568.42 201.715 Q568.698 206.113 571.059 208.428 Q573.443 210.719 577.679 210.719 Q580.133 210.719 582.424 210.118 Q584.739 209.516 587.008 208.312 L587.008 212.34 Q584.716 213.312 582.309 213.821 Q579.901 214.33 577.424 214.33 Q571.221 214.33 567.587 210.719 Q563.975 207.108 563.975 200.951 Q563.975 194.585 567.401 190.858 Q570.85 187.108 576.684 187.108 Q581.915 187.108 584.948 190.488 Q588.003 193.844 588.003 199.631 M583.744 198.381 Q583.698 194.886 581.776 192.803 Q579.878 190.719 576.73 190.719 Q573.165 190.719 571.012 192.733 Q568.883 194.747 568.559 198.405 L583.744 198.381 Z" fill="#000000" fill-rule="evenodd" fill-opacity="1" /><path clip-path="url(#clip320)" d="M599.207 180.372 L599.207 187.733 L607.98 187.733 L607.98 191.044 L599.207 191.044 L599.207 205.118 Q599.207 208.289 600.063 209.192 Q600.943 210.094 603.605 210.094 L607.98 210.094 L607.98 213.659 L603.605 213.659 Q598.674 213.659 596.799 211.83 Q594.924 209.979 594.924 205.118 L594.924 191.044 L591.799 191.044 L591.799 187.733 L594.924 187.733 L594.924 180.372 L599.207 180.372 Z" fill="#000000" fill-rule="evenodd" fill-opacity="1" /><path clip-path="url(#clip320)" d="M635.757 199.631 L635.757 201.715 L616.174 201.715 Q616.452 206.113 618.813 208.428 Q621.197 210.719 625.433 210.719 Q627.887 210.719 630.179 210.118 Q632.494 209.516 634.762 208.312 L634.762 212.34 Q632.47 213.312 630.063 213.821 Q627.656 214.33 625.179 214.33 Q618.975 214.33 615.341 210.719 Q611.73 207.108 611.73 200.951 Q611.73 194.585 615.156 190.858 Q618.605 187.108 624.438 187.108 Q629.67 187.108 632.702 190.488 Q635.757 193.844 635.757 199.631 M631.498 198.381 Q631.452 194.886 629.531 192.803 Q627.632 190.719 624.484 190.719 Q620.92 190.719 618.767 192.733 Q616.637 194.747 616.313 198.405 L631.498 198.381 Z" fill="#000000" fill-rule="evenodd" fill-opacity="1" /><polyline clip-path="url(#clip320)" style="stroke:#3da44d; stroke-linecap:butt; stroke-linejoin:round; stroke-width:4; stroke-opacity:1; fill:none" points="
  326.628,248.219 467.986,248.219 
  "/>
<path clip-path="url(#clip320)" d="M422.907 222.619 L371.707 222.619 L397.307 273.819 L422.907 222.619 Z" fill="#3da44d" fill-rule="evenodd" fill-opacity="1" stroke="#000000" stroke-opacity="1" stroke-width="5.12"/>
<path clip-path="url(#clip320)" d="M491.545 229.481 L495.804 229.481 L495.804 265.499 L491.545 265.499 L491.545 229.481 Z" fill="#000000" fill-rule="evenodd" fill-opacity="1" /><path clip-path="url(#clip320)" d="M514.763 242.559 Q511.337 242.559 509.346 245.245 Q507.355 247.907 507.355 252.559 Q507.355 257.212 509.323 259.897 Q511.314 262.559 514.763 262.559 Q518.165 262.559 520.156 259.874 Q522.147 257.189 522.147 252.559 Q522.147 247.953 520.156 245.268 Q518.165 242.559 514.763 242.559 M514.763 238.948 Q520.318 238.948 523.49 242.559 Q526.661 246.171 526.661 252.559 Q526.661 258.925 523.49 262.559 Q520.318 266.17 514.763 266.17 Q509.184 266.17 506.013 262.559 Q502.865 258.925 502.865 252.559 Q502.865 246.171 506.013 242.559 Q509.184 238.948 514.763 238.948 Z" fill="#000000" fill-rule="evenodd" fill-opacity="1" /><path clip-path="url(#clip320)" d="M543.767 242.559 Q540.341 242.559 538.351 245.245 Q536.36 247.907 536.36 252.559 Q536.36 257.212 538.327 259.897 Q540.318 262.559 543.767 262.559 Q547.17 262.559 549.161 259.874 Q551.151 257.189 551.151 252.559 Q551.151 247.953 549.161 245.268 Q547.17 242.559 543.767 242.559 M543.767 238.948 Q549.323 238.948 552.494 242.559 Q555.665 246.171 555.665 252.559 Q555.665 258.925 552.494 262.559 Q549.323 266.17 543.767 266.17 Q538.189 266.17 535.017 262.559 Q531.869 258.925 531.869 252.559 Q531.869 246.171 535.017 242.559 Q538.189 238.948 543.767 238.948 Z" fill="#000000" fill-rule="evenodd" fill-opacity="1" /><path clip-path="url(#clip320)" d="M562.563 229.481 L566.846 229.481 L566.846 250.754 L579.554 239.573 L584.994 239.573 L571.244 251.703 L585.573 265.499 L580.017 265.499 L566.846 252.837 L566.846 265.499 L562.563 265.499 L562.563 229.481 Z" fill="#000000" fill-rule="evenodd" fill-opacity="1" /><path clip-path="url(#clip320)" d="M588.281 255.268 L588.281 239.573 L592.54 239.573 L592.54 255.106 Q592.54 258.786 593.975 260.638 Q595.41 262.467 598.281 262.467 Q601.73 262.467 603.721 260.268 Q605.734 258.069 605.734 254.272 L605.734 239.573 L609.994 239.573 L609.994 265.499 L605.734 265.499 L605.734 261.518 Q604.184 263.879 602.123 265.036 Q600.086 266.17 597.378 266.17 Q592.91 266.17 590.596 263.393 Q588.281 260.615 588.281 255.268 M598.998 238.948 L598.998 238.948 Z" fill="#000000" fill-rule="evenodd" fill-opacity="1" /><path clip-path="url(#clip320)" d="M622.887 261.61 L622.887 275.36 L618.605 275.36 L618.605 239.573 L622.887 239.573 L622.887 243.509 Q624.23 241.194 626.267 240.083 Q628.327 238.948 631.174 238.948 Q635.896 238.948 638.836 242.698 Q641.799 246.448 641.799 252.559 Q641.799 258.671 638.836 262.42 Q635.896 266.17 631.174 266.17 Q628.327 266.17 626.267 265.059 Q624.23 263.925 622.887 261.61 M637.378 252.559 Q637.378 247.86 635.433 245.198 Q633.512 242.513 630.132 242.513 Q626.753 242.513 624.808 245.198 Q622.887 247.86 622.887 252.559 Q622.887 257.258 624.808 259.944 Q626.753 262.606 630.132 262.606 Q633.512 262.606 635.433 259.944 Q637.378 257.258 637.378 252.559 Z" fill="#000000" fill-rule="evenodd" fill-opacity="1" /></svg>
