<?xml version="1.0" encoding="utf-8"?>
<svg xmlns="http://www.w3.org/2000/svg" xmlns:xlink="http://www.w3.org/1999/xlink" width="600" height="400" viewBox="0 0 2400 1600">
<defs>
  <clipPath id="clip230">
    <rect x="0" y="0" width="2400" height="1600"/>
  </clipPath>
</defs>
<path clip-path="url(#clip230)" d="
M0 1600 L2400 1600 L2400 0 L0 0  Z
  " fill="#ffffff" fill-rule="evenodd" fill-opacity="1"/>
<defs>
  <clipPath id="clip231">
    <rect x="480" y="0" width="1681" height="1600"/>
  </clipPath>
</defs>
<path clip-path="url(#clip230)" d="
M235.283 1410.9 L2352.76 1410.9 L2352.76 47.2441 L235.283 47.2441  Z
  " fill="#ffffff" fill-rule="evenodd" fill-opacity="1"/>
<defs>
  <clipPath id="clip232">
    <rect x="235" y="47" width="2118" height="1365"/>
  </clipPath>
</defs>
<polyline clip-path="url(#clip232)" style="stroke:#000000; stroke-linecap:butt; stroke-linejoin:round; stroke-width:2; stroke-opacity:0.1; fill:none" points="
  295.211,1410.9 295.211,47.2441 
  "/>
<polyline clip-path="url(#clip232)" style="stroke:#000000; stroke-linecap:butt; stroke-linejoin:round; stroke-width:2; stroke-opacity:0.1; fill:none" points="
  794.615,1410.9 794.615,47.2441 
  "/>
<polyline clip-path="url(#clip232)" style="stroke:#000000; stroke-linecap:butt; stroke-linejoin:round; stroke-width:2; stroke-opacity:0.1; fill:none" points="
  1294.02,1410.9 1294.02,47.2441 
  "/>
<polyline clip-path="url(#clip232)" style="stroke:#000000; stroke-linecap:butt; stroke-linejoin:round; stroke-width:2; stroke-opacity:0.1; fill:none" points="
  1793.42,1410.9 1793.42,47.2441 
  "/>
<polyline clip-path="url(#clip232)" style="stroke:#000000; stroke-linecap:butt; stroke-linejoin:round; stroke-width:2; stroke-opacity:0.1; fill:none" points="
  2292.83,1410.9 2292.83,47.2441 
  "/>
<polyline clip-path="url(#clip230)" style="stroke:#000000; stroke-linecap:butt; stroke-linejoin:round; stroke-width:4; stroke-opacity:1; fill:none" points="
  235.283,1410.9 2352.76,1410.9 
  "/>
<polyline clip-path="url(#clip230)" style="stroke:#000000; stroke-linecap:butt; stroke-linejoin:round; stroke-width:4; stroke-opacity:1; fill:none" points="
  295.211,1410.9 295.211,1392 
  "/>
<polyline clip-path="url(#clip230)" style="stroke:#000000; stroke-linecap:butt; stroke-linejoin:round; stroke-width:4; stroke-opacity:1; fill:none" points="
  794.615,1410.9 794.615,1392 
  "/>
<polyline clip-path="url(#clip230)" style="stroke:#000000; stroke-linecap:butt; stroke-linejoin:round; stroke-width:4; stroke-opacity:1; fill:none" points="
  1294.02,1410.9 1294.02,1392 
  "/>
<polyline clip-path="url(#clip230)" style="stroke:#000000; stroke-linecap:butt; stroke-linejoin:round; stroke-width:4; stroke-opacity:1; fill:none" points="
  1793.42,1410.9 1793.42,1392 
  "/>
<polyline clip-path="url(#clip230)" style="stroke:#000000; stroke-linecap:butt; stroke-linejoin:round; stroke-width:4; stroke-opacity:1; fill:none" points="
  2292.83,1410.9 2292.83,1392 
  "/>
<path clip-path="url(#clip230)" d="M260.655 1485.02 L268.294 1485.02 L268.294 1458.66 L259.984 1460.32 L259.984 1456.06 L268.248 1454.4 L272.923 1454.4 L272.923 1485.02 L280.562 1485.02 L280.562 1488.96 L260.655 1488.96 L260.655 1485.02 Z" fill="#000000" fill-rule="evenodd" fill-opacity="1" /><path clip-path="url(#clip230)" d="M300.007 1457.48 Q296.395 1457.48 294.567 1461.04 Q292.761 1464.58 292.761 1471.71 Q292.761 1478.82 294.567 1482.38 Q296.395 1485.92 300.007 1485.92 Q303.641 1485.92 305.446 1482.38 Q307.275 1478.82 307.275 1471.71 Q307.275 1464.58 305.446 1461.04 Q303.641 1457.48 300.007 1457.48 M300.007 1453.77 Q305.817 1453.77 308.872 1458.38 Q311.951 1462.96 311.951 1471.71 Q311.951 1480.44 308.872 1485.04 Q305.817 1489.63 300.007 1489.63 Q294.196 1489.63 291.118 1485.04 Q288.062 1480.44 288.062 1471.71 Q288.062 1462.96 291.118 1458.38 Q294.196 1453.77 300.007 1453.77 Z" fill="#000000" fill-rule="evenodd" fill-opacity="1" /><path clip-path="url(#clip230)" d="M324.646 1446.41 Q327.373 1446.99 328.897 1448.83 Q330.439 1450.68 330.439 1453.38 Q330.439 1457.54 327.58 1459.82 Q324.721 1462.09 319.455 1462.09 Q317.687 1462.09 315.807 1461.73 Q313.945 1461.4 311.951 1460.7 L311.951 1457.03 Q313.531 1457.95 315.412 1458.42 Q317.292 1458.89 319.342 1458.89 Q322.916 1458.89 324.778 1457.48 Q326.659 1456.07 326.659 1453.38 Q326.659 1450.9 324.91 1449.51 Q323.179 1448.1 320.076 1448.1 L316.803 1448.1 L316.803 1444.98 L320.226 1444.98 Q323.029 1444.98 324.515 1443.87 Q326 1442.74 326 1440.63 Q326 1438.47 324.458 1437.32 Q322.935 1436.16 320.076 1436.16 Q318.515 1436.16 316.728 1436.49 Q314.941 1436.83 312.797 1437.55 L312.797 1434.16 Q314.96 1433.56 316.841 1433.26 Q318.741 1432.96 320.414 1432.96 Q324.74 1432.96 327.26 1434.93 Q329.781 1436.89 329.781 1440.24 Q329.781 1442.57 328.445 1444.19 Q327.11 1445.79 324.646 1446.41 Z" fill="#000000" fill-rule="evenodd" fill-opacity="1" /><path clip-path="url(#clip230)" d="M759.072 1485.02 L766.71 1485.02 L766.71 1458.66 L758.4 1460.32 L758.4 1456.06 L766.664 1454.4 L771.34 1454.4 L771.34 1485.02 L778.979 1485.02 L778.979 1488.96 L759.072 1488.96 L759.072 1485.02 Z" fill="#000000" fill-rule="evenodd" fill-opacity="1" /><path clip-path="url(#clip230)" d="M798.423 1457.48 Q794.812 1457.48 792.983 1461.04 Q791.178 1464.58 791.178 1471.71 Q791.178 1478.82 792.983 1482.38 Q794.812 1485.92 798.423 1485.92 Q802.057 1485.92 803.863 1482.38 Q805.692 1478.82 805.692 1471.71 Q805.692 1464.58 803.863 1461.04 Q802.057 1457.48 798.423 1457.48 M798.423 1453.77 Q804.233 1453.77 807.289 1458.38 Q810.368 1462.96 810.368 1471.71 Q810.368 1480.44 807.289 1485.04 Q804.233 1489.63 798.423 1489.63 Q792.613 1489.63 789.534 1485.04 Q786.479 1480.44 786.479 1471.71 Q786.479 1462.96 789.534 1458.38 Q792.613 1453.77 798.423 1453.77 Z" fill="#000000" fill-rule="evenodd" fill-opacity="1" /><path clip-path="url(#clip230)" d="M823.044 1436.78 L813.452 1451.77 L823.044 1451.77 L823.044 1436.78 M822.047 1433.47 L826.824 1433.47 L826.824 1451.77 L830.83 1451.77 L830.83 1454.93 L826.824 1454.93 L826.824 1461.55 L823.044 1461.55 L823.044 1454.93 L810.368 1454.93 L810.368 1451.26 L822.047 1433.47 Z" fill="#000000" fill-rule="evenodd" fill-opacity="1" /><path clip-path="url(#clip230)" d="M1259.62 1485.02 L1267.26 1485.02 L1267.26 1458.66 L1258.95 1460.32 L1258.95 1456.06 L1267.22 1454.4 L1271.89 1454.4 L1271.89 1485.02 L1279.53 1485.02 L1279.53 1488.96 L1259.62 1488.96 L1259.62 1485.02 Z" fill="#000000" fill-rule="evenodd" fill-opacity="1" /><path clip-path="url(#clip230)" d="M1298.97 1457.48 Q1295.36 1457.48 1293.53 1461.04 Q1291.73 1464.58 1291.73 1471.71 Q1291.73 1478.82 1293.53 1482.38 Q1295.36 1485.92 1298.97 1485.92 Q1302.61 1485.92 1304.41 1482.38 Q1306.24 1478.82 1306.24 1471.71 Q1306.24 1464.58 1304.41 1461.04 Q1302.61 1457.48 1298.97 1457.48 M1298.97 1453.77 Q1304.78 1453.77 1307.84 1458.38 Q1310.92 1462.96 1310.92 1471.71 Q1310.92 1480.44 1307.84 1485.04 Q1304.78 1489.63 1298.97 1489.63 Q1293.16 1489.63 1290.09 1485.04 Q1287.03 1480.44 1287.03 1471.71 Q1287.03 1462.96 1290.09 1458.38 Q1293.16 1453.77 1298.97 1453.77 Z" fill="#000000" fill-rule="evenodd" fill-opacity="1" /><path clip-path="url(#clip230)" d="M1312.1 1433.47 L1327.02 1433.47 L1327.02 1436.66 L1315.58 1436.66 L1315.58 1443.55 Q1316.41 1443.27 1317.24 1443.13 Q1318.07 1442.98 1318.89 1442.98 Q1323.6 1442.98 1326.34 1445.56 Q1329.09 1448.14 1329.09 1452.54 Q1329.09 1457.07 1326.27 1459.59 Q1323.44 1462.09 1318.31 1462.09 Q1316.54 1462.09 1314.7 1461.79 Q1312.87 1461.49 1310.92 1460.89 L1310.92 1457.07 Q1312.61 1457.99 1314.42 1458.44 Q1316.22 1458.89 1318.24 1458.89 Q1321.49 1458.89 1323.39 1457.18 Q1325.29 1455.47 1325.29 1452.54 Q1325.29 1449.6 1323.39 1447.89 Q1321.49 1446.18 1318.24 1446.18 Q1316.71 1446.18 1315.19 1446.52 Q1313.68 1446.86 1312.1 1447.57 L1312.1 1433.47 Z" fill="#000000" fill-rule="evenodd" fill-opacity="1" /><path clip-path="url(#clip230)" d="M1758.42 1485.02 L1766.05 1485.02 L1766.05 1458.66 L1757.74 1460.32 L1757.74 1456.06 L1766.01 1454.4 L1770.68 1454.4 L1770.68 1485.02 L1778.32 1485.02 L1778.32 1488.96 L1758.42 1488.96 L1758.42 1485.02 Z" fill="#000000" fill-rule="evenodd" fill-opacity="1" /><path clip-path="url(#clip230)" d="M1797.77 1457.48 Q1794.16 1457.48 1792.33 1461.04 Q1790.52 1464.58 1790.52 1471.71 Q1790.52 1478.82 1792.33 1482.38 Q1794.16 1485.92 1797.77 1485.92 Q1801.4 1485.92 1803.21 1482.38 Q1805.04 1478.82 1805.04 1471.71 Q1805.04 1464.58 1803.21 1461.04 Q1801.4 1457.48 1797.77 1457.48 M1797.77 1453.77 Q1803.58 1453.77 1806.63 1458.38 Q1809.71 1462.96 1809.71 1471.71 Q1809.71 1480.44 1806.63 1485.04 Q1803.58 1489.63 1797.77 1489.63 Q1791.96 1489.63 1788.88 1485.04 Q1785.82 1480.44 1785.82 1471.71 Q1785.82 1462.96 1788.88 1458.38 Q1791.96 1453.77 1797.77 1453.77 Z" fill="#000000" fill-rule="evenodd" fill-opacity="1" /><path clip-path="url(#clip230)" d="M1819.74 1445.99 Q1817.18 1445.99 1815.67 1447.74 Q1814.19 1449.49 1814.19 1452.54 Q1814.19 1455.57 1815.67 1457.33 Q1817.18 1459.08 1819.74 1459.08 Q1822.29 1459.08 1823.78 1457.33 Q1825.28 1455.57 1825.28 1452.54 Q1825.28 1449.49 1823.78 1447.74 Q1822.29 1445.99 1819.74 1445.99 M1827.28 1434.09 L1827.28 1437.55 Q1825.85 1436.87 1824.38 1436.51 Q1822.93 1436.16 1821.5 1436.16 Q1817.74 1436.16 1815.75 1438.69 Q1813.77 1441.23 1813.49 1446.37 Q1814.6 1444.73 1816.28 1443.87 Q1817.95 1442.98 1819.96 1442.98 Q1824.19 1442.98 1826.64 1445.56 Q1829.1 1448.12 1829.1 1452.54 Q1829.1 1456.86 1826.54 1459.48 Q1823.99 1462.09 1819.74 1462.09 Q1814.86 1462.09 1812.29 1458.37 Q1809.71 1454.62 1809.71 1447.53 Q1809.71 1440.88 1812.87 1436.93 Q1816.03 1432.96 1821.35 1432.96 Q1822.78 1432.96 1824.23 1433.24 Q1825.7 1433.52 1827.28 1434.09 Z" fill="#000000" fill-rule="evenodd" fill-opacity="1" /><path clip-path="url(#clip230)" d="M2258.49 1485.02 L2266.13 1485.02 L2266.13 1458.66 L2257.82 1460.32 L2257.82 1456.06 L2266.08 1454.4 L2270.76 1454.4 L2270.76 1485.02 L2278.39 1485.02 L2278.39 1488.96 L2258.49 1488.96 L2258.49 1485.02 Z" fill="#000000" fill-rule="evenodd" fill-opacity="1" /><path clip-path="url(#clip230)" d="M2297.84 1457.48 Q2294.23 1457.48 2292.4 1461.04 Q2290.59 1464.58 2290.59 1471.71 Q2290.59 1478.82 2292.4 1482.38 Q2294.23 1485.92 2297.84 1485.92 Q2301.47 1485.92 2303.28 1482.38 Q2305.11 1478.82 2305.11 1471.71 Q2305.11 1464.58 2303.28 1461.04 Q2301.47 1457.48 2297.84 1457.48 M2297.84 1453.77 Q2303.65 1453.77 2306.7 1458.38 Q2309.78 1462.96 2309.78 1471.71 Q2309.78 1480.44 2306.7 1485.04 Q2303.65 1489.63 2297.84 1489.63 Q2292.03 1489.63 2288.95 1485.04 Q2285.89 1480.44 2285.89 1471.71 Q2285.89 1462.96 2288.95 1458.38 Q2292.03 1453.77 2297.84 1453.77 Z" fill="#000000" fill-rule="evenodd" fill-opacity="1" /><path clip-path="url(#clip230)" d="M2309.78 1433.47 L2327.84 1433.47 L2327.84 1435.08 L2317.64 1461.55 L2313.68 1461.55 L2323.27 1436.66 L2309.78 1436.66 L2309.78 1433.47 Z" fill="#000000" fill-rule="evenodd" fill-opacity="1" /><path clip-path="url(#clip230)" d="M1276.04 1526.67 L1284.69 1526.67 L1305.76 1566.42 L1305.76 1526.67 L1312 1526.67 L1312 1574.19 L1303.35 1574.19 L1282.27 1534.43 L1282.27 1574.19 L1276.04 1574.19 L1276.04 1526.67 Z" fill="#000000" fill-rule="evenodd" fill-opacity="1" /><polyline clip-path="url(#clip232)" style="stroke:#000000; stroke-linecap:butt; stroke-linejoin:round; stroke-width:2; stroke-opacity:0.1; fill:none" points="
  235.283,1372.31 2352.76,1372.31 
  "/>
<polyline clip-path="url(#clip232)" style="stroke:#000000; stroke-linecap:butt; stroke-linejoin:round; stroke-width:2; stroke-opacity:0.1; fill:none" points="
  235.283,1105.61 2352.76,1105.61 
  "/>
<polyline clip-path="url(#clip232)" style="stroke:#000000; stroke-linecap:butt; stroke-linejoin:round; stroke-width:2; stroke-opacity:0.1; fill:none" points="
  235.283,838.922 2352.76,838.922 
  "/>
<polyline clip-path="url(#clip232)" style="stroke:#000000; stroke-linecap:butt; stroke-linejoin:round; stroke-width:2; stroke-opacity:0.1; fill:none" points="
  235.283,572.23 2352.76,572.23 
  "/>
<polyline clip-path="url(#clip232)" style="stroke:#000000; stroke-linecap:butt; stroke-linejoin:round; stroke-width:2; stroke-opacity:0.1; fill:none" points="
  235.283,305.539 2352.76,305.539 
  "/>
<polyline clip-path="url(#clip230)" style="stroke:#000000; stroke-linecap:butt; stroke-linejoin:round; stroke-width:4; stroke-opacity:1; fill:none" points="
  235.283,1410.9 235.283,47.2441 
  "/>
<polyline clip-path="url(#clip230)" style="stroke:#000000; stroke-linecap:butt; stroke-linejoin:round; stroke-width:4; stroke-opacity:1; fill:none" points="
  235.283,1372.31 254.18,1372.31 
  "/>
<polyline clip-path="url(#clip230)" style="stroke:#000000; stroke-linecap:butt; stroke-linejoin:round; stroke-width:4; stroke-opacity:1; fill:none" points="
  235.283,1105.61 254.18,1105.61 
  "/>
<polyline clip-path="url(#clip230)" style="stroke:#000000; stroke-linecap:butt; stroke-linejoin:round; stroke-width:4; stroke-opacity:1; fill:none" points="
  235.283,838.922 254.18,838.922 
  "/>
<polyline clip-path="url(#clip230)" style="stroke:#000000; stroke-linecap:butt; stroke-linejoin:round; stroke-width:4; stroke-opacity:1; fill:none" points="
  235.283,572.23 254.18,572.23 
  "/>
<polyline clip-path="url(#clip230)" style="stroke:#000000; stroke-linecap:butt; stroke-linejoin:round; stroke-width:4; stroke-opacity:1; fill:none" points="
  235.283,305.539 254.18,305.539 
  "/>
<path clip-path="url(#clip230)" d="M187.338 1358.1 Q183.727 1358.1 181.899 1361.67 Q180.093 1365.21 180.093 1372.34 Q180.093 1379.45 181.899 1383.01 Q183.727 1386.55 187.338 1386.55 Q190.973 1386.55 192.778 1383.01 Q194.607 1379.45 194.607 1372.34 Q194.607 1365.21 192.778 1361.67 Q190.973 1358.1 187.338 1358.1 M187.338 1354.4 Q193.149 1354.4 196.204 1359.01 Q199.283 1363.59 199.283 1372.34 Q199.283 1381.07 196.204 1385.67 Q193.149 1390.26 187.338 1390.26 Q181.528 1390.26 178.45 1385.67 Q175.394 1381.07 175.394 1372.34 Q175.394 1363.59 178.45 1359.01 Q181.528 1354.4 187.338 1354.4 Z" fill="#000000" fill-rule="evenodd" fill-opacity="1" /><path clip-path="url(#clip230)" d="M121.043 1118.96 L137.362 1118.96 L137.362 1122.89 L115.418 1122.89 L115.418 1118.96 Q118.08 1116.2 122.663 1111.57 Q127.269 1106.92 128.45 1105.58 Q130.695 1103.06 131.575 1101.32 Q132.478 1099.56 132.478 1097.87 Q132.478 1095.12 130.533 1093.38 Q128.612 1091.64 125.51 1091.64 Q123.311 1091.64 120.857 1092.41 Q118.427 1093.17 115.649 1094.72 L115.649 1090 Q118.473 1088.87 120.927 1088.29 Q123.38 1087.71 125.418 1087.71 Q130.788 1087.71 133.982 1090.39 Q137.177 1093.08 137.177 1097.57 Q137.177 1099.7 136.367 1101.62 Q135.579 1103.52 133.473 1106.11 Q132.894 1106.78 129.792 1110 Q126.691 1113.19 121.043 1118.96 Z" fill="#000000" fill-rule="evenodd" fill-opacity="1" /><path clip-path="url(#clip230)" d="M157.177 1091.41 Q153.566 1091.41 151.737 1094.98 Q149.931 1098.52 149.931 1105.65 Q149.931 1112.76 151.737 1116.32 Q153.566 1119.86 157.177 1119.86 Q160.811 1119.86 162.616 1116.32 Q164.445 1112.76 164.445 1105.65 Q164.445 1098.52 162.616 1094.98 Q160.811 1091.41 157.177 1091.41 M157.177 1087.71 Q162.987 1087.71 166.042 1092.32 Q169.121 1096.9 169.121 1105.65 Q169.121 1114.38 166.042 1118.98 Q162.987 1123.57 157.177 1123.57 Q151.366 1123.57 148.288 1118.98 Q145.232 1114.38 145.232 1105.65 Q145.232 1096.9 148.288 1092.32 Q151.366 1087.71 157.177 1087.71 Z" fill="#000000" fill-rule="evenodd" fill-opacity="1" /><path clip-path="url(#clip230)" d="M187.338 1091.41 Q183.727 1091.41 181.899 1094.98 Q180.093 1098.52 180.093 1105.65 Q180.093 1112.76 181.899 1116.32 Q183.727 1119.86 187.338 1119.86 Q190.973 1119.86 192.778 1116.32 Q194.607 1112.76 194.607 1105.65 Q194.607 1098.52 192.778 1094.98 Q190.973 1091.41 187.338 1091.41 M187.338 1087.71 Q193.149 1087.71 196.204 1092.32 Q199.283 1096.9 199.283 1105.65 Q199.283 1114.38 196.204 1118.98 Q193.149 1123.57 187.338 1123.57 Q181.528 1123.57 178.45 1118.98 Q175.394 1114.38 175.394 1105.65 Q175.394 1096.9 178.45 1092.32 Q181.528 1087.71 187.338 1087.71 Z" fill="#000000" fill-rule="evenodd" fill-opacity="1" /><path clip-path="url(#clip230)" d="M129.862 825.716 L118.056 844.165 L129.862 844.165 L129.862 825.716 M128.635 821.642 L134.515 821.642 L134.515 844.165 L139.445 844.165 L139.445 848.054 L134.515 848.054 L134.515 856.202 L129.862 856.202 L129.862 848.054 L114.26 848.054 L114.26 843.54 L128.635 821.642 Z" fill="#000000" fill-rule="evenodd" fill-opacity="1" /><path clip-path="url(#clip230)" d="M157.177 824.721 Q153.566 824.721 151.737 828.286 Q149.931 831.827 149.931 838.957 Q149.931 846.063 151.737 849.628 Q153.566 853.17 157.177 853.17 Q160.811 853.17 162.616 849.628 Q164.445 846.063 164.445 838.957 Q164.445 831.827 162.616 828.286 Q160.811 824.721 157.177 824.721 M157.177 821.017 Q162.987 821.017 166.042 825.624 Q169.121 830.207 169.121 838.957 Q169.121 847.684 166.042 852.29 Q162.987 856.873 157.177 856.873 Q151.366 856.873 148.288 852.29 Q145.232 847.684 145.232 838.957 Q145.232 830.207 148.288 825.624 Q151.366 821.017 157.177 821.017 Z" fill="#000000" fill-rule="evenodd" fill-opacity="1" /><path clip-path="url(#clip230)" d="M187.338 824.721 Q183.727 824.721 181.899 828.286 Q180.093 831.827 180.093 838.957 Q180.093 846.063 181.899 849.628 Q183.727 853.17 187.338 853.17 Q190.973 853.17 192.778 849.628 Q194.607 846.063 194.607 838.957 Q194.607 831.827 192.778 828.286 Q190.973 824.721 187.338 824.721 M187.338 821.017 Q193.149 821.017 196.204 825.624 Q199.283 830.207 199.283 838.957 Q199.283 847.684 196.204 852.29 Q193.149 856.873 187.338 856.873 Q181.528 856.873 178.45 852.29 Q175.394 847.684 175.394 838.957 Q175.394 830.207 178.45 825.624 Q181.528 821.017 187.338 821.017 Z" fill="#000000" fill-rule="evenodd" fill-opacity="1" /><path clip-path="url(#clip230)" d="M127.593 570.367 Q124.445 570.367 122.593 572.52 Q120.765 574.673 120.765 578.423 Q120.765 582.149 122.593 584.325 Q124.445 586.478 127.593 586.478 Q130.742 586.478 132.57 584.325 Q134.422 582.149 134.422 578.423 Q134.422 574.673 132.57 572.52 Q130.742 570.367 127.593 570.367 M136.876 555.714 L136.876 559.974 Q135.117 559.14 133.311 558.7 Q131.529 558.261 129.769 558.261 Q125.14 558.261 122.686 561.386 Q120.255 564.511 119.908 570.83 Q121.274 568.816 123.334 567.751 Q125.394 566.663 127.871 566.663 Q133.08 566.663 136.089 569.835 Q139.121 572.983 139.121 578.423 Q139.121 583.747 135.973 586.964 Q132.825 590.182 127.593 590.182 Q121.598 590.182 118.427 585.598 Q115.256 580.992 115.256 572.265 Q115.256 564.071 119.144 559.21 Q123.033 554.325 129.584 554.325 Q131.343 554.325 133.126 554.673 Q134.931 555.02 136.876 555.714 Z" fill="#000000" fill-rule="evenodd" fill-opacity="1" /><path clip-path="url(#clip230)" d="M157.177 558.029 Q153.566 558.029 151.737 561.594 Q149.931 565.136 149.931 572.265 Q149.931 579.372 151.737 582.936 Q153.566 586.478 157.177 586.478 Q160.811 586.478 162.616 582.936 Q164.445 579.372 164.445 572.265 Q164.445 565.136 162.616 561.594 Q160.811 558.029 157.177 558.029 M157.177 554.325 Q162.987 554.325 166.042 558.932 Q169.121 563.515 169.121 572.265 Q169.121 580.992 166.042 585.598 Q162.987 590.182 157.177 590.182 Q151.366 590.182 148.288 585.598 Q145.232 580.992 145.232 572.265 Q145.232 563.515 148.288 558.932 Q151.366 554.325 157.177 554.325 Z" fill="#000000" fill-rule="evenodd" fill-opacity="1" /><path clip-path="url(#clip230)" d="M187.338 558.029 Q183.727 558.029 181.899 561.594 Q180.093 565.136 180.093 572.265 Q180.093 579.372 181.899 582.936 Q183.727 586.478 187.338 586.478 Q190.973 586.478 192.778 582.936 Q194.607 579.372 194.607 572.265 Q194.607 565.136 192.778 561.594 Q190.973 558.029 187.338 558.029 M187.338 554.325 Q193.149 554.325 196.204 558.932 Q199.283 563.515 199.283 572.265 Q199.283 580.992 196.204 585.598 Q193.149 590.182 187.338 590.182 Q181.528 590.182 178.45 585.598 Q175.394 580.992 175.394 572.265 Q175.394 563.515 178.45 558.932 Q181.528 554.325 187.338 554.325 Z" fill="#000000" fill-rule="evenodd" fill-opacity="1" /><path clip-path="url(#clip230)" d="M127.015 306.407 Q123.681 306.407 121.76 308.189 Q119.862 309.972 119.862 313.097 Q119.862 316.222 121.76 318.004 Q123.681 319.786 127.015 319.786 Q130.348 319.786 132.269 318.004 Q134.191 316.198 134.191 313.097 Q134.191 309.972 132.269 308.189 Q130.371 306.407 127.015 306.407 M122.339 304.416 Q119.33 303.675 117.64 301.615 Q115.973 299.555 115.973 296.592 Q115.973 292.448 118.913 290.041 Q121.876 287.634 127.015 287.634 Q132.177 287.634 135.117 290.041 Q138.056 292.448 138.056 296.592 Q138.056 299.555 136.367 301.615 Q134.7 303.675 131.714 304.416 Q135.093 305.203 136.968 307.495 Q138.867 309.786 138.867 313.097 Q138.867 318.12 135.788 320.805 Q132.732 323.49 127.015 323.49 Q121.297 323.49 118.218 320.805 Q115.163 318.12 115.163 313.097 Q115.163 309.786 117.061 307.495 Q118.959 305.203 122.339 304.416 M120.626 297.032 Q120.626 299.717 122.293 301.222 Q123.982 302.726 127.015 302.726 Q130.024 302.726 131.714 301.222 Q133.427 299.717 133.427 297.032 Q133.427 294.347 131.714 292.842 Q130.024 291.337 127.015 291.337 Q123.982 291.337 122.293 292.842 Q120.626 294.347 120.626 297.032 Z" fill="#000000" fill-rule="evenodd" fill-opacity="1" /><path clip-path="url(#clip230)" d="M157.177 291.337 Q153.566 291.337 151.737 294.902 Q149.931 298.444 149.931 305.573 Q149.931 312.68 151.737 316.245 Q153.566 319.786 157.177 319.786 Q160.811 319.786 162.616 316.245 Q164.445 312.68 164.445 305.573 Q164.445 298.444 162.616 294.902 Q160.811 291.337 157.177 291.337 M157.177 287.634 Q162.987 287.634 166.042 292.24 Q169.121 296.823 169.121 305.573 Q169.121 314.3 166.042 318.907 Q162.987 323.49 157.177 323.49 Q151.366 323.49 148.288 318.907 Q145.232 314.3 145.232 305.573 Q145.232 296.823 148.288 292.24 Q151.366 287.634 157.177 287.634 Z" fill="#000000" fill-rule="evenodd" fill-opacity="1" /><path clip-path="url(#clip230)" d="M187.338 291.337 Q183.727 291.337 181.899 294.902 Q180.093 298.444 180.093 305.573 Q180.093 312.68 181.899 316.245 Q183.727 319.786 187.338 319.786 Q190.973 319.786 192.778 316.245 Q194.607 312.68 194.607 305.573 Q194.607 298.444 192.778 294.902 Q190.973 291.337 187.338 291.337 M187.338 287.634 Q193.149 287.634 196.204 292.24 Q199.283 296.823 199.283 305.573 Q199.283 314.3 196.204 318.907 Q193.149 323.49 187.338 323.49 Q181.528 323.49 178.45 318.907 Q175.394 314.3 175.394 305.573 Q175.394 296.823 178.45 292.24 Q181.528 287.634 187.338 287.634 Z" fill="#000000" fill-rule="evenodd" fill-opacity="1" /><path clip-path="url(#clip230)" d="M32.4621 1022.02 Q32.4621 1026.73 36.1542 1029.47 Q39.8145 1032.21 46.212 1032.21 Q52.6095 1032.21 56.3017 1029.5 Q59.9619 1026.76 59.9619 1022.02 Q59.9619 1017.34 56.2698 1014.6 Q52.5777 1011.87 46.212 1011.87 Q39.8781 1011.87 36.186 1014.6 Q32.4621 1017.34 32.4621 1022.02 M27.4968 1022.02 Q27.4968 1014.38 32.4621 1010.02 Q37.4273 1005.66 46.212 1005.66 Q54.9649 1005.66 59.9619 1010.02 Q64.9272 1014.38 64.9272 1022.02 Q64.9272 1029.69 59.9619 1034.05 Q54.9649 1038.38 46.212 1038.38 Q37.4273 1038.38 32.4621 1034.05 Q27.4968 1029.69 27.4968 1022.02 Z" fill="#000000" fill-rule="evenodd" fill-opacity="1" /><path clip-path="url(#clip230)" d="M58.657 990.287 L77.5631 990.287 L77.5631 996.175 L28.3562 996.175 L28.3562 990.287 L33.7671 990.287 Q30.5842 988.441 29.0564 985.64 Q27.4968 982.807 27.4968 978.893 Q27.4968 972.4 32.6531 968.357 Q37.8093 964.283 46.212 964.283 Q54.6147 964.283 59.771 968.357 Q64.9272 972.4 64.9272 978.893 Q64.9272 982.807 63.3994 985.64 Q61.8398 988.441 58.657 990.287 M46.212 970.362 Q39.7508 970.362 36.0905 973.036 Q32.3984 975.678 32.3984 980.325 Q32.3984 984.972 36.0905 987.645 Q39.7508 990.287 46.212 990.287 Q52.6732 990.287 56.3653 987.645 Q60.0256 984.972 60.0256 980.325 Q60.0256 975.678 56.3653 973.036 Q52.6732 970.362 46.212 970.362 Z" fill="#000000" fill-rule="evenodd" fill-opacity="1" /><path clip-path="url(#clip230)" d="M44.7161 924.084 L47.5806 924.084 L47.5806 951.011 Q53.6281 950.629 56.8109 947.382 Q59.9619 944.104 59.9619 938.279 Q59.9619 934.905 59.1344 931.754 Q58.3069 928.572 56.6518 925.452 L62.1899 925.452 Q63.5267 928.603 64.227 931.914 Q64.9272 935.224 64.9272 938.629 Q64.9272 947.159 59.9619 952.157 Q54.9967 957.122 46.5303 957.122 Q37.7774 957.122 32.6531 952.411 Q27.4968 947.669 27.4968 939.648 Q27.4968 932.455 32.1438 928.285 Q36.7589 924.084 44.7161 924.084 M42.9973 929.94 Q38.1912 930.004 35.3266 932.646 Q32.4621 935.256 32.4621 939.584 Q32.4621 944.486 35.2312 947.446 Q38.0002 950.374 43.0292 950.82 L42.9973 929.94 Z" fill="#000000" fill-rule="evenodd" fill-opacity="1" /><path clip-path="url(#clip230)" d="M33.8307 893.815 Q33.2578 894.802 33.0032 895.979 Q32.7167 897.125 32.7167 898.525 Q32.7167 903.491 35.9632 906.164 Q39.1779 908.806 45.2253 908.806 L64.0042 908.806 L64.0042 914.694 L28.3562 914.694 L28.3562 908.806 L33.8944 908.806 Q30.6479 906.96 29.0883 904 Q27.4968 901.04 27.4968 896.807 Q27.4968 896.202 27.5923 895.47 Q27.656 894.738 27.8151 893.847 L33.8307 893.815 Z" fill="#000000" fill-rule="evenodd" fill-opacity="1" /><path clip-path="url(#clip230)" d="M46.0847 871.471 Q46.0847 878.569 47.7079 881.306 Q49.3312 884.043 53.2461 884.043 Q56.3653 884.043 58.2114 882.006 Q60.0256 879.938 60.0256 876.405 Q60.0256 871.535 56.5881 868.607 Q53.1188 865.647 47.3897 865.647 L46.0847 865.647 L46.0847 871.471 M43.6657 859.79 L64.0042 859.79 L64.0042 865.647 L58.5933 865.647 Q61.8398 867.652 63.3994 870.644 Q64.9272 873.636 64.9272 877.964 Q64.9272 883.439 61.8716 886.685 Q58.7843 889.9 53.6281 889.9 Q47.6125 889.9 44.5569 885.89 Q41.5014 881.847 41.5014 873.858 L41.5014 865.647 L40.9285 865.647 Q36.8862 865.647 34.6901 868.32 Q32.4621 870.962 32.4621 875.768 Q32.4621 878.824 33.1941 881.72 Q33.9262 884.616 35.3903 887.29 L29.9795 887.29 Q28.7381 884.075 28.1334 881.052 Q27.4968 878.028 27.4968 875.163 Q27.4968 867.429 31.5072 863.61 Q35.5176 859.79 43.6657 859.79 Z" fill="#000000" fill-rule="evenodd" fill-opacity="1" /><path clip-path="url(#clip230)" d="M18.2347 841.934 L28.3562 841.934 L28.3562 829.871 L32.9077 829.871 L32.9077 841.934 L52.2594 841.934 Q56.6199 841.934 57.8613 840.757 Q59.1026 839.547 59.1026 835.887 L59.1026 829.871 L64.0042 829.871 L64.0042 835.887 Q64.0042 842.666 61.4897 845.245 Q58.9434 847.823 52.2594 847.823 L32.9077 847.823 L32.9077 852.119 L28.3562 852.119 L28.3562 847.823 L18.2347 847.823 L18.2347 841.934 Z" fill="#000000" fill-rule="evenodd" fill-opacity="1" /><path clip-path="url(#clip230)" d="M28.3562 822.169 L28.3562 816.312 L64.0042 816.312 L64.0042 822.169 L28.3562 822.169 M14.479 822.169 L14.479 816.312 L21.895 816.312 L21.895 822.169 L14.479 822.169 Z" fill="#000000" fill-rule="evenodd" fill-opacity="1" /><path clip-path="url(#clip230)" d="M32.4621 790.245 Q32.4621 794.955 36.1542 797.693 Q39.8145 800.43 46.212 800.43 Q52.6095 800.43 56.3017 797.725 Q59.9619 794.987 59.9619 790.245 Q59.9619 785.566 56.2698 782.829 Q52.5777 780.092 46.212 780.092 Q39.8781 780.092 36.186 782.829 Q32.4621 785.566 32.4621 790.245 M27.4968 790.245 Q27.4968 782.606 32.4621 778.245 Q37.4273 773.885 46.212 773.885 Q54.9649 773.885 59.9619 778.245 Q64.9272 782.606 64.9272 790.245 Q64.9272 797.915 59.9619 802.276 Q54.9649 806.605 46.212 806.605 Q37.4273 806.605 32.4621 802.276 Q27.4968 797.915 27.4968 790.245 Z" fill="#000000" fill-rule="evenodd" fill-opacity="1" /><path clip-path="url(#clip230)" d="M42.4881 734.545 L64.0042 734.545 L64.0042 740.401 L42.679 740.401 Q37.6183 740.401 35.1038 742.375 Q32.5894 744.348 32.5894 748.295 Q32.5894 753.037 35.6131 755.775 Q38.6368 758.512 43.8567 758.512 L64.0042 758.512 L64.0042 764.4 L28.3562 764.4 L28.3562 758.512 L33.8944 758.512 Q30.6797 756.411 29.0883 753.578 Q27.4968 750.714 27.4968 746.99 Q27.4968 740.847 31.3163 737.696 Q35.1038 734.545 42.4881 734.545 Z" fill="#000000" fill-rule="evenodd" fill-opacity="1" /><path clip-path="url(#clip230)" d="M18.2347 696.351 L28.3562 696.351 L28.3562 684.288 L32.9077 684.288 L32.9077 696.351 L52.2594 696.351 Q56.6199 696.351 57.8613 695.173 Q59.1026 693.963 59.1026 690.303 L59.1026 684.288 L64.0042 684.288 L64.0042 690.303 Q64.0042 697.083 61.4897 699.661 Q58.9434 702.239 52.2594 702.239 L32.9077 702.239 L32.9077 706.536 L28.3562 706.536 L28.3562 702.239 L18.2347 702.239 L18.2347 696.351 Z" fill="#000000" fill-rule="evenodd" fill-opacity="1" /><path clip-path="url(#clip230)" d="M28.3562 676.585 L28.3562 670.729 L64.0042 670.729 L64.0042 676.585 L28.3562 676.585 M14.479 676.585 L14.479 670.729 L21.895 670.729 L21.895 676.585 L14.479 676.585 Z" fill="#000000" fill-rule="evenodd" fill-opacity="1" /><path clip-path="url(#clip230)" d="M35.1993 630.72 Q31.2526 628.524 29.3747 625.468 Q27.4968 622.413 27.4968 618.275 Q27.4968 612.705 31.4117 609.682 Q35.2948 606.658 42.4881 606.658 L64.0042 606.658 L64.0042 612.546 L42.679 612.546 Q37.5546 612.546 35.072 614.36 Q32.5894 616.175 32.5894 619.898 Q32.5894 624.45 35.6131 627.092 Q38.6368 629.734 43.8567 629.734 L64.0042 629.734 L64.0042 635.622 L42.679 635.622 Q37.5228 635.622 35.072 637.436 Q32.5894 639.25 32.5894 643.038 Q32.5894 647.526 35.6449 650.167 Q38.6686 652.809 43.8567 652.809 L64.0042 652.809 L64.0042 658.697 L28.3562 658.697 L28.3562 652.809 L33.8944 652.809 Q30.616 650.804 29.0564 648.003 Q27.4968 645.202 27.4968 641.351 Q27.4968 637.468 29.4702 634.762 Q31.4436 632.025 35.1993 630.72 Z" fill="#000000" fill-rule="evenodd" fill-opacity="1" /><path clip-path="url(#clip230)" d="M44.7161 564.485 L47.5806 564.485 L47.5806 591.412 Q53.6281 591.03 56.8109 587.784 Q59.9619 584.505 59.9619 578.681 Q59.9619 575.307 59.1344 572.156 Q58.3069 568.973 56.6518 565.854 L62.1899 565.854 Q63.5267 569.005 64.227 572.315 Q64.9272 575.625 64.9272 579.031 Q64.9272 587.561 59.9619 592.558 Q54.9967 597.523 46.5303 597.523 Q37.7774 597.523 32.6531 592.812 Q27.4968 588.07 27.4968 580.049 Q27.4968 572.856 32.1438 568.686 Q36.7589 564.485 44.7161 564.485 M42.9973 570.341 Q38.1912 570.405 35.3266 573.047 Q32.4621 575.657 32.4621 579.986 Q32.4621 584.887 35.2312 587.847 Q38.0002 590.775 43.0292 591.221 L42.9973 570.341 Z" fill="#000000" fill-rule="evenodd" fill-opacity="1" /><path clip-path="url(#clip230)" d="M14.479 534.694 L14.479 521.198 L19.0304 521.198 L19.0304 528.837 L68.0464 528.837 L68.0464 521.198 L72.5979 521.198 L72.5979 534.694 L14.479 534.694 Z" fill="#000000" fill-rule="evenodd" fill-opacity="1" /><path clip-path="url(#clip230)" d="M49.9359 509.326 L28.3562 509.326 L28.3562 503.47 L49.7131 503.47 Q54.7739 503.47 57.3202 501.496 Q59.8346 499.523 59.8346 495.576 Q59.8346 490.834 56.8109 488.097 Q53.7872 485.327 48.5673 485.327 L28.3562 485.327 L28.3562 479.471 L64.0042 479.471 L64.0042 485.327 L58.5296 485.327 Q61.7762 487.46 63.3676 490.293 Q64.9272 493.094 64.9272 496.818 Q64.9272 502.96 61.1078 506.143 Q57.2883 509.326 49.9359 509.326 M27.4968 494.59 L27.4968 494.59 Z" fill="#000000" fill-rule="evenodd" fill-opacity="1" /><path clip-path="url(#clip230)" d="M29.4065 444.682 L34.9447 444.682 Q33.6716 447.165 33.035 449.839 Q32.3984 452.512 32.3984 455.377 Q32.3984 459.737 33.7352 461.933 Q35.072 464.098 37.7456 464.098 Q39.7826 464.098 40.9603 462.538 Q42.1061 460.979 43.1565 456.268 L43.6021 454.263 Q44.9389 448.024 47.3897 445.414 Q49.8086 442.773 54.1691 442.773 Q59.1344 442.773 62.0308 446.719 Q64.9272 450.634 64.9272 457.509 Q64.9272 460.374 64.3543 463.493 Q63.8132 466.58 62.6992 470.018 L56.6518 470.018 Q58.3387 466.771 59.198 463.62 Q60.0256 460.469 60.0256 457.382 Q60.0256 453.244 58.6251 451.016 Q57.1929 448.788 54.6147 448.788 Q52.2276 448.788 50.9545 450.412 Q49.6813 452.003 48.5037 457.446 L48.0262 459.483 Q46.8804 464.925 44.5251 467.344 Q42.138 469.763 38.0002 469.763 Q32.9713 469.763 30.2341 466.199 Q27.4968 462.634 27.4968 456.077 Q27.4968 452.831 27.9743 449.966 Q28.4517 447.101 29.4065 444.682 Z" fill="#000000" fill-rule="evenodd" fill-opacity="1" /><path clip-path="url(#clip230)" d="M14.479 419.761 L72.5979 419.761 L72.5979 433.256 L68.0464 433.256 L68.0464 425.649 L19.0304 425.649 L19.0304 433.256 L14.479 433.256 L14.479 419.761 Z" fill="#000000" fill-rule="evenodd" fill-opacity="1" /><polyline clip-path="url(#clip232)" style="stroke:#009af9; stroke-linecap:butt; stroke-linejoin:round; stroke-width:4; stroke-opacity:1; fill:none" points="
  295.211,1168.73 794.615,1140.15 1294.02,972.801 1793.42,533.413 2292.83,85.838 
  "/>
<path clip-path="url(#clip232)" d="M295.211 1152.73 L279.211 1168.73 L295.211 1184.73 L311.211 1168.73 L295.211 1152.73 Z" fill="#009af9" fill-rule="evenodd" fill-opacity="1" stroke="#000000" stroke-opacity="1" stroke-width="3.2"/>
<path clip-path="url(#clip232)" d="M794.615 1124.15 L778.615 1140.15 L794.615 1156.15 L810.615 1140.15 L794.615 1124.15 Z" fill="#009af9" fill-rule="evenodd" fill-opacity="1" stroke="#000000" stroke-opacity="1" stroke-width="3.2"/>
<path clip-path="url(#clip232)" d="M1294.02 956.801 L1278.02 972.801 L1294.02 988.801 L1310.02 972.801 L1294.02 956.801 Z" fill="#009af9" fill-rule="evenodd" fill-opacity="1" stroke="#000000" stroke-opacity="1" stroke-width="3.2"/>
<path clip-path="url(#clip232)" d="M1793.42 517.413 L1777.42 533.413 L1793.42 549.413 L1809.42 533.413 L1793.42 517.413 Z" fill="#009af9" fill-rule="evenodd" fill-opacity="1" stroke="#000000" stroke-opacity="1" stroke-width="3.2"/>
<path clip-path="url(#clip232)" d="M2292.83 69.838 L2276.83 85.838 L2292.83 101.838 L2308.83 85.838 L2292.83 69.838 Z" fill="#009af9" fill-rule="evenodd" fill-opacity="1" stroke="#000000" stroke-opacity="1" stroke-width="3.2"/>
<polyline clip-path="url(#clip232)" style="stroke:#e26f46; stroke-linecap:butt; stroke-linejoin:round; stroke-width:4; stroke-opacity:1; fill:none" points="
  295.211,1329.61 794.615,1287.15 1294.02,1151.14 1793.42,672.347 2292.83,155.671 
  "/>
<path clip-path="url(#clip232)" d="M295.211 1313.61 L279.211 1345.61 L311.211 1345.61 L295.211 1313.61 Z" fill="#e26f46" fill-rule="evenodd" fill-opacity="1" stroke="#000000" stroke-opacity="1" stroke-width="3.2"/>
<path clip-path="url(#clip232)" d="M794.615 1271.15 L778.615 1303.15 L810.615 1303.15 L794.615 1271.15 Z" fill="#e26f46" fill-rule="evenodd" fill-opacity="1" stroke="#000000" stroke-opacity="1" stroke-width="3.2"/>
<path clip-path="url(#clip232)" d="M1294.02 1135.14 L1278.02 1167.14 L1310.02 1167.14 L1294.02 1135.14 Z" fill="#e26f46" fill-rule="evenodd" fill-opacity="1" stroke="#000000" stroke-opacity="1" stroke-width="3.2"/>
<path clip-path="url(#clip232)" d="M1793.42 656.347 L1777.42 688.347 L1809.42 688.347 L1793.42 656.347 Z" fill="#e26f46" fill-rule="evenodd" fill-opacity="1" stroke="#000000" stroke-opacity="1" stroke-width="3.2"/>
<path clip-path="url(#clip232)" d="M2292.83 139.671 L2276.83 171.671 L2308.83 171.671 L2292.83 139.671 Z" fill="#e26f46" fill-rule="evenodd" fill-opacity="1" stroke="#000000" stroke-opacity="1" stroke-width="3.2"/>
<polyline clip-path="url(#clip232)" style="stroke:#3da44d; stroke-linecap:butt; stroke-linejoin:round; stroke-width:4; stroke-opacity:1; fill:none" points="
  295.211,1372.3 794.615,1372.3 1294.02,1372.3 1793.42,1372.3 2292.83,1372.27 
  "/>
<path clip-path="url(#clip232)" d="M311.211 1356.3 L279.211 1356.3 L295.211 1388.3 L311.211 1356.3 Z" fill="#3da44d" fill-rule="evenodd" fill-opacity="1" stroke="#000000" stroke-opacity="1" stroke-width="3.2"/>
<path clip-path="url(#clip232)" d="M810.615 1356.3 L778.615 1356.3 L794.615 1388.3 L810.615 1356.3 Z" fill="#3da44d" fill-rule="evenodd" fill-opacity="1" stroke="#000000" stroke-opacity="1" stroke-width="3.2"/>
<path clip-path="url(#clip232)" d="M1310.02 1356.3 L1278.02 1356.3 L1294.02 1388.3 L1310.02 1356.3 Z" fill="#3da44d" fill-rule="evenodd" fill-opacity="1" stroke="#000000" stroke-opacity="1" stroke-width="3.2"/>
<path clip-path="url(#clip232)" d="M1809.42 1356.3 L1777.42 1356.3 L1793.42 1388.3 L1809.42 1356.3 Z" fill="#3da44d" fill-rule="evenodd" fill-opacity="1" stroke="#000000" stroke-opacity="1" stroke-width="3.2"/>
<path clip-path="url(#clip232)" d="M2308.83 1356.27 L2276.83 1356.27 L2292.83 1388.27 L2308.83 1356.27 Z" fill="#3da44d" fill-rule="evenodd" fill-opacity="1" stroke="#000000" stroke-opacity="1" stroke-width="3.2"/>
<path clip-path="url(#clip230)" d="
M305.865 300.059 L691.394 300.059 L691.394 92.6992 L305.865 92.6992  Z
  " fill="#ffffff" fill-rule="evenodd" fill-opacity="1"/>
<polyline clip-path="url(#clip230)" style="stroke:#000000; stroke-linecap:butt; stroke-linejoin:round; stroke-width:4; stroke-opacity:1; fill:none" points="
  305.865,300.059 691.394,300.059 691.394,92.6992 305.865,92.6992 305.865,300.059 
  "/>
<polyline clip-path="url(#clip230)" style="stroke:#009af9; stroke-linecap:butt; stroke-linejoin:round; stroke-width:4; stroke-opacity:1; fill:none" points="
  329.393,144.539 470.558,144.539 
  "/>
<path clip-path="url(#clip230)" d="M399.975 118.939 L374.375 144.539 L399.975 170.139 L425.575 144.539 L399.975 118.939 Z" fill="#009af9" fill-rule="evenodd" fill-opacity="1" stroke="#000000" stroke-opacity="1" stroke-width="5.12"/>
<path clip-path="url(#clip230)" d="M494.085 135.893 L498.344 135.893 L498.344 161.819 L494.085 161.819 L494.085 135.893 M494.085 125.801 L498.344 125.801 L498.344 131.194 L494.085 131.194 L494.085 125.801 Z" fill="#000000" fill-rule="evenodd" fill-opacity="1" /><path clip-path="url(#clip230)" d="M528.807 146.171 L528.807 161.819 L524.548 161.819 L524.548 146.31 Q524.548 142.629 523.113 140.801 Q521.678 138.972 518.807 138.972 Q515.358 138.972 513.367 141.171 Q511.377 143.37 511.377 147.166 L511.377 161.819 L507.094 161.819 L507.094 135.893 L511.377 135.893 L511.377 139.921 Q512.904 137.583 514.965 136.426 Q517.048 135.268 519.756 135.268 Q524.224 135.268 526.515 138.046 Q528.807 140.801 528.807 146.171 Z" fill="#000000" fill-rule="evenodd" fill-opacity="1" /><path clip-path="url(#clip230)" d="M553.83 136.657 L553.83 140.685 Q552.025 139.759 550.08 139.296 Q548.136 138.833 546.052 138.833 Q542.881 138.833 541.284 139.805 Q539.71 140.778 539.71 142.722 Q539.71 144.204 540.844 145.06 Q541.978 145.893 545.404 146.657 L546.863 146.981 Q551.4 147.954 553.298 149.736 Q555.219 151.495 555.219 154.666 Q555.219 158.278 552.349 160.384 Q549.501 162.49 544.502 162.49 Q542.418 162.49 540.15 162.074 Q537.904 161.68 535.404 160.87 L535.404 156.472 Q537.765 157.699 540.057 158.324 Q542.349 158.926 544.594 158.926 Q547.603 158.926 549.224 157.907 Q550.844 156.866 550.844 154.991 Q550.844 153.254 549.664 152.328 Q548.506 151.403 544.548 150.546 L543.066 150.199 Q539.108 149.366 537.349 147.653 Q535.59 145.916 535.59 142.907 Q535.59 139.25 538.182 137.259 Q540.775 135.268 545.543 135.268 Q547.904 135.268 549.988 135.616 Q552.071 135.963 553.83 136.657 Z" fill="#000000" fill-rule="evenodd" fill-opacity="1" /><path clip-path="url(#clip230)" d="M584.177 147.791 L584.177 149.875 L564.594 149.875 Q564.872 154.273 567.233 156.588 Q569.617 158.879 573.853 158.879 Q576.307 158.879 578.599 158.278 Q580.913 157.676 583.182 156.472 L583.182 160.5 Q580.89 161.472 578.483 161.981 Q576.075 162.49 573.599 162.49 Q567.395 162.49 563.761 158.879 Q560.15 155.268 560.15 149.111 Q560.15 142.745 563.575 139.018 Q567.025 135.268 572.858 135.268 Q578.089 135.268 581.122 138.648 Q584.177 142.004 584.177 147.791 M579.918 146.541 Q579.872 143.046 577.95 140.963 Q576.052 138.879 572.904 138.879 Q569.339 138.879 567.187 140.893 Q565.057 142.907 564.733 146.565 L579.918 146.541 Z" fill="#000000" fill-rule="evenodd" fill-opacity="1" /><path clip-path="url(#clip230)" d="M606.191 139.875 Q605.473 139.458 604.617 139.273 Q603.784 139.065 602.765 139.065 Q599.154 139.065 597.21 141.426 Q595.288 143.764 595.288 148.162 L595.288 161.819 L591.006 161.819 L591.006 135.893 L595.288 135.893 L595.288 139.921 Q596.631 137.56 598.784 136.426 Q600.936 135.268 604.015 135.268 Q604.455 135.268 604.987 135.338 Q605.52 135.384 606.168 135.5 L606.191 139.875 Z" fill="#000000" fill-rule="evenodd" fill-opacity="1" /><path clip-path="url(#clip230)" d="M614.872 128.532 L614.872 135.893 L623.645 135.893 L623.645 139.204 L614.872 139.204 L614.872 153.278 Q614.872 156.449 615.728 157.352 Q616.608 158.254 619.27 158.254 L623.645 158.254 L623.645 161.819 L619.27 161.819 Q614.339 161.819 612.464 159.99 Q610.589 158.139 610.589 153.278 L610.589 139.204 L607.464 139.204 L607.464 135.893 L610.589 135.893 L610.589 128.532 L614.872 128.532 Z" fill="#000000" fill-rule="evenodd" fill-opacity="1" /><polyline clip-path="url(#clip230)" style="stroke:#e26f46; stroke-linecap:butt; stroke-linejoin:round; stroke-width:4; stroke-opacity:1; fill:none" points="
  329.393,196.379 470.558,196.379 
  "/>
<path clip-path="url(#clip230)" d="M399.975 170.779 L374.375 221.979 L425.575 221.979 L399.975 170.779 Z" fill="#e26f46" fill-rule="evenodd" fill-opacity="1" stroke="#000000" stroke-opacity="1" stroke-width="5.12"/>
<path clip-path="url(#clip230)" d="M512.997 191.669 L512.997 177.641 L517.256 177.641 L517.256 213.659 L512.997 213.659 L512.997 209.77 Q511.654 212.085 509.594 213.219 Q507.557 214.33 504.687 214.33 Q499.988 214.33 497.025 210.58 Q494.085 206.831 494.085 200.719 Q494.085 194.608 497.025 190.858 Q499.988 187.108 504.687 187.108 Q507.557 187.108 509.594 188.243 Q511.654 189.354 512.997 191.669 M498.483 200.719 Q498.483 205.418 500.405 208.104 Q502.349 210.766 505.729 210.766 Q509.108 210.766 511.053 208.104 Q512.997 205.418 512.997 200.719 Q512.997 196.02 511.053 193.358 Q509.108 190.673 505.729 190.673 Q502.349 190.673 500.405 193.358 Q498.483 196.02 498.483 200.719 Z" fill="#000000" fill-rule="evenodd" fill-opacity="1" /><path clip-path="url(#clip230)" d="M548.205 199.631 L548.205 201.715 L528.622 201.715 Q528.9 206.113 531.261 208.428 Q533.645 210.719 537.881 210.719 Q540.335 210.719 542.627 210.118 Q544.941 209.516 547.21 208.312 L547.21 212.34 Q544.918 213.312 542.511 213.821 Q540.103 214.33 537.627 214.33 Q531.423 214.33 527.789 210.719 Q524.178 207.108 524.178 200.951 Q524.178 194.585 527.603 190.858 Q531.053 187.108 536.886 187.108 Q542.117 187.108 545.15 190.488 Q548.205 193.844 548.205 199.631 M543.946 198.381 Q543.9 194.886 541.978 192.803 Q540.08 190.719 536.932 190.719 Q533.367 190.719 531.215 192.733 Q529.085 194.747 528.761 198.405 L543.946 198.381 Z" fill="#000000" fill-rule="evenodd" fill-opacity="1" /><path clip-path="url(#clip230)" d="M555.196 177.641 L559.455 177.641 L559.455 213.659 L555.196 213.659 L555.196 177.641 Z" fill="#000000" fill-rule="evenodd" fill-opacity="1" /><path clip-path="url(#clip230)" d="M590.543 199.631 L590.543 201.715 L570.96 201.715 Q571.237 206.113 573.599 208.428 Q575.983 210.719 580.219 210.719 Q582.673 210.719 584.964 210.118 Q587.279 209.516 589.548 208.312 L589.548 212.34 Q587.256 213.312 584.849 213.821 Q582.441 214.33 579.964 214.33 Q573.761 214.33 570.126 210.719 Q566.515 207.108 566.515 200.951 Q566.515 194.585 569.941 190.858 Q573.39 187.108 579.224 187.108 Q584.455 187.108 587.487 190.488 Q590.543 193.844 590.543 199.631 M586.284 198.381 Q586.237 194.886 584.316 192.803 Q582.418 190.719 579.27 190.719 Q575.705 190.719 573.552 192.733 Q571.423 194.747 571.099 198.405 L586.284 198.381 Z" fill="#000000" fill-rule="evenodd" fill-opacity="1" /><path clip-path="url(#clip230)" d="M601.747 180.372 L601.747 187.733 L610.52 187.733 L610.52 191.044 L601.747 191.044 L601.747 205.118 Q601.747 208.289 602.603 209.192 Q603.483 210.094 606.145 210.094 L610.52 210.094 L610.52 213.659 L606.145 213.659 Q601.214 213.659 599.339 211.83 Q597.464 209.979 597.464 205.118 L597.464 191.044 L594.339 191.044 L594.339 187.733 L597.464 187.733 L597.464 180.372 L601.747 180.372 Z" fill="#000000" fill-rule="evenodd" fill-opacity="1" /><path clip-path="url(#clip230)" d="M638.297 199.631 L638.297 201.715 L618.714 201.715 Q618.992 206.113 621.353 208.428 Q623.737 210.719 627.973 210.719 Q630.427 210.719 632.719 210.118 Q635.033 209.516 637.302 208.312 L637.302 212.34 Q635.01 213.312 632.603 213.821 Q630.195 214.33 627.719 214.33 Q621.515 214.33 617.881 210.719 Q614.27 207.108 614.27 200.951 Q614.27 194.585 617.696 190.858 Q621.145 187.108 626.978 187.108 Q632.209 187.108 635.242 190.488 Q638.297 193.844 638.297 199.631 M634.038 198.381 Q633.992 194.886 632.07 192.803 Q630.172 190.719 627.024 190.719 Q623.459 190.719 621.307 192.733 Q619.177 194.747 618.853 198.405 L634.038 198.381 Z" fill="#000000" fill-rule="evenodd" fill-opacity="1" /><polyline clip-path="url(#clip230)" style="stroke:#3da44d; stroke-linecap:butt; stroke-linejoin:round; stroke-width:4; stroke-opacity:1; fill:none" points="
  329.393,248.219 470.558,248.219 
  "/>
<path clip-path="url(#clip230)" d="M425.575 222.619 L374.375 222.619 L399.975 273.819 L425.575 222.619 Z" fill="#3da44d" fill-rule="evenodd" fill-opacity="1" stroke="#000000" stroke-opacity="1" stroke-width="5.12"/>
<path clip-path="url(#clip230)" d="M494.085 229.481 L498.344 229.481 L498.344 265.499 L494.085 265.499 L494.085 229.481 Z" fill="#000000" fill-rule="evenodd" fill-opacity="1" /><path clip-path="url(#clip230)" d="M517.303 242.559 Q513.877 242.559 511.886 245.245 Q509.895 247.907 509.895 252.559 Q509.895 257.212 511.863 259.897 Q513.854 262.559 517.303 262.559 Q520.705 262.559 522.696 259.874 Q524.687 257.189 524.687 252.559 Q524.687 247.953 522.696 245.268 Q520.705 242.559 517.303 242.559 M517.303 238.948 Q522.858 238.948 526.029 242.559 Q529.201 246.171 529.201 252.559 Q529.201 258.925 526.029 262.559 Q522.858 266.17 517.303 266.17 Q511.724 266.17 508.553 262.559 Q505.404 258.925 505.404 252.559 Q505.404 246.171 508.553 242.559 Q511.724 238.948 517.303 238.948 Z" fill="#000000" fill-rule="evenodd" fill-opacity="1" /><path clip-path="url(#clip230)" d="M546.307 242.559 Q542.881 242.559 540.89 245.245 Q538.9 247.907 538.9 252.559 Q538.9 257.212 540.867 259.897 Q542.858 262.559 546.307 262.559 Q549.71 262.559 551.701 259.874 Q553.691 257.189 553.691 252.559 Q553.691 247.953 551.701 245.268 Q549.71 242.559 546.307 242.559 M546.307 238.948 Q551.863 238.948 555.034 242.559 Q558.205 246.171 558.205 252.559 Q558.205 258.925 555.034 262.559 Q551.863 266.17 546.307 266.17 Q540.728 266.17 537.557 262.559 Q534.409 258.925 534.409 252.559 Q534.409 246.171 537.557 242.559 Q540.728 238.948 546.307 238.948 Z" fill="#000000" fill-rule="evenodd" fill-opacity="1" /><path clip-path="url(#clip230)" d="M565.103 229.481 L569.386 229.481 L569.386 250.754 L582.094 239.573 L587.534 239.573 L573.784 251.703 L588.112 265.499 L582.557 265.499 L569.386 252.837 L569.386 265.499 L565.103 265.499 L565.103 229.481 Z" fill="#000000" fill-rule="evenodd" fill-opacity="1" /><path clip-path="url(#clip230)" d="M590.821 255.268 L590.821 239.573 L595.08 239.573 L595.08 255.106 Q595.08 258.786 596.515 260.638 Q597.95 262.467 600.821 262.467 Q604.27 262.467 606.26 260.268 Q608.274 258.069 608.274 254.272 L608.274 239.573 L612.534 239.573 L612.534 265.499 L608.274 265.499 L608.274 261.518 Q606.723 263.879 604.663 265.036 Q602.626 266.17 599.918 266.17 Q595.45 266.17 593.136 263.393 Q590.821 260.615 590.821 255.268 M601.538 238.948 L601.538 238.948 Z" fill="#000000" fill-rule="evenodd" fill-opacity="1" /><path clip-path="url(#clip230)" d="M625.427 261.61 L625.427 275.36 L621.145 275.36 L621.145 239.573 L625.427 239.573 L625.427 243.509 Q626.77 241.194 628.807 240.083 Q630.867 238.948 633.714 238.948 Q638.436 238.948 641.376 242.698 Q644.339 246.448 644.339 252.559 Q644.339 258.671 641.376 262.42 Q638.436 266.17 633.714 266.17 Q630.867 266.17 628.807 265.059 Q626.77 263.925 625.427 261.61 M639.918 252.559 Q639.918 247.86 637.973 245.198 Q636.052 242.513 632.672 242.513 Q629.293 242.513 627.348 245.198 Q625.427 247.86 625.427 252.559 Q625.427 257.258 627.348 259.944 Q629.293 262.606 632.672 262.606 Q636.052 262.606 637.973 259.944 Q639.918 257.258 639.918 252.559 Z" fill="#000000" fill-rule="evenodd" fill-opacity="1" /></svg>
