<?xml version="1.0" encoding="utf-8"?>
<svg xmlns="http://www.w3.org/2000/svg" xmlns:xlink="http://www.w3.org/1999/xlink" width="600" height="400" viewBox="0 0 2400 1600">
<defs>
  <clipPath id="clip390">
    <rect x="0" y="0" width="2400" height="1600"/>
  </clipPath>
</defs>
<path clip-path="url(#clip390)" d="
M0 1600 L2400 1600 L2400 0 L0 0  Z
  " fill="#ffffff" fill-rule="evenodd" fill-opacity="1"/>
<defs>
  <clipPath id="clip391">
    <rect x="480" y="0" width="1681" height="1600"/>
  </clipPath>
</defs>
<path clip-path="url(#clip390)" d="
M221.637 1410.9 L2352.76 1410.9 L2352.76 47.2441 L221.637 47.2441  Z
  " fill="#ffffff" fill-rule="evenodd" fill-opacity="1"/>
<defs>
  <clipPath id="clip392">
    <rect x="221" y="47" width="2132" height="1365"/>
  </clipPath>
</defs>
<polyline clip-path="url(#clip392)" style="stroke:#000000; stroke-linecap:butt; stroke-linejoin:round; stroke-width:2; stroke-opacity:0.1; fill:none" points="
  281.952,1410.9 281.952,47.2441 
  "/>
<polyline clip-path="url(#clip392)" style="stroke:#000000; stroke-linecap:butt; stroke-linejoin:round; stroke-width:2; stroke-opacity:0.1; fill:none" points="
  784.574,1410.9 784.574,47.2441 
  "/>
<polyline clip-path="url(#clip392)" style="stroke:#000000; stroke-linecap:butt; stroke-linejoin:round; stroke-width:2; stroke-opacity:0.1; fill:none" points="
  1287.2,1410.9 1287.2,47.2441 
  "/>
<polyline clip-path="url(#clip392)" style="stroke:#000000; stroke-linecap:butt; stroke-linejoin:round; stroke-width:2; stroke-opacity:0.1; fill:none" points="
  1789.82,1410.9 1789.82,47.2441 
  "/>
<polyline clip-path="url(#clip392)" style="stroke:#000000; stroke-linecap:butt; stroke-linejoin:round; stroke-width:2; stroke-opacity:0.1; fill:none" points="
  2292.44,1410.9 2292.44,47.2441 
  "/>
<polyline clip-path="url(#clip390)" style="stroke:#000000; stroke-linecap:butt; stroke-linejoin:round; stroke-width:4; stroke-opacity:1; fill:none" points="
  221.637,1410.9 2352.76,1410.9 
  "/>
<polyline clip-path="url(#clip390)" style="stroke:#000000; stroke-linecap:butt; stroke-linejoin:round; stroke-width:4; stroke-opacity:1; fill:none" points="
  281.952,1410.9 281.952,1392 
  "/>
<polyline clip-path="url(#clip390)" style="stroke:#000000; stroke-linecap:butt; stroke-linejoin:round; stroke-width:4; stroke-opacity:1; fill:none" points="
  784.574,1410.9 784.574,1392 
  "/>
<polyline clip-path="url(#clip390)" style="stroke:#000000; stroke-linecap:butt; stroke-linejoin:round; stroke-width:4; stroke-opacity:1; fill:none" points="
  1287.2,1410.9 1287.2,1392 
  "/>
<polyline clip-path="url(#clip390)" style="stroke:#000000; stroke-linecap:butt; stroke-linejoin:round; stroke-width:4; stroke-opacity:1; fill:none" points="
  1789.82,1410.9 1789.82,1392 
  "/>
<polyline clip-path="url(#clip390)" style="stroke:#000000; stroke-linecap:butt; stroke-linejoin:round; stroke-width:4; stroke-opacity:1; fill:none" points="
  2292.44,1410.9 2292.44,1392 
  "/>
<path clip-path="url(#clip390)" d="M247.395 1485.02 L255.034 1485.02 L255.034 1458.66 L246.724 1460.32 L246.724 1456.06 L254.988 1454.4 L259.664 1454.4 L259.664 1485.02 L267.303 1485.02 L267.303 1488.96 L247.395 1488.96 L247.395 1485.02 Z" fill="#000000" fill-rule="evenodd" fill-opacity="1" /><path clip-path="url(#clip390)" d="M286.747 1457.48 Q283.136 1457.48 281.307 1461.04 Q279.502 1464.58 279.502 1471.71 Q279.502 1478.82 281.307 1482.38 Q283.136 1485.92 286.747 1485.92 Q290.381 1485.92 292.187 1482.38 Q294.016 1478.82 294.016 1471.71 Q294.016 1464.58 292.187 1461.04 Q290.381 1457.48 286.747 1457.48 M286.747 1453.77 Q292.557 1453.77 295.613 1458.38 Q298.691 1462.96 298.691 1471.71 Q298.691 1480.44 295.613 1485.04 Q292.557 1489.63 286.747 1489.63 Q280.937 1489.63 277.858 1485.04 Q274.803 1480.44 274.803 1471.71 Q274.803 1462.96 277.858 1458.38 Q280.937 1453.77 286.747 1453.77 Z" fill="#000000" fill-rule="evenodd" fill-opacity="1" /><path clip-path="url(#clip390)" d="M311.387 1446.41 Q314.114 1446.99 315.637 1448.83 Q317.179 1450.68 317.179 1453.38 Q317.179 1457.54 314.321 1459.82 Q311.462 1462.09 306.196 1462.09 Q304.428 1462.09 302.547 1461.73 Q300.685 1461.4 298.691 1460.7 L298.691 1457.03 Q300.271 1457.95 302.152 1458.42 Q304.033 1458.89 306.083 1458.89 Q309.656 1458.89 311.518 1457.48 Q313.399 1456.07 313.399 1453.38 Q313.399 1450.9 311.65 1449.51 Q309.92 1448.1 306.816 1448.1 L303.544 1448.1 L303.544 1444.98 L306.967 1444.98 Q309.769 1444.98 311.255 1443.87 Q312.741 1442.74 312.741 1440.63 Q312.741 1438.47 311.199 1437.32 Q309.675 1436.16 306.816 1436.16 Q305.255 1436.16 303.469 1436.49 Q301.682 1436.83 299.538 1437.55 L299.538 1434.16 Q301.701 1433.56 303.581 1433.26 Q305.481 1432.96 307.155 1432.96 Q311.481 1432.96 314.001 1434.93 Q316.521 1436.89 316.521 1440.24 Q316.521 1442.57 315.186 1444.19 Q313.85 1445.79 311.387 1446.41 Z" fill="#000000" fill-rule="evenodd" fill-opacity="1" /><path clip-path="url(#clip390)" d="M749.03 1485.02 L756.669 1485.02 L756.669 1458.66 L748.359 1460.32 L748.359 1456.06 L756.623 1454.4 L761.299 1454.4 L761.299 1485.02 L768.938 1485.02 L768.938 1488.96 L749.03 1488.96 L749.03 1485.02 Z" fill="#000000" fill-rule="evenodd" fill-opacity="1" /><path clip-path="url(#clip390)" d="M788.382 1457.48 Q784.771 1457.48 782.942 1461.04 Q781.137 1464.58 781.137 1471.71 Q781.137 1478.82 782.942 1482.38 Q784.771 1485.92 788.382 1485.92 Q792.016 1485.92 793.822 1482.38 Q795.65 1478.82 795.65 1471.71 Q795.65 1464.58 793.822 1461.04 Q792.016 1457.48 788.382 1457.48 M788.382 1453.77 Q794.192 1453.77 797.248 1458.38 Q800.326 1462.96 800.326 1471.71 Q800.326 1480.44 797.248 1485.04 Q794.192 1489.63 788.382 1489.63 Q782.572 1489.63 779.493 1485.04 Q776.438 1480.44 776.438 1471.71 Q776.438 1462.96 779.493 1458.38 Q782.572 1453.77 788.382 1453.77 Z" fill="#000000" fill-rule="evenodd" fill-opacity="1" /><path clip-path="url(#clip390)" d="M813.003 1436.78 L803.411 1451.77 L813.003 1451.77 L813.003 1436.78 M812.006 1433.47 L816.783 1433.47 L816.783 1451.77 L820.789 1451.77 L820.789 1454.93 L816.783 1454.93 L816.783 1461.55 L813.003 1461.55 L813.003 1454.93 L800.326 1454.93 L800.326 1451.26 L812.006 1433.47 Z" fill="#000000" fill-rule="evenodd" fill-opacity="1" /><path clip-path="url(#clip390)" d="M1252.8 1485.02 L1260.44 1485.02 L1260.44 1458.66 L1252.13 1460.32 L1252.13 1456.06 L1260.39 1454.4 L1265.07 1454.4 L1265.07 1485.02 L1272.71 1485.02 L1272.71 1488.96 L1252.8 1488.96 L1252.8 1485.02 Z" fill="#000000" fill-rule="evenodd" fill-opacity="1" /><path clip-path="url(#clip390)" d="M1292.15 1457.48 Q1288.54 1457.48 1286.71 1461.04 Q1284.91 1464.58 1284.91 1471.71 Q1284.91 1478.82 1286.71 1482.38 Q1288.54 1485.92 1292.15 1485.92 Q1295.79 1485.92 1297.59 1482.38 Q1299.42 1478.82 1299.42 1471.71 Q1299.42 1464.58 1297.59 1461.04 Q1295.79 1457.48 1292.15 1457.48 M1292.15 1453.77 Q1297.96 1453.77 1301.02 1458.38 Q1304.1 1462.96 1304.1 1471.71 Q1304.1 1480.44 1301.02 1485.04 Q1297.96 1489.63 1292.15 1489.63 Q1286.34 1489.63 1283.26 1485.04 Q1280.21 1480.44 1280.21 1471.71 Q1280.21 1462.96 1283.26 1458.38 Q1286.34 1453.77 1292.15 1453.77 Z" fill="#000000" fill-rule="evenodd" fill-opacity="1" /><path clip-path="url(#clip390)" d="M1305.28 1433.47 L1320.2 1433.47 L1320.2 1436.66 L1308.76 1436.66 L1308.76 1443.55 Q1309.59 1443.27 1310.42 1443.13 Q1311.24 1442.98 1312.07 1442.98 Q1316.77 1442.98 1319.52 1445.56 Q1322.26 1448.14 1322.26 1452.54 Q1322.26 1457.07 1319.44 1459.59 Q1316.62 1462.09 1311.49 1462.09 Q1309.72 1462.09 1307.88 1461.79 Q1306.05 1461.49 1304.1 1460.89 L1304.1 1457.07 Q1305.79 1457.99 1307.59 1458.44 Q1309.4 1458.89 1311.41 1458.89 Q1314.67 1458.89 1316.57 1457.18 Q1318.47 1455.47 1318.47 1452.54 Q1318.47 1449.6 1316.57 1447.89 Q1314.67 1446.18 1311.41 1446.18 Q1309.89 1446.18 1308.37 1446.52 Q1306.86 1446.86 1305.28 1447.57 L1305.28 1433.47 Z" fill="#000000" fill-rule="evenodd" fill-opacity="1" /><path clip-path="url(#clip390)" d="M1754.81 1485.02 L1762.45 1485.02 L1762.45 1458.66 L1754.14 1460.32 L1754.14 1456.06 L1762.4 1454.4 L1767.08 1454.4 L1767.08 1485.02 L1774.72 1485.02 L1774.72 1488.96 L1754.81 1488.96 L1754.81 1485.02 Z" fill="#000000" fill-rule="evenodd" fill-opacity="1" /><path clip-path="url(#clip390)" d="M1794.16 1457.48 Q1790.55 1457.48 1788.72 1461.04 Q1786.92 1464.58 1786.92 1471.71 Q1786.92 1478.82 1788.72 1482.38 Q1790.55 1485.92 1794.16 1485.92 Q1797.8 1485.92 1799.6 1482.38 Q1801.43 1478.82 1801.43 1471.71 Q1801.43 1464.58 1799.6 1461.04 Q1797.8 1457.48 1794.16 1457.48 M1794.16 1453.77 Q1799.97 1453.77 1803.03 1458.38 Q1806.11 1462.96 1806.11 1471.71 Q1806.11 1480.44 1803.03 1485.04 Q1799.97 1489.63 1794.16 1489.63 Q1788.35 1489.63 1785.27 1485.04 Q1782.22 1480.44 1782.22 1471.71 Q1782.22 1462.96 1785.27 1458.38 Q1788.35 1453.77 1794.16 1453.77 Z" fill="#000000" fill-rule="evenodd" fill-opacity="1" /><path clip-path="url(#clip390)" d="M1816.13 1445.99 Q1813.57 1445.99 1812.07 1447.74 Q1810.58 1449.49 1810.58 1452.54 Q1810.58 1455.57 1812.07 1457.33 Q1813.57 1459.08 1816.13 1459.08 Q1818.69 1459.08 1820.18 1457.33 Q1821.68 1455.57 1821.68 1452.54 Q1821.68 1449.49 1820.18 1447.74 Q1818.69 1445.99 1816.13 1445.99 M1823.67 1434.09 L1823.67 1437.55 Q1822.24 1436.87 1820.78 1436.51 Q1819.33 1436.16 1817.9 1436.16 Q1814.14 1436.16 1812.14 1438.69 Q1810.17 1441.23 1809.89 1446.37 Q1811 1444.73 1812.67 1443.87 Q1814.34 1442.98 1816.36 1442.98 Q1820.59 1442.98 1823.03 1445.56 Q1825.5 1448.12 1825.5 1452.54 Q1825.5 1456.86 1822.94 1459.48 Q1820.38 1462.09 1816.13 1462.09 Q1811.26 1462.09 1808.68 1458.37 Q1806.11 1454.62 1806.11 1447.53 Q1806.11 1440.88 1809.27 1436.93 Q1812.43 1432.96 1817.75 1432.96 Q1819.18 1432.96 1820.63 1433.24 Q1822.09 1433.52 1823.67 1434.09 Z" fill="#000000" fill-rule="evenodd" fill-opacity="1" /><path clip-path="url(#clip390)" d="M2258.1 1485.02 L2265.74 1485.02 L2265.74 1458.66 L2257.43 1460.32 L2257.43 1456.06 L2265.69 1454.4 L2270.37 1454.4 L2270.37 1485.02 L2278.01 1485.02 L2278.01 1488.96 L2258.1 1488.96 L2258.1 1485.02 Z" fill="#000000" fill-rule="evenodd" fill-opacity="1" /><path clip-path="url(#clip390)" d="M2297.45 1457.48 Q2293.84 1457.48 2292.01 1461.04 Q2290.21 1464.58 2290.21 1471.71 Q2290.21 1478.82 2292.01 1482.38 Q2293.84 1485.92 2297.45 1485.92 Q2301.09 1485.92 2302.89 1482.38 Q2304.72 1478.82 2304.72 1471.71 Q2304.72 1464.58 2302.89 1461.04 Q2301.09 1457.48 2297.45 1457.48 M2297.45 1453.77 Q2303.26 1453.77 2306.32 1458.38 Q2309.4 1462.96 2309.4 1471.71 Q2309.4 1480.44 2306.32 1485.04 Q2303.26 1489.63 2297.45 1489.63 Q2291.64 1489.63 2288.56 1485.04 Q2285.51 1480.44 2285.51 1471.71 Q2285.51 1462.96 2288.56 1458.38 Q2291.64 1453.77 2297.45 1453.77 Z" fill="#000000" fill-rule="evenodd" fill-opacity="1" /><path clip-path="url(#clip390)" d="M2309.4 1433.47 L2327.45 1433.47 L2327.45 1435.08 L2317.26 1461.55 L2313.29 1461.55 L2322.88 1436.66 L2309.4 1436.66 L2309.4 1433.47 Z" fill="#000000" fill-rule="evenodd" fill-opacity="1" /><path clip-path="url(#clip390)" d="M1269.21 1526.67 L1277.87 1526.67 L1298.94 1566.42 L1298.94 1526.67 L1305.18 1526.67 L1305.18 1574.19 L1296.52 1574.19 L1275.45 1534.43 L1275.45 1574.19 L1269.21 1574.19 L1269.21 1526.67 Z" fill="#000000" fill-rule="evenodd" fill-opacity="1" /><polyline clip-path="url(#clip392)" style="stroke:#000000; stroke-linecap:butt; stroke-linejoin:round; stroke-width:2; stroke-opacity:0.1; fill:none" points="
  221.637,981.848 2352.76,981.848 
  "/>
<polyline clip-path="url(#clip392)" style="stroke:#000000; stroke-linecap:butt; stroke-linejoin:round; stroke-width:2; stroke-opacity:0.1; fill:none" points="
  221.637,547.831 2352.76,547.831 
  "/>
<polyline clip-path="url(#clip392)" style="stroke:#000000; stroke-linecap:butt; stroke-linejoin:round; stroke-width:2; stroke-opacity:0.1; fill:none" points="
  221.637,113.814 2352.76,113.814 
  "/>
<polyline clip-path="url(#clip390)" style="stroke:#000000; stroke-linecap:butt; stroke-linejoin:round; stroke-width:4; stroke-opacity:1; fill:none" points="
  221.637,1410.9 221.637,47.2441 
  "/>
<polyline clip-path="url(#clip390)" style="stroke:#000000; stroke-linecap:butt; stroke-linejoin:round; stroke-width:4; stroke-opacity:1; fill:none" points="
  221.637,981.848 240.535,981.848 
  "/>
<polyline clip-path="url(#clip390)" style="stroke:#000000; stroke-linecap:butt; stroke-linejoin:round; stroke-width:4; stroke-opacity:1; fill:none" points="
  221.637,547.831 240.535,547.831 
  "/>
<polyline clip-path="url(#clip390)" style="stroke:#000000; stroke-linecap:butt; stroke-linejoin:round; stroke-width:4; stroke-opacity:1; fill:none" points="
  221.637,113.814 240.535,113.814 
  "/>
<path clip-path="url(#clip390)" d="M114.931 1001.64 L122.57 1001.64 L122.57 975.275 L114.26 976.942 L114.26 972.682 L122.524 971.016 L127.2 971.016 L127.2 1001.64 L134.839 1001.64 L134.839 1005.58 L114.931 1005.58 L114.931 1001.64 Z" fill="#000000" fill-rule="evenodd" fill-opacity="1" /><path clip-path="url(#clip390)" d="M154.283 974.094 Q150.672 974.094 148.843 977.659 Q147.038 981.201 147.038 988.33 Q147.038 995.437 148.843 999.002 Q150.672 1002.54 154.283 1002.54 Q157.917 1002.54 159.723 999.002 Q161.552 995.437 161.552 988.33 Q161.552 981.201 159.723 977.659 Q157.917 974.094 154.283 974.094 M154.283 970.391 Q160.093 970.391 163.149 974.997 Q166.227 979.58 166.227 988.33 Q166.227 997.057 163.149 1001.66 Q160.093 1006.25 154.283 1006.25 Q148.473 1006.25 145.394 1001.66 Q142.339 997.057 142.339 988.33 Q142.339 979.58 145.394 974.997 Q148.473 970.391 154.283 970.391 Z" fill="#000000" fill-rule="evenodd" fill-opacity="1" /><path clip-path="url(#clip390)" d="M175.932 952.587 Q172.998 952.587 171.512 955.483 Q170.045 958.361 170.045 964.154 Q170.045 969.928 171.512 972.824 Q172.998 975.702 175.932 975.702 Q178.885 975.702 180.352 972.824 Q181.838 969.928 181.838 964.154 Q181.838 958.361 180.352 955.483 Q178.885 952.587 175.932 952.587 M175.932 949.578 Q180.653 949.578 183.136 953.32 Q185.637 957.044 185.637 964.154 Q185.637 971.244 183.136 974.987 Q180.653 978.711 175.932 978.711 Q171.212 978.711 168.71 974.987 Q166.227 971.244 166.227 964.154 Q166.227 957.044 168.71 953.32 Q171.212 949.578 175.932 949.578 Z" fill="#000000" fill-rule="evenodd" fill-opacity="1" /><path clip-path="url(#clip390)" d="M117.621 567.623 L125.26 567.623 L125.26 541.258 L116.95 542.925 L116.95 538.665 L125.214 536.999 L129.889 536.999 L129.889 567.623 L137.528 567.623 L137.528 571.559 L117.621 571.559 L117.621 567.623 Z" fill="#000000" fill-rule="evenodd" fill-opacity="1" /><path clip-path="url(#clip390)" d="M156.973 540.077 Q153.362 540.077 151.533 543.642 Q149.727 547.184 149.727 554.313 Q149.727 561.42 151.533 564.985 Q153.362 568.526 156.973 568.526 Q160.607 568.526 162.412 564.985 Q164.241 561.42 164.241 554.313 Q164.241 547.184 162.412 543.642 Q160.607 540.077 156.973 540.077 M156.973 536.374 Q162.783 536.374 165.838 540.98 Q168.917 545.563 168.917 554.313 Q168.917 563.04 165.838 567.647 Q162.783 572.23 156.973 572.23 Q151.162 572.23 148.084 567.647 Q145.028 563.04 145.028 554.313 Q145.028 545.563 148.084 540.98 Q151.162 536.374 156.973 536.374 Z" fill="#000000" fill-rule="evenodd" fill-opacity="1" /><path clip-path="url(#clip390)" d="M169.462 540.951 L175.669 540.951 L175.669 519.529 L168.917 520.883 L168.917 517.422 L175.631 516.068 L179.431 516.068 L179.431 540.951 L185.637 540.951 L185.637 544.148 L169.462 544.148 L169.462 540.951 Z" fill="#000000" fill-rule="evenodd" fill-opacity="1" /><path clip-path="url(#clip390)" d="M116.511 133.606 L124.15 133.606 L124.15 107.241 L115.84 108.907 L115.84 104.648 L124.104 102.982 L128.78 102.982 L128.78 133.606 L136.419 133.606 L136.419 137.542 L116.511 137.542 L116.511 133.606 Z" fill="#000000" fill-rule="evenodd" fill-opacity="1" /><path clip-path="url(#clip390)" d="M155.863 106.06 Q152.252 106.06 150.423 109.625 Q148.618 113.167 148.618 120.296 Q148.618 127.403 150.423 130.967 Q152.252 134.509 155.863 134.509 Q159.497 134.509 161.303 130.967 Q163.131 127.403 163.131 120.296 Q163.131 113.167 161.303 109.625 Q159.497 106.06 155.863 106.06 M155.863 102.357 Q161.673 102.357 164.729 106.963 Q167.807 111.546 167.807 120.296 Q167.807 129.023 164.729 133.629 Q161.673 138.213 155.863 138.213 Q150.053 138.213 146.974 133.629 Q143.919 129.023 143.919 120.296 Q143.919 111.546 146.974 106.963 Q150.053 102.357 155.863 102.357 Z" fill="#000000" fill-rule="evenodd" fill-opacity="1" /><path clip-path="url(#clip390)" d="M172.378 106.934 L185.637 106.934 L185.637 110.131 L167.807 110.131 L167.807 106.934 Q169.97 104.696 173.694 100.934 Q177.437 97.1537 178.396 96.0629 Q180.22 94.0128 180.935 92.6023 Q181.669 91.1729 181.669 89.7999 Q181.669 87.5618 180.089 86.1512 Q178.528 84.7406 176.008 84.7406 Q174.221 84.7406 172.227 85.3613 Q170.252 85.9819 167.995 87.242 L167.995 83.4053 Q170.29 82.4837 172.284 82.0135 Q174.277 81.5433 175.932 81.5433 Q180.296 81.5433 182.891 83.725 Q185.487 85.9067 185.487 89.5554 Q185.487 91.2857 184.828 92.8468 Q184.189 94.389 182.477 96.4955 Q182.007 97.0409 179.487 99.6552 Q176.967 102.251 172.378 106.934 Z" fill="#000000" fill-rule="evenodd" fill-opacity="1" /><path clip-path="url(#clip390)" d="M32.4621 1022.02 Q32.4621 1026.73 36.1542 1029.47 Q39.8145 1032.21 46.212 1032.21 Q52.6095 1032.21 56.3017 1029.5 Q59.9619 1026.76 59.9619 1022.02 Q59.9619 1017.34 56.2698 1014.6 Q52.5777 1011.87 46.212 1011.87 Q39.8781 1011.87 36.186 1014.6 Q32.4621 1017.34 32.4621 1022.02 M27.4968 1022.02 Q27.4968 1014.38 32.4621 1010.02 Q37.4273 1005.66 46.212 1005.66 Q54.9649 1005.66 59.9619 1010.02 Q64.9272 1014.38 64.9272 1022.02 Q64.9272 1029.69 59.9619 1034.05 Q54.9649 1038.38 46.212 1038.38 Q37.4273 1038.38 32.4621 1034.05 Q27.4968 1029.69 27.4968 1022.02 Z" fill="#000000" fill-rule="evenodd" fill-opacity="1" /><path clip-path="url(#clip390)" d="M58.657 990.287 L77.5631 990.287 L77.5631 996.175 L28.3562 996.175 L28.3562 990.287 L33.7671 990.287 Q30.5842 988.441 29.0564 985.64 Q27.4968 982.807 27.4968 978.893 Q27.4968 972.4 32.6531 968.357 Q37.8093 964.283 46.212 964.283 Q54.6147 964.283 59.771 968.357 Q64.9272 972.4 64.9272 978.893 Q64.9272 982.807 63.3994 985.64 Q61.8398 988.441 58.657 990.287 M46.212 970.362 Q39.7508 970.362 36.0905 973.036 Q32.3984 975.678 32.3984 980.325 Q32.3984 984.972 36.0905 987.645 Q39.7508 990.287 46.212 990.287 Q52.6732 990.287 56.3653 987.645 Q60.0256 984.972 60.0256 980.325 Q60.0256 975.678 56.3653 973.036 Q52.6732 970.362 46.212 970.362 Z" fill="#000000" fill-rule="evenodd" fill-opacity="1" /><path clip-path="url(#clip390)" d="M44.7161 924.084 L47.5806 924.084 L47.5806 951.011 Q53.6281 950.629 56.8109 947.382 Q59.9619 944.104 59.9619 938.279 Q59.9619 934.905 59.1344 931.754 Q58.3069 928.572 56.6518 925.452 L62.1899 925.452 Q63.5267 928.603 64.227 931.914 Q64.9272 935.224 64.9272 938.629 Q64.9272 947.159 59.9619 952.157 Q54.9967 957.122 46.5303 957.122 Q37.7774 957.122 32.6531 952.411 Q27.4968 947.669 27.4968 939.648 Q27.4968 932.455 32.1438 928.285 Q36.7589 924.084 44.7161 924.084 M42.9973 929.94 Q38.1912 930.004 35.3266 932.646 Q32.4621 935.256 32.4621 939.584 Q32.4621 944.486 35.2312 947.446 Q38.0002 950.374 43.0292 950.82 L42.9973 929.94 Z" fill="#000000" fill-rule="evenodd" fill-opacity="1" /><path clip-path="url(#clip390)" d="M33.8307 893.815 Q33.2578 894.802 33.0032 895.979 Q32.7167 897.125 32.7167 898.525 Q32.7167 903.491 35.9632 906.164 Q39.1779 908.806 45.2253 908.806 L64.0042 908.806 L64.0042 914.694 L28.3562 914.694 L28.3562 908.806 L33.8944 908.806 Q30.6479 906.96 29.0883 904 Q27.4968 901.04 27.4968 896.807 Q27.4968 896.202 27.5923 895.47 Q27.656 894.738 27.8151 893.847 L33.8307 893.815 Z" fill="#000000" fill-rule="evenodd" fill-opacity="1" /><path clip-path="url(#clip390)" d="M46.0847 871.471 Q46.0847 878.569 47.7079 881.306 Q49.3312 884.043 53.2461 884.043 Q56.3653 884.043 58.2114 882.006 Q60.0256 879.938 60.0256 876.405 Q60.0256 871.535 56.5881 868.607 Q53.1188 865.647 47.3897 865.647 L46.0847 865.647 L46.0847 871.471 M43.6657 859.79 L64.0042 859.79 L64.0042 865.647 L58.5933 865.647 Q61.8398 867.652 63.3994 870.644 Q64.9272 873.636 64.9272 877.964 Q64.9272 883.439 61.8716 886.685 Q58.7843 889.9 53.6281 889.9 Q47.6125 889.9 44.5569 885.89 Q41.5014 881.847 41.5014 873.858 L41.5014 865.647 L40.9285 865.647 Q36.8862 865.647 34.6901 868.32 Q32.4621 870.962 32.4621 875.768 Q32.4621 878.824 33.1941 881.72 Q33.9262 884.616 35.3903 887.29 L29.9795 887.29 Q28.7381 884.075 28.1334 881.052 Q27.4968 878.028 27.4968 875.163 Q27.4968 867.429 31.5072 863.61 Q35.5176 859.79 43.6657 859.79 Z" fill="#000000" fill-rule="evenodd" fill-opacity="1" /><path clip-path="url(#clip390)" d="M18.2347 841.934 L28.3562 841.934 L28.3562 829.871 L32.9077 829.871 L32.9077 841.934 L52.2594 841.934 Q56.6199 841.934 57.8613 840.757 Q59.1026 839.547 59.1026 835.887 L59.1026 829.871 L64.0042 829.871 L64.0042 835.887 Q64.0042 842.666 61.4897 845.245 Q58.9434 847.823 52.2594 847.823 L32.9077 847.823 L32.9077 852.119 L28.3562 852.119 L28.3562 847.823 L18.2347 847.823 L18.2347 841.934 Z" fill="#000000" fill-rule="evenodd" fill-opacity="1" /><path clip-path="url(#clip390)" d="M28.3562 822.169 L28.3562 816.312 L64.0042 816.312 L64.0042 822.169 L28.3562 822.169 M14.479 822.169 L14.479 816.312 L21.895 816.312 L21.895 822.169 L14.479 822.169 Z" fill="#000000" fill-rule="evenodd" fill-opacity="1" /><path clip-path="url(#clip390)" d="M32.4621 790.245 Q32.4621 794.955 36.1542 797.693 Q39.8145 800.43 46.212 800.43 Q52.6095 800.43 56.3017 797.725 Q59.9619 794.987 59.9619 790.245 Q59.9619 785.566 56.2698 782.829 Q52.5777 780.092 46.212 780.092 Q39.8781 780.092 36.186 782.829 Q32.4621 785.566 32.4621 790.245 M27.4968 790.245 Q27.4968 782.606 32.4621 778.245 Q37.4273 773.885 46.212 773.885 Q54.9649 773.885 59.9619 778.245 Q64.9272 782.606 64.9272 790.245 Q64.9272 797.915 59.9619 802.276 Q54.9649 806.605 46.212 806.605 Q37.4273 806.605 32.4621 802.276 Q27.4968 797.915 27.4968 790.245 Z" fill="#000000" fill-rule="evenodd" fill-opacity="1" /><path clip-path="url(#clip390)" d="M42.4881 734.545 L64.0042 734.545 L64.0042 740.401 L42.679 740.401 Q37.6183 740.401 35.1038 742.375 Q32.5894 744.348 32.5894 748.295 Q32.5894 753.037 35.6131 755.775 Q38.6368 758.512 43.8567 758.512 L64.0042 758.512 L64.0042 764.4 L28.3562 764.4 L28.3562 758.512 L33.8944 758.512 Q30.6797 756.411 29.0883 753.578 Q27.4968 750.714 27.4968 746.99 Q27.4968 740.847 31.3163 737.696 Q35.1038 734.545 42.4881 734.545 Z" fill="#000000" fill-rule="evenodd" fill-opacity="1" /><path clip-path="url(#clip390)" d="M18.2347 696.351 L28.3562 696.351 L28.3562 684.288 L32.9077 684.288 L32.9077 696.351 L52.2594 696.351 Q56.6199 696.351 57.8613 695.173 Q59.1026 693.963 59.1026 690.303 L59.1026 684.288 L64.0042 684.288 L64.0042 690.303 Q64.0042 697.083 61.4897 699.661 Q58.9434 702.239 52.2594 702.239 L32.9077 702.239 L32.9077 706.536 L28.3562 706.536 L28.3562 702.239 L18.2347 702.239 L18.2347 696.351 Z" fill="#000000" fill-rule="evenodd" fill-opacity="1" /><path clip-path="url(#clip390)" d="M28.3562 676.585 L28.3562 670.729 L64.0042 670.729 L64.0042 676.585 L28.3562 676.585 M14.479 676.585 L14.479 670.729 L21.895 670.729 L21.895 676.585 L14.479 676.585 Z" fill="#000000" fill-rule="evenodd" fill-opacity="1" /><path clip-path="url(#clip390)" d="M35.1993 630.72 Q31.2526 628.524 29.3747 625.468 Q27.4968 622.413 27.4968 618.275 Q27.4968 612.705 31.4117 609.682 Q35.2948 606.658 42.4881 606.658 L64.0042 606.658 L64.0042 612.546 L42.679 612.546 Q37.5546 612.546 35.072 614.36 Q32.5894 616.175 32.5894 619.898 Q32.5894 624.45 35.6131 627.092 Q38.6368 629.734 43.8567 629.734 L64.0042 629.734 L64.0042 635.622 L42.679 635.622 Q37.5228 635.622 35.072 637.436 Q32.5894 639.25 32.5894 643.038 Q32.5894 647.526 35.6449 650.167 Q38.6686 652.809 43.8567 652.809 L64.0042 652.809 L64.0042 658.697 L28.3562 658.697 L28.3562 652.809 L33.8944 652.809 Q30.616 650.804 29.0564 648.003 Q27.4968 645.202 27.4968 641.351 Q27.4968 637.468 29.4702 634.762 Q31.4436 632.025 35.1993 630.72 Z" fill="#000000" fill-rule="evenodd" fill-opacity="1" /><path clip-path="url(#clip390)" d="M44.7161 564.485 L47.5806 564.485 L47.5806 591.412 Q53.6281 591.03 56.8109 587.784 Q59.9619 584.505 59.9619 578.681 Q59.9619 575.307 59.1344 572.156 Q58.3069 568.973 56.6518 565.854 L62.1899 565.854 Q63.5267 569.005 64.227 572.315 Q64.9272 575.625 64.9272 579.031 Q64.9272 587.561 59.9619 592.558 Q54.9967 597.523 46.5303 597.523 Q37.7774 597.523 32.6531 592.812 Q27.4968 588.07 27.4968 580.049 Q27.4968 572.856 32.1438 568.686 Q36.7589 564.485 44.7161 564.485 M42.9973 570.341 Q38.1912 570.405 35.3266 573.047 Q32.4621 575.657 32.4621 579.986 Q32.4621 584.887 35.2312 587.847 Q38.0002 590.775 43.0292 591.221 L42.9973 570.341 Z" fill="#000000" fill-rule="evenodd" fill-opacity="1" /><path clip-path="url(#clip390)" d="M14.479 534.694 L14.479 521.198 L19.0304 521.198 L19.0304 528.837 L68.0464 528.837 L68.0464 521.198 L72.5979 521.198 L72.5979 534.694 L14.479 534.694 Z" fill="#000000" fill-rule="evenodd" fill-opacity="1" /><path clip-path="url(#clip390)" d="M42.4881 479.089 L64.0042 479.089 L64.0042 484.946 L42.679 484.946 Q37.6183 484.946 35.1038 486.919 Q32.5894 488.892 32.5894 492.839 Q32.5894 497.581 35.6131 500.319 Q38.6368 503.056 43.8567 503.056 L64.0042 503.056 L64.0042 508.944 L28.3562 508.944 L28.3562 503.056 L33.8944 503.056 Q30.6797 500.955 29.0883 498.123 Q27.4968 495.258 27.4968 491.534 Q27.4968 485.391 31.3163 482.24 Q35.1038 479.089 42.4881 479.089 Z" fill="#000000" fill-rule="evenodd" fill-opacity="1" /><path clip-path="url(#clip390)" d="M29.4065 444.682 L34.9447 444.682 Q33.6716 447.165 33.035 449.839 Q32.3984 452.512 32.3984 455.377 Q32.3984 459.737 33.7352 461.933 Q35.072 464.098 37.7456 464.098 Q39.7826 464.098 40.9603 462.538 Q42.1061 460.979 43.1565 456.268 L43.6021 454.263 Q44.9389 448.024 47.3897 445.414 Q49.8086 442.773 54.1691 442.773 Q59.1344 442.773 62.0308 446.719 Q64.9272 450.634 64.9272 457.509 Q64.9272 460.374 64.3543 463.493 Q63.8132 466.58 62.6992 470.018 L56.6518 470.018 Q58.3387 466.771 59.198 463.62 Q60.0256 460.469 60.0256 457.382 Q60.0256 453.244 58.6251 451.016 Q57.1929 448.788 54.6147 448.788 Q52.2276 448.788 50.9545 450.412 Q49.6813 452.003 48.5037 457.446 L48.0262 459.483 Q46.8804 464.925 44.5251 467.344 Q42.138 469.763 38.0002 469.763 Q32.9713 469.763 30.2341 466.199 Q27.4968 462.634 27.4968 456.077 Q27.4968 452.831 27.9743 449.966 Q28.4517 447.101 29.4065 444.682 Z" fill="#000000" fill-rule="evenodd" fill-opacity="1" /><path clip-path="url(#clip390)" d="M14.479 419.761 L72.5979 419.761 L72.5979 433.256 L68.0464 433.256 L68.0464 425.649 L19.0304 425.649 L19.0304 433.256 L14.479 433.256 L14.479 419.761 Z" fill="#000000" fill-rule="evenodd" fill-opacity="1" /><polyline clip-path="url(#clip392)" style="stroke:#009af9; stroke-linecap:butt; stroke-linejoin:round; stroke-width:4; stroke-opacity:1; fill:none" points="
  281.952,281.872 784.574,260.183 1287.2,195.013 1789.82,127.493 2292.44,85.838 
  "/>
<path clip-path="url(#clip392)" d="M281.952 265.872 L265.952 281.872 L281.952 297.872 L297.952 281.872 L281.952 265.872 Z" fill="#009af9" fill-rule="evenodd" fill-opacity="1" stroke="#000000" stroke-opacity="1" stroke-width="3.2"/>
<path clip-path="url(#clip392)" d="M784.574 244.183 L768.574 260.183 L784.574 276.183 L800.574 260.183 L784.574 244.183 Z" fill="#009af9" fill-rule="evenodd" fill-opacity="1" stroke="#000000" stroke-opacity="1" stroke-width="3.2"/>
<path clip-path="url(#clip392)" d="M1287.2 179.013 L1271.2 195.013 L1287.2 211.013 L1303.2 195.013 L1287.2 179.013 Z" fill="#009af9" fill-rule="evenodd" fill-opacity="1" stroke="#000000" stroke-opacity="1" stroke-width="3.2"/>
<path clip-path="url(#clip392)" d="M1789.82 111.493 L1773.82 127.493 L1789.82 143.493 L1805.82 127.493 L1789.82 111.493 Z" fill="#009af9" fill-rule="evenodd" fill-opacity="1" stroke="#000000" stroke-opacity="1" stroke-width="3.2"/>
<path clip-path="url(#clip392)" d="M2292.44 69.838 L2276.44 85.838 L2292.44 101.838 L2308.44 85.838 L2292.44 69.838 Z" fill="#009af9" fill-rule="evenodd" fill-opacity="1" stroke="#000000" stroke-opacity="1" stroke-width="3.2"/>
<polyline clip-path="url(#clip392)" style="stroke:#e26f46; stroke-linecap:butt; stroke-linejoin:round; stroke-width:4; stroke-opacity:1; fill:none" points="
  281.952,375.118 784.574,311.696 1287.2,229.96 1789.82,168.039 2292.44,97.5702 
  "/>
<path clip-path="url(#clip392)" d="M281.952 359.118 L265.952 391.118 L297.952 391.118 L281.952 359.118 Z" fill="#e26f46" fill-rule="evenodd" fill-opacity="1" stroke="#000000" stroke-opacity="1" stroke-width="3.2"/>
<path clip-path="url(#clip392)" d="M784.574 295.696 L768.574 327.696 L800.574 327.696 L784.574 295.696 Z" fill="#e26f46" fill-rule="evenodd" fill-opacity="1" stroke="#000000" stroke-opacity="1" stroke-width="3.2"/>
<path clip-path="url(#clip392)" d="M1287.2 213.96 L1271.2 245.96 L1303.2 245.96 L1287.2 213.96 Z" fill="#e26f46" fill-rule="evenodd" fill-opacity="1" stroke="#000000" stroke-opacity="1" stroke-width="3.2"/>
<path clip-path="url(#clip392)" d="M1789.82 152.039 L1773.82 184.039 L1805.82 184.039 L1789.82 152.039 Z" fill="#e26f46" fill-rule="evenodd" fill-opacity="1" stroke="#000000" stroke-opacity="1" stroke-width="3.2"/>
<path clip-path="url(#clip392)" d="M2292.44 81.5702 L2276.44 113.57 L2308.44 113.57 L2292.44 81.5702 Z" fill="#e26f46" fill-rule="evenodd" fill-opacity="1" stroke="#000000" stroke-opacity="1" stroke-width="3.2"/>
<polyline clip-path="url(#clip392)" style="stroke:#3da44d; stroke-linecap:butt; stroke-linejoin:round; stroke-width:4; stroke-opacity:1; fill:none" points="
  281.952,1372.11 784.574,1366.22 1287.2,1366.22 1789.82,1372.3 2292.44,1364.78 
  "/>
<path clip-path="url(#clip392)" d="M297.952 1356.11 L265.952 1356.11 L281.952 1388.11 L297.952 1356.11 Z" fill="#3da44d" fill-rule="evenodd" fill-opacity="1" stroke="#000000" stroke-opacity="1" stroke-width="3.2"/>
<path clip-path="url(#clip392)" d="M800.574 1350.22 L768.574 1350.22 L784.574 1382.22 L800.574 1350.22 Z" fill="#3da44d" fill-rule="evenodd" fill-opacity="1" stroke="#000000" stroke-opacity="1" stroke-width="3.2"/>
<path clip-path="url(#clip392)" d="M1303.2 1350.22 L1271.2 1350.22 L1287.2 1382.22 L1303.2 1350.22 Z" fill="#3da44d" fill-rule="evenodd" fill-opacity="1" stroke="#000000" stroke-opacity="1" stroke-width="3.2"/>
<path clip-path="url(#clip392)" d="M1805.82 1356.3 L1773.82 1356.3 L1789.82 1388.3 L1805.82 1356.3 Z" fill="#3da44d" fill-rule="evenodd" fill-opacity="1" stroke="#000000" stroke-opacity="1" stroke-width="3.2"/>
<path clip-path="url(#clip392)" d="M2308.44 1348.78 L2276.44 1348.78 L2292.44 1380.78 L2308.44 1348.78 Z" fill="#3da44d" fill-rule="evenodd" fill-opacity="1" stroke="#000000" stroke-opacity="1" stroke-width="3.2"/>
<path clip-path="url(#clip390)" d="
M1894.67 806.83 L2281.72 806.83 L2281.72 599.47 L1894.67 599.47  Z
  " fill="#ffffff" fill-rule="evenodd" fill-opacity="1"/>
<polyline clip-path="url(#clip390)" style="stroke:#000000; stroke-linecap:butt; stroke-linejoin:round; stroke-width:4; stroke-opacity:1; fill:none" points="
  1894.67,806.83 2281.72,806.83 2281.72,599.47 1894.67,599.47 1894.67,806.83 
  "/>
<polyline clip-path="url(#clip390)" style="stroke:#009af9; stroke-linecap:butt; stroke-linejoin:round; stroke-width:4; stroke-opacity:1; fill:none" points="
  1918.35,651.31 2060.43,651.31 
  "/>
<path clip-path="url(#clip390)" d="M1989.39 625.71 L1963.79 651.31 L1989.39 676.91 L2014.99 651.31 L1989.39 625.71 Z" fill="#009af9" fill-rule="evenodd" fill-opacity="1" stroke="#000000" stroke-opacity="1" stroke-width="5.12"/>
<path clip-path="url(#clip390)" d="M2084.11 642.665 L2088.37 642.665 L2088.37 668.59 L2084.11 668.59 L2084.11 642.665 M2084.11 632.572 L2088.37 632.572 L2088.37 637.966 L2084.11 637.966 L2084.11 632.572 Z" fill="#000000" fill-rule="evenodd" fill-opacity="1" /><path clip-path="url(#clip390)" d="M2118.83 652.942 L2118.83 668.59 L2114.57 668.59 L2114.57 653.081 Q2114.57 649.401 2113.13 647.572 Q2111.7 645.743 2108.83 645.743 Q2105.38 645.743 2103.39 647.942 Q2101.4 650.141 2101.4 653.938 L2101.4 668.59 L2097.12 668.59 L2097.12 642.665 L2101.4 642.665 L2101.4 646.692 Q2102.93 644.354 2104.99 643.197 Q2107.07 642.04 2109.78 642.04 Q2114.25 642.04 2116.54 644.817 Q2118.83 647.572 2118.83 652.942 Z" fill="#000000" fill-rule="evenodd" fill-opacity="1" /><path clip-path="url(#clip390)" d="M2143.85 643.428 L2143.85 647.456 Q2142.05 646.53 2140.1 646.067 Q2138.16 645.604 2136.07 645.604 Q2132.9 645.604 2131.31 646.577 Q2129.73 647.549 2129.73 649.493 Q2129.73 650.975 2130.87 651.831 Q2132 652.665 2135.43 653.428 L2136.88 653.752 Q2141.42 654.725 2143.32 656.507 Q2145.24 658.266 2145.24 661.438 Q2145.24 665.049 2142.37 667.155 Q2139.52 669.262 2134.52 669.262 Q2132.44 669.262 2130.17 668.845 Q2127.93 668.451 2125.43 667.641 L2125.43 663.243 Q2127.79 664.47 2130.08 665.095 Q2132.37 665.697 2134.62 665.697 Q2137.62 665.697 2139.25 664.678 Q2140.87 663.637 2140.87 661.762 Q2140.87 660.026 2139.68 659.1 Q2138.53 658.174 2134.57 657.317 L2133.09 656.97 Q2129.13 656.137 2127.37 654.424 Q2125.61 652.688 2125.61 649.678 Q2125.61 646.021 2128.2 644.03 Q2130.8 642.04 2135.56 642.04 Q2137.93 642.04 2140.01 642.387 Q2142.09 642.734 2143.85 643.428 Z" fill="#000000" fill-rule="evenodd" fill-opacity="1" /><path clip-path="url(#clip390)" d="M2174.2 654.563 L2174.2 656.646 L2154.62 656.646 Q2154.89 661.044 2157.25 663.359 Q2159.64 665.651 2163.87 665.651 Q2166.33 665.651 2168.62 665.049 Q2170.93 664.447 2173.2 663.243 L2173.2 667.271 Q2170.91 668.243 2168.5 668.752 Q2166.1 669.262 2163.62 669.262 Q2157.42 669.262 2153.78 665.651 Q2150.17 662.039 2150.17 655.882 Q2150.17 649.516 2153.6 645.79 Q2157.05 642.04 2162.88 642.04 Q2168.11 642.04 2171.14 645.419 Q2174.2 648.776 2174.2 654.563 M2169.94 653.313 Q2169.89 649.817 2167.97 647.734 Q2166.07 645.651 2162.93 645.651 Q2159.36 645.651 2157.21 647.665 Q2155.08 649.678 2154.75 653.336 L2169.94 653.313 Z" fill="#000000" fill-rule="evenodd" fill-opacity="1" /><path clip-path="url(#clip390)" d="M2196.21 646.646 Q2195.49 646.229 2194.64 646.044 Q2193.81 645.836 2192.79 645.836 Q2189.18 645.836 2187.23 648.197 Q2185.31 650.535 2185.31 654.933 L2185.31 668.59 L2181.03 668.59 L2181.03 642.665 L2185.31 642.665 L2185.31 646.692 Q2186.65 644.331 2188.81 643.197 Q2190.96 642.04 2194.04 642.04 Q2194.48 642.04 2195.01 642.109 Q2195.54 642.155 2196.19 642.271 L2196.21 646.646 Z" fill="#000000" fill-rule="evenodd" fill-opacity="1" /><path clip-path="url(#clip390)" d="M2204.89 635.304 L2204.89 642.665 L2213.67 642.665 L2213.67 645.975 L2204.89 645.975 L2204.89 660.049 Q2204.89 663.22 2205.75 664.123 Q2206.63 665.026 2209.29 665.026 L2213.67 665.026 L2213.67 668.59 L2209.29 668.59 Q2204.36 668.59 2202.49 666.762 Q2200.61 664.91 2200.61 660.049 L2200.61 645.975 L2197.49 645.975 L2197.49 642.665 L2200.61 642.665 L2200.61 635.304 L2204.89 635.304 Z" fill="#000000" fill-rule="evenodd" fill-opacity="1" /><polyline clip-path="url(#clip390)" style="stroke:#e26f46; stroke-linecap:butt; stroke-linejoin:round; stroke-width:4; stroke-opacity:1; fill:none" points="
  1918.35,703.15 2060.43,703.15 
  "/>
<path clip-path="url(#clip390)" d="M1989.39 677.55 L1963.79 728.75 L2014.99 728.75 L1989.39 677.55 Z" fill="#e26f46" fill-rule="evenodd" fill-opacity="1" stroke="#000000" stroke-opacity="1" stroke-width="5.12"/>
<path clip-path="url(#clip390)" d="M2103.02 698.44 L2103.02 684.412 L2107.28 684.412 L2107.28 720.43 L2103.02 720.43 L2103.02 716.542 Q2101.68 718.856 2099.62 719.991 Q2097.58 721.102 2094.71 721.102 Q2090.01 721.102 2087.05 717.352 Q2084.11 713.602 2084.11 707.491 Q2084.11 701.38 2087.05 697.63 Q2090.01 693.88 2094.71 693.88 Q2097.58 693.88 2099.62 695.014 Q2101.68 696.125 2103.02 698.44 M2088.5 707.491 Q2088.5 712.19 2090.43 714.875 Q2092.37 717.537 2095.75 717.537 Q2099.13 717.537 2101.07 714.875 Q2103.02 712.19 2103.02 707.491 Q2103.02 702.792 2101.07 700.13 Q2099.13 697.444 2095.75 697.444 Q2092.37 697.444 2090.43 700.13 Q2088.5 702.792 2088.5 707.491 Z" fill="#000000" fill-rule="evenodd" fill-opacity="1" /><path clip-path="url(#clip390)" d="M2138.23 706.403 L2138.23 708.486 L2118.64 708.486 Q2118.92 712.884 2121.28 715.199 Q2123.67 717.491 2127.9 717.491 Q2130.36 717.491 2132.65 716.889 Q2134.96 716.287 2137.23 715.083 L2137.23 719.111 Q2134.94 720.083 2132.53 720.592 Q2130.12 721.102 2127.65 721.102 Q2121.44 721.102 2117.81 717.491 Q2114.2 713.879 2114.2 707.722 Q2114.2 701.356 2117.62 697.63 Q2121.07 693.88 2126.91 693.88 Q2132.14 693.88 2135.17 697.259 Q2138.23 700.616 2138.23 706.403 M2133.97 705.153 Q2133.92 701.657 2132 699.574 Q2130.1 697.491 2126.95 697.491 Q2123.39 697.491 2121.24 699.505 Q2119.11 701.518 2118.78 705.176 L2133.97 705.153 Z" fill="#000000" fill-rule="evenodd" fill-opacity="1" /><path clip-path="url(#clip390)" d="M2145.22 684.412 L2149.48 684.412 L2149.48 720.43 L2145.22 720.43 L2145.22 684.412 Z" fill="#000000" fill-rule="evenodd" fill-opacity="1" /><path clip-path="url(#clip390)" d="M2180.56 706.403 L2180.56 708.486 L2160.98 708.486 Q2161.26 712.884 2163.62 715.199 Q2166 717.491 2170.24 717.491 Q2172.69 717.491 2174.99 716.889 Q2177.3 716.287 2179.57 715.083 L2179.57 719.111 Q2177.28 720.083 2174.87 720.592 Q2172.46 721.102 2169.99 721.102 Q2163.78 721.102 2160.15 717.491 Q2156.54 713.879 2156.54 707.722 Q2156.54 701.356 2159.96 697.63 Q2163.41 693.88 2169.25 693.88 Q2174.48 693.88 2177.51 697.259 Q2180.56 700.616 2180.56 706.403 M2176.31 705.153 Q2176.26 701.657 2174.34 699.574 Q2172.44 697.491 2169.29 697.491 Q2165.73 697.491 2163.57 699.505 Q2161.44 701.518 2161.12 705.176 L2176.31 705.153 Z" fill="#000000" fill-rule="evenodd" fill-opacity="1" /><path clip-path="url(#clip390)" d="M2191.77 687.144 L2191.77 694.505 L2200.54 694.505 L2200.54 697.815 L2191.77 697.815 L2191.77 711.889 Q2191.77 715.06 2192.62 715.963 Q2193.5 716.866 2196.17 716.866 L2200.54 716.866 L2200.54 720.43 L2196.17 720.43 Q2191.24 720.43 2189.36 718.602 Q2187.49 716.75 2187.49 711.889 L2187.49 697.815 L2184.36 697.815 L2184.36 694.505 L2187.49 694.505 L2187.49 687.144 L2191.77 687.144 Z" fill="#000000" fill-rule="evenodd" fill-opacity="1" /><path clip-path="url(#clip390)" d="M2228.32 706.403 L2228.32 708.486 L2208.74 708.486 Q2209.01 712.884 2211.37 715.199 Q2213.76 717.491 2217.99 717.491 Q2220.45 717.491 2222.74 716.889 Q2225.05 716.287 2227.32 715.083 L2227.32 719.111 Q2225.03 720.083 2222.62 720.592 Q2220.22 721.102 2217.74 721.102 Q2211.54 721.102 2207.9 717.491 Q2204.29 713.879 2204.29 707.722 Q2204.29 701.356 2207.72 697.63 Q2211.17 693.88 2217 693.88 Q2222.23 693.88 2225.26 697.259 Q2228.32 700.616 2228.32 706.403 M2224.06 705.153 Q2224.01 701.657 2222.09 699.574 Q2220.19 697.491 2217.05 697.491 Q2213.48 697.491 2211.33 699.505 Q2209.2 701.518 2208.87 705.176 L2224.06 705.153 Z" fill="#000000" fill-rule="evenodd" fill-opacity="1" /><polyline clip-path="url(#clip390)" style="stroke:#3da44d; stroke-linecap:butt; stroke-linejoin:round; stroke-width:4; stroke-opacity:1; fill:none" points="
  1918.35,754.99 2060.43,754.99 
  "/>
<path clip-path="url(#clip390)" d="M2014.99 729.39 L1963.79 729.39 L1989.39 780.59 L2014.99 729.39 Z" fill="#3da44d" fill-rule="evenodd" fill-opacity="1" stroke="#000000" stroke-opacity="1" stroke-width="5.12"/>
<path clip-path="url(#clip390)" d="M2084.11 736.252 L2088.37 736.252 L2088.37 772.27 L2084.11 772.27 L2084.11 736.252 Z" fill="#000000" fill-rule="evenodd" fill-opacity="1" /><path clip-path="url(#clip390)" d="M2107.32 749.331 Q2103.9 749.331 2101.91 752.016 Q2099.92 754.678 2099.92 759.331 Q2099.92 763.983 2101.88 766.669 Q2103.88 769.331 2107.32 769.331 Q2110.73 769.331 2112.72 766.645 Q2114.71 763.96 2114.71 759.331 Q2114.71 754.724 2112.72 752.039 Q2110.73 749.331 2107.32 749.331 M2107.32 745.72 Q2112.88 745.72 2116.05 749.331 Q2119.22 752.942 2119.22 759.331 Q2119.22 765.696 2116.05 769.331 Q2112.88 772.942 2107.32 772.942 Q2101.75 772.942 2098.57 769.331 Q2095.43 765.696 2095.43 759.331 Q2095.43 752.942 2098.57 749.331 Q2101.75 745.72 2107.32 745.72 Z" fill="#000000" fill-rule="evenodd" fill-opacity="1" /><path clip-path="url(#clip390)" d="M2136.33 749.331 Q2132.9 749.331 2130.91 752.016 Q2128.92 754.678 2128.92 759.331 Q2128.92 763.983 2130.89 766.669 Q2132.88 769.331 2136.33 769.331 Q2139.73 769.331 2141.72 766.645 Q2143.71 763.96 2143.71 759.331 Q2143.71 754.724 2141.72 752.039 Q2139.73 749.331 2136.33 749.331 M2136.33 745.72 Q2141.88 745.72 2145.06 749.331 Q2148.23 752.942 2148.23 759.331 Q2148.23 765.696 2145.06 769.331 Q2141.88 772.942 2136.33 772.942 Q2130.75 772.942 2127.58 769.331 Q2124.43 765.696 2124.43 759.331 Q2124.43 752.942 2127.58 749.331 Q2130.75 745.72 2136.33 745.72 Z" fill="#000000" fill-rule="evenodd" fill-opacity="1" /><path clip-path="url(#clip390)" d="M2155.12 736.252 L2159.41 736.252 L2159.41 757.525 L2172.12 746.345 L2177.56 746.345 L2163.81 758.474 L2178.13 772.27 L2172.58 772.27 L2159.41 759.608 L2159.41 772.27 L2155.12 772.27 L2155.12 736.252 Z" fill="#000000" fill-rule="evenodd" fill-opacity="1" /><path clip-path="url(#clip390)" d="M2180.84 762.039 L2180.84 746.345 L2185.1 746.345 L2185.1 761.877 Q2185.1 765.557 2186.54 767.409 Q2187.97 769.238 2190.84 769.238 Q2194.29 769.238 2196.28 767.039 Q2198.3 764.84 2198.3 761.044 L2198.3 746.345 L2202.56 746.345 L2202.56 772.27 L2198.3 772.27 L2198.3 768.289 Q2196.74 770.65 2194.68 771.807 Q2192.65 772.942 2189.94 772.942 Q2185.47 772.942 2183.16 770.164 Q2180.84 767.386 2180.84 762.039 M2191.56 745.72 L2191.56 745.72 Z" fill="#000000" fill-rule="evenodd" fill-opacity="1" /><path clip-path="url(#clip390)" d="M2215.45 768.382 L2215.45 782.131 L2211.17 782.131 L2211.17 746.345 L2215.45 746.345 L2215.45 750.28 Q2216.79 747.965 2218.83 746.854 Q2220.89 745.72 2223.74 745.72 Q2228.46 745.72 2231.4 749.47 Q2234.36 753.22 2234.36 759.331 Q2234.36 765.442 2231.4 769.192 Q2228.46 772.942 2223.74 772.942 Q2220.89 772.942 2218.83 771.831 Q2216.79 770.696 2215.45 768.382 M2229.94 759.331 Q2229.94 754.632 2227.99 751.97 Q2226.07 749.284 2222.69 749.284 Q2219.31 749.284 2217.37 751.97 Q2215.45 754.632 2215.45 759.331 Q2215.45 764.03 2217.37 766.715 Q2219.31 769.377 2222.69 769.377 Q2226.07 769.377 2227.99 766.715 Q2229.94 764.03 2229.94 759.331 Z" fill="#000000" fill-rule="evenodd" fill-opacity="1" /></svg>
