<?xml version="1.0" encoding="utf-8"?>
<svg xmlns="http://www.w3.org/2000/svg" xmlns:xlink="http://www.w3.org/1999/xlink" width="600" height="400" viewBox="0 0 2400 1600">
<defs>
  <clipPath id="clip150">
    <rect x="0" y="0" width="2400" height="1600"/>
  </clipPath>
</defs>
<path clip-path="url(#clip150)" d="
M0 1600 L2400 1600 L2400 0 L0 0  Z
  " fill="#ffffff" fill-rule="evenodd" fill-opacity="1"/>
<defs>
  <clipPath id="clip151">
    <rect x="480" y="0" width="1681" height="1600"/>
  </clipPath>
</defs>
<path clip-path="url(#clip150)" d="
M262.551 1410.9 L2352.76 1410.9 L2352.76 47.2441 L262.551 47.2441  Z
  " fill="#ffffff" fill-rule="evenodd" fill-opacity="1"/>
<defs>
  <clipPath id="clip152">
    <rect x="262" y="47" width="2091" height="1365"/>
  </clipPath>
</defs>
<polyline clip-path="url(#clip152)" style="stroke:#000000; stroke-linecap:butt; stroke-linejoin:round; stroke-width:2; stroke-opacity:0.1; fill:none" points="
  814.681,1410.9 814.681,47.2441 
  "/>
<polyline clip-path="url(#clip152)" style="stroke:#000000; stroke-linecap:butt; stroke-linejoin:round; stroke-width:2; stroke-opacity:0.1; fill:none" points="
  1800.63,1410.9 1800.63,47.2441 
  "/>
<polyline clip-path="url(#clip150)" style="stroke:#000000; stroke-linecap:butt; stroke-linejoin:round; stroke-width:4; stroke-opacity:1; fill:none" points="
  262.551,1410.9 2352.76,1410.9 
  "/>
<polyline clip-path="url(#clip150)" style="stroke:#000000; stroke-linecap:butt; stroke-linejoin:round; stroke-width:4; stroke-opacity:1; fill:none" points="
  814.681,1410.9 814.681,1392 
  "/>
<polyline clip-path="url(#clip150)" style="stroke:#000000; stroke-linecap:butt; stroke-linejoin:round; stroke-width:4; stroke-opacity:1; fill:none" points="
  1800.63,1410.9 1800.63,1392 
  "/>
<path clip-path="url(#clip150)" d="M779.137 1485.02 L786.776 1485.02 L786.776 1458.66 L778.466 1460.32 L778.466 1456.06 L786.73 1454.4 L791.405 1454.4 L791.405 1485.02 L799.044 1485.02 L799.044 1488.96 L779.137 1488.96 L779.137 1485.02 Z" fill="#000000" fill-rule="evenodd" fill-opacity="1" /><path clip-path="url(#clip150)" d="M818.489 1457.48 Q814.878 1457.48 813.049 1461.04 Q811.243 1464.58 811.243 1471.71 Q811.243 1478.82 813.049 1482.38 Q814.878 1485.92 818.489 1485.92 Q822.123 1485.92 823.928 1482.38 Q825.757 1478.82 825.757 1471.71 Q825.757 1464.58 823.928 1461.04 Q822.123 1457.48 818.489 1457.48 M818.489 1453.77 Q824.299 1453.77 827.354 1458.38 Q830.433 1462.96 830.433 1471.71 Q830.433 1480.44 827.354 1485.04 Q824.299 1489.63 818.489 1489.63 Q812.678 1489.63 809.6 1485.04 Q806.544 1480.44 806.544 1471.71 Q806.544 1462.96 809.6 1458.38 Q812.678 1453.77 818.489 1453.77 Z" fill="#000000" fill-rule="evenodd" fill-opacity="1" /><path clip-path="url(#clip150)" d="M843.109 1436.78 L833.517 1451.77 L843.109 1451.77 L843.109 1436.78 M842.113 1433.47 L846.89 1433.47 L846.89 1451.77 L850.896 1451.77 L850.896 1454.93 L846.89 1454.93 L846.89 1461.55 L843.109 1461.55 L843.109 1454.93 L830.433 1454.93 L830.433 1451.26 L842.113 1433.47 Z" fill="#000000" fill-rule="evenodd" fill-opacity="1" /><path clip-path="url(#clip150)" d="M1765.62 1485.02 L1773.26 1485.02 L1773.26 1458.66 L1764.95 1460.32 L1764.95 1456.06 L1773.21 1454.4 L1777.89 1454.4 L1777.89 1485.02 L1785.53 1485.02 L1785.53 1488.96 L1765.62 1488.96 L1765.62 1485.02 Z" fill="#000000" fill-rule="evenodd" fill-opacity="1" /><path clip-path="url(#clip150)" d="M1804.97 1457.48 Q1801.36 1457.48 1799.53 1461.04 Q1797.72 1464.58 1797.72 1471.71 Q1797.72 1478.82 1799.53 1482.38 Q1801.36 1485.92 1804.97 1485.92 Q1808.6 1485.92 1810.41 1482.38 Q1812.24 1478.82 1812.24 1471.71 Q1812.24 1464.58 1810.41 1461.04 Q1808.6 1457.48 1804.97 1457.48 M1804.97 1453.77 Q1810.78 1453.77 1813.84 1458.38 Q1816.91 1462.96 1816.91 1471.71 Q1816.91 1480.44 1813.84 1485.04 Q1810.78 1489.63 1804.97 1489.63 Q1799.16 1489.63 1796.08 1485.04 Q1793.03 1480.44 1793.03 1471.71 Q1793.03 1462.96 1796.08 1458.38 Q1799.16 1453.77 1804.97 1453.77 Z" fill="#000000" fill-rule="evenodd" fill-opacity="1" /><path clip-path="url(#clip150)" d="M1826.94 1445.99 Q1824.38 1445.99 1822.88 1447.74 Q1821.39 1449.49 1821.39 1452.54 Q1821.39 1455.57 1822.88 1457.33 Q1824.38 1459.08 1826.94 1459.08 Q1829.5 1459.08 1830.98 1457.33 Q1832.49 1455.57 1832.49 1452.54 Q1832.49 1449.49 1830.98 1447.74 Q1829.5 1445.99 1826.94 1445.99 M1834.48 1434.09 L1834.48 1437.55 Q1833.05 1436.87 1831.58 1436.51 Q1830.14 1436.16 1828.71 1436.16 Q1824.95 1436.16 1822.95 1438.69 Q1820.98 1441.23 1820.69 1446.37 Q1821.8 1444.73 1823.48 1443.87 Q1825.15 1442.98 1827.16 1442.98 Q1831.4 1442.98 1833.84 1445.56 Q1836.31 1448.12 1836.31 1452.54 Q1836.31 1456.86 1833.75 1459.48 Q1831.19 1462.09 1826.94 1462.09 Q1822.07 1462.09 1819.49 1458.37 Q1816.91 1454.62 1816.91 1447.53 Q1816.91 1440.88 1820.07 1436.93 Q1823.23 1432.96 1828.56 1432.96 Q1829.99 1432.96 1831.43 1433.24 Q1832.9 1433.52 1834.48 1434.09 Z" fill="#000000" fill-rule="evenodd" fill-opacity="1" /><path clip-path="url(#clip150)" d="M1289.67 1526.67 L1298.33 1526.67 L1319.4 1566.42 L1319.4 1526.67 L1325.64 1526.67 L1325.64 1574.19 L1316.98 1574.19 L1295.91 1534.43 L1295.91 1574.19 L1289.67 1574.19 L1289.67 1526.67 Z" fill="#000000" fill-rule="evenodd" fill-opacity="1" /><polyline clip-path="url(#clip152)" style="stroke:#000000; stroke-linecap:butt; stroke-linejoin:round; stroke-width:2; stroke-opacity:0.1; fill:none" points="
  262.551,1375.29 2352.76,1375.29 
  "/>
<polyline clip-path="url(#clip152)" style="stroke:#000000; stroke-linecap:butt; stroke-linejoin:round; stroke-width:2; stroke-opacity:0.1; fill:none" points="
  262.551,1103.69 2352.76,1103.69 
  "/>
<polyline clip-path="url(#clip152)" style="stroke:#000000; stroke-linecap:butt; stroke-linejoin:round; stroke-width:2; stroke-opacity:0.1; fill:none" points="
  262.551,832.096 2352.76,832.096 
  "/>
<polyline clip-path="url(#clip152)" style="stroke:#000000; stroke-linecap:butt; stroke-linejoin:round; stroke-width:2; stroke-opacity:0.1; fill:none" points="
  262.551,560.499 2352.76,560.499 
  "/>
<polyline clip-path="url(#clip152)" style="stroke:#000000; stroke-linecap:butt; stroke-linejoin:round; stroke-width:2; stroke-opacity:0.1; fill:none" points="
  262.551,288.902 2352.76,288.902 
  "/>
<polyline clip-path="url(#clip150)" style="stroke:#000000; stroke-linecap:butt; stroke-linejoin:round; stroke-width:4; stroke-opacity:1; fill:none" points="
  262.551,1410.9 262.551,47.2441 
  "/>
<polyline clip-path="url(#clip150)" style="stroke:#000000; stroke-linecap:butt; stroke-linejoin:round; stroke-width:4; stroke-opacity:1; fill:none" points="
  262.551,1375.29 281.449,1375.29 
  "/>
<polyline clip-path="url(#clip150)" style="stroke:#000000; stroke-linecap:butt; stroke-linejoin:round; stroke-width:4; stroke-opacity:1; fill:none" points="
  262.551,1103.69 281.449,1103.69 
  "/>
<polyline clip-path="url(#clip150)" style="stroke:#000000; stroke-linecap:butt; stroke-linejoin:round; stroke-width:4; stroke-opacity:1; fill:none" points="
  262.551,832.096 281.449,832.096 
  "/>
<polyline clip-path="url(#clip150)" style="stroke:#000000; stroke-linecap:butt; stroke-linejoin:round; stroke-width:4; stroke-opacity:1; fill:none" points="
  262.551,560.499 281.449,560.499 
  "/>
<polyline clip-path="url(#clip150)" style="stroke:#000000; stroke-linecap:butt; stroke-linejoin:round; stroke-width:4; stroke-opacity:1; fill:none" points="
  262.551,288.902 281.449,288.902 
  "/>
<path clip-path="url(#clip150)" d="M214.607 1361.09 Q210.996 1361.09 209.167 1364.65 Q207.362 1368.2 207.362 1375.32 Q207.362 1382.43 209.167 1386 Q210.996 1389.54 214.607 1389.54 Q218.241 1389.54 220.047 1386 Q221.875 1382.43 221.875 1375.32 Q221.875 1368.2 220.047 1364.65 Q218.241 1361.09 214.607 1361.09 M214.607 1357.39 Q220.417 1357.39 223.473 1361.99 Q226.551 1366.58 226.551 1375.32 Q226.551 1384.05 223.473 1388.66 Q220.417 1393.24 214.607 1393.24 Q208.797 1393.24 205.718 1388.66 Q202.662 1384.05 202.662 1375.32 Q202.662 1366.58 205.718 1361.99 Q208.797 1357.39 214.607 1357.39 Z" fill="#000000" fill-rule="evenodd" fill-opacity="1" /><path clip-path="url(#clip150)" d="M158.45 1102.34 Q161.806 1103.06 163.681 1105.33 Q165.579 1107.59 165.579 1110.93 Q165.579 1116.04 162.061 1118.84 Q158.542 1121.64 152.061 1121.64 Q149.885 1121.64 147.57 1121.2 Q145.279 1120.79 142.825 1119.93 L142.825 1115.42 Q144.769 1116.55 147.084 1117.13 Q149.399 1117.71 151.922 1117.71 Q156.32 1117.71 158.612 1115.97 Q160.927 1114.24 160.927 1110.93 Q160.927 1107.87 158.774 1106.16 Q156.644 1104.42 152.825 1104.42 L148.797 1104.42 L148.797 1100.58 L153.01 1100.58 Q156.459 1100.58 158.288 1099.21 Q160.116 1097.83 160.116 1095.23 Q160.116 1092.57 158.218 1091.16 Q156.343 1089.72 152.825 1089.72 Q150.903 1089.72 148.704 1090.14 Q146.505 1090.56 143.866 1091.44 L143.866 1087.27 Q146.529 1086.53 148.843 1086.16 Q151.181 1085.79 153.241 1085.79 Q158.565 1085.79 161.667 1088.22 Q164.769 1090.63 164.769 1094.75 Q164.769 1097.62 163.126 1099.61 Q161.482 1101.58 158.45 1102.34 Z" fill="#000000" fill-rule="evenodd" fill-opacity="1" /><path clip-path="url(#clip150)" d="M184.445 1089.49 Q180.834 1089.49 179.005 1093.06 Q177.2 1096.6 177.2 1103.73 Q177.2 1110.83 179.005 1114.4 Q180.834 1117.94 184.445 1117.94 Q188.079 1117.94 189.885 1114.4 Q191.713 1110.83 191.713 1103.73 Q191.713 1096.6 189.885 1093.06 Q188.079 1089.49 184.445 1089.49 M184.445 1085.79 Q190.255 1085.79 193.311 1090.39 Q196.389 1094.98 196.389 1103.73 Q196.389 1112.45 193.311 1117.06 Q190.255 1121.64 184.445 1121.64 Q178.635 1121.64 175.556 1117.06 Q172.501 1112.45 172.501 1103.73 Q172.501 1094.98 175.556 1090.39 Q178.635 1085.79 184.445 1085.79 Z" fill="#000000" fill-rule="evenodd" fill-opacity="1" /><path clip-path="url(#clip150)" d="M214.607 1089.49 Q210.996 1089.49 209.167 1093.06 Q207.362 1096.6 207.362 1103.73 Q207.362 1110.83 209.167 1114.4 Q210.996 1117.94 214.607 1117.94 Q218.241 1117.94 220.047 1114.4 Q221.875 1110.83 221.875 1103.73 Q221.875 1096.6 220.047 1093.06 Q218.241 1089.49 214.607 1089.49 M214.607 1085.79 Q220.417 1085.79 223.473 1090.39 Q226.551 1094.98 226.551 1103.73 Q226.551 1112.45 223.473 1117.06 Q220.417 1121.64 214.607 1121.64 Q208.797 1121.64 205.718 1117.06 Q202.662 1112.45 202.662 1103.73 Q202.662 1094.98 205.718 1090.39 Q208.797 1085.79 214.607 1085.79 Z" fill="#000000" fill-rule="evenodd" fill-opacity="1" /><path clip-path="url(#clip150)" d="M154.862 830.233 Q151.714 830.233 149.862 832.386 Q148.033 834.538 148.033 838.288 Q148.033 842.015 149.862 844.191 Q151.714 846.344 154.862 846.344 Q158.01 846.344 159.839 844.191 Q161.69 842.015 161.69 838.288 Q161.69 834.538 159.839 832.386 Q158.01 830.233 154.862 830.233 M164.144 815.58 L164.144 819.839 Q162.385 819.006 160.579 818.566 Q158.797 818.126 157.038 818.126 Q152.408 818.126 149.954 821.251 Q147.524 824.376 147.177 830.696 Q148.542 828.682 150.603 827.617 Q152.663 826.529 155.14 826.529 Q160.348 826.529 163.357 829.7 Q166.39 832.848 166.39 838.288 Q166.39 843.612 163.241 846.83 Q160.093 850.047 154.862 850.047 Q148.866 850.047 145.695 845.464 Q142.524 840.858 142.524 832.131 Q142.524 823.937 146.413 819.075 Q150.302 814.191 156.853 814.191 Q158.612 814.191 160.394 814.538 Q162.2 814.886 164.144 815.58 Z" fill="#000000" fill-rule="evenodd" fill-opacity="1" /><path clip-path="url(#clip150)" d="M184.445 817.895 Q180.834 817.895 179.005 821.46 Q177.2 825.001 177.2 832.131 Q177.2 839.237 179.005 842.802 Q180.834 846.344 184.445 846.344 Q188.079 846.344 189.885 842.802 Q191.713 839.237 191.713 832.131 Q191.713 825.001 189.885 821.46 Q188.079 817.895 184.445 817.895 M184.445 814.191 Q190.255 814.191 193.311 818.798 Q196.389 823.381 196.389 832.131 Q196.389 840.858 193.311 845.464 Q190.255 850.047 184.445 850.047 Q178.635 850.047 175.556 845.464 Q172.501 840.858 172.501 832.131 Q172.501 823.381 175.556 818.798 Q178.635 814.191 184.445 814.191 Z" fill="#000000" fill-rule="evenodd" fill-opacity="1" /><path clip-path="url(#clip150)" d="M214.607 817.895 Q210.996 817.895 209.167 821.46 Q207.362 825.001 207.362 832.131 Q207.362 839.237 209.167 842.802 Q210.996 846.344 214.607 846.344 Q218.241 846.344 220.047 842.802 Q221.875 839.237 221.875 832.131 Q221.875 825.001 220.047 821.46 Q218.241 817.895 214.607 817.895 M214.607 814.191 Q220.417 814.191 223.473 818.798 Q226.551 823.381 226.551 832.131 Q226.551 840.858 223.473 845.464 Q220.417 850.047 214.607 850.047 Q208.797 850.047 205.718 845.464 Q202.662 840.858 202.662 832.131 Q202.662 823.381 205.718 818.798 Q208.797 814.191 214.607 814.191 Z" fill="#000000" fill-rule="evenodd" fill-opacity="1" /><path clip-path="url(#clip150)" d="M144.422 577.062 L144.422 572.802 Q146.181 573.636 147.987 574.075 Q149.792 574.515 151.528 574.515 Q156.158 574.515 158.589 571.413 Q161.042 568.288 161.39 561.946 Q160.047 563.937 157.987 565.001 Q155.927 566.066 153.427 566.066 Q148.241 566.066 145.209 562.941 Q142.2 559.793 142.2 554.353 Q142.2 549.029 145.348 545.812 Q148.496 542.594 153.728 542.594 Q159.723 542.594 162.871 547.201 Q166.042 551.784 166.042 560.534 Q166.042 568.705 162.153 573.589 Q158.288 578.45 151.737 578.45 Q149.978 578.45 148.172 578.103 Q146.366 577.756 144.422 577.062 M153.728 562.409 Q156.876 562.409 158.704 560.256 Q160.556 558.103 160.556 554.353 Q160.556 550.627 158.704 548.474 Q156.876 546.298 153.728 546.298 Q150.579 546.298 148.728 548.474 Q146.899 550.627 146.899 554.353 Q146.899 558.103 148.728 560.256 Q150.579 562.409 153.728 562.409 Z" fill="#000000" fill-rule="evenodd" fill-opacity="1" /><path clip-path="url(#clip150)" d="M184.445 546.298 Q180.834 546.298 179.005 549.863 Q177.2 553.404 177.2 560.534 Q177.2 567.64 179.005 571.205 Q180.834 574.747 184.445 574.747 Q188.079 574.747 189.885 571.205 Q191.713 567.64 191.713 560.534 Q191.713 553.404 189.885 549.863 Q188.079 546.298 184.445 546.298 M184.445 542.594 Q190.255 542.594 193.311 547.201 Q196.389 551.784 196.389 560.534 Q196.389 569.261 193.311 573.867 Q190.255 578.45 184.445 578.45 Q178.635 578.45 175.556 573.867 Q172.501 569.261 172.501 560.534 Q172.501 551.784 175.556 547.201 Q178.635 542.594 184.445 542.594 Z" fill="#000000" fill-rule="evenodd" fill-opacity="1" /><path clip-path="url(#clip150)" d="M214.607 546.298 Q210.996 546.298 209.167 549.863 Q207.362 553.404 207.362 560.534 Q207.362 567.64 209.167 571.205 Q210.996 574.747 214.607 574.747 Q218.241 574.747 220.047 571.205 Q221.875 567.64 221.875 560.534 Q221.875 553.404 220.047 549.863 Q218.241 546.298 214.607 546.298 M214.607 542.594 Q220.417 542.594 223.473 547.201 Q226.551 551.784 226.551 560.534 Q226.551 569.261 223.473 573.867 Q220.417 578.45 214.607 578.45 Q208.797 578.45 205.718 573.867 Q202.662 569.261 202.662 560.534 Q202.662 551.784 205.718 547.201 Q208.797 542.594 214.607 542.594 Z" fill="#000000" fill-rule="evenodd" fill-opacity="1" /><path clip-path="url(#clip150)" d="M114.931 302.247 L122.57 302.247 L122.57 275.881 L114.26 277.548 L114.26 273.289 L122.524 271.622 L127.2 271.622 L127.2 302.247 L134.839 302.247 L134.839 306.182 L114.931 306.182 L114.931 302.247 Z" fill="#000000" fill-rule="evenodd" fill-opacity="1" /><path clip-path="url(#clip150)" d="M148.311 302.247 L164.63 302.247 L164.63 306.182 L142.686 306.182 L142.686 302.247 Q145.348 299.492 149.931 294.863 Q154.538 290.21 155.718 288.867 Q157.964 286.344 158.843 284.608 Q159.746 282.849 159.746 281.159 Q159.746 278.404 157.802 276.668 Q155.88 274.932 152.778 274.932 Q150.579 274.932 148.126 275.696 Q145.695 276.46 142.917 278.011 L142.917 273.289 Q145.741 272.154 148.195 271.576 Q150.649 270.997 152.686 270.997 Q158.056 270.997 161.251 273.682 Q164.445 276.367 164.445 280.858 Q164.445 282.988 163.635 284.909 Q162.848 286.807 160.741 289.4 Q160.163 290.071 157.061 293.289 Q153.959 296.483 148.311 302.247 Z" fill="#000000" fill-rule="evenodd" fill-opacity="1" /><path clip-path="url(#clip150)" d="M184.445 274.701 Q180.834 274.701 179.005 278.266 Q177.2 281.807 177.2 288.937 Q177.2 296.043 179.005 299.608 Q180.834 303.15 184.445 303.15 Q188.079 303.15 189.885 299.608 Q191.713 296.043 191.713 288.937 Q191.713 281.807 189.885 278.266 Q188.079 274.701 184.445 274.701 M184.445 270.997 Q190.255 270.997 193.311 275.604 Q196.389 280.187 196.389 288.937 Q196.389 297.664 193.311 302.27 Q190.255 306.853 184.445 306.853 Q178.635 306.853 175.556 302.27 Q172.501 297.664 172.501 288.937 Q172.501 280.187 175.556 275.604 Q178.635 270.997 184.445 270.997 Z" fill="#000000" fill-rule="evenodd" fill-opacity="1" /><path clip-path="url(#clip150)" d="M214.607 274.701 Q210.996 274.701 209.167 278.266 Q207.362 281.807 207.362 288.937 Q207.362 296.043 209.167 299.608 Q210.996 303.15 214.607 303.15 Q218.241 303.15 220.047 299.608 Q221.875 296.043 221.875 288.937 Q221.875 281.807 220.047 278.266 Q218.241 274.701 214.607 274.701 M214.607 270.997 Q220.417 270.997 223.473 275.604 Q226.551 280.187 226.551 288.937 Q226.551 297.664 223.473 302.27 Q220.417 306.853 214.607 306.853 Q208.797 306.853 205.718 302.27 Q202.662 297.664 202.662 288.937 Q202.662 280.187 205.718 275.604 Q208.797 270.997 214.607 270.997 Z" fill="#000000" fill-rule="evenodd" fill-opacity="1" /><path clip-path="url(#clip150)" d="M32.4621 1022.02 Q32.4621 1026.73 36.1542 1029.47 Q39.8145 1032.21 46.212 1032.21 Q52.6095 1032.21 56.3017 1029.5 Q59.9619 1026.76 59.9619 1022.02 Q59.9619 1017.34 56.2698 1014.6 Q52.5777 1011.87 46.212 1011.87 Q39.8781 1011.87 36.186 1014.6 Q32.4621 1017.34 32.4621 1022.02 M27.4968 1022.02 Q27.4968 1014.38 32.4621 1010.02 Q37.4273 1005.66 46.212 1005.66 Q54.9649 1005.66 59.9619 1010.02 Q64.9272 1014.38 64.9272 1022.02 Q64.9272 1029.69 59.9619 1034.05 Q54.9649 1038.38 46.212 1038.38 Q37.4273 1038.38 32.4621 1034.05 Q27.4968 1029.69 27.4968 1022.02 Z" fill="#000000" fill-rule="evenodd" fill-opacity="1" /><path clip-path="url(#clip150)" d="M58.657 990.287 L77.5631 990.287 L77.5631 996.175 L28.3562 996.175 L28.3562 990.287 L33.7671 990.287 Q30.5842 988.441 29.0564 985.64 Q27.4968 982.807 27.4968 978.893 Q27.4968 972.4 32.6531 968.357 Q37.8093 964.283 46.212 964.283 Q54.6147 964.283 59.771 968.357 Q64.9272 972.4 64.9272 978.893 Q64.9272 982.807 63.3994 985.64 Q61.8398 988.441 58.657 990.287 M46.212 970.362 Q39.7508 970.362 36.0905 973.036 Q32.3984 975.678 32.3984 980.325 Q32.3984 984.972 36.0905 987.645 Q39.7508 990.287 46.212 990.287 Q52.6732 990.287 56.3653 987.645 Q60.0256 984.972 60.0256 980.325 Q60.0256 975.678 56.3653 973.036 Q52.6732 970.362 46.212 970.362 Z" fill="#000000" fill-rule="evenodd" fill-opacity="1" /><path clip-path="url(#clip150)" d="M44.7161 924.084 L47.5806 924.084 L47.5806 951.011 Q53.6281 950.629 56.8109 947.382 Q59.9619 944.104 59.9619 938.279 Q59.9619 934.905 59.1344 931.754 Q58.3069 928.572 56.6518 925.452 L62.1899 925.452 Q63.5267 928.603 64.227 931.914 Q64.9272 935.224 64.9272 938.629 Q64.9272 947.159 59.9619 952.157 Q54.9967 957.122 46.5303 957.122 Q37.7774 957.122 32.6531 952.411 Q27.4968 947.669 27.4968 939.648 Q27.4968 932.455 32.1438 928.285 Q36.7589 924.084 44.7161 924.084 M42.9973 929.94 Q38.1912 930.004 35.3266 932.646 Q32.4621 935.256 32.4621 939.584 Q32.4621 944.486 35.2312 947.446 Q38.0002 950.374 43.0292 950.82 L42.9973 929.94 Z" fill="#000000" fill-rule="evenodd" fill-opacity="1" /><path clip-path="url(#clip150)" d="M33.8307 893.815 Q33.2578 894.802 33.0032 895.979 Q32.7167 897.125 32.7167 898.525 Q32.7167 903.491 35.9632 906.164 Q39.1779 908.806 45.2253 908.806 L64.0042 908.806 L64.0042 914.694 L28.3562 914.694 L28.3562 908.806 L33.8944 908.806 Q30.6479 906.96 29.0883 904 Q27.4968 901.04 27.4968 896.807 Q27.4968 896.202 27.5923 895.47 Q27.656 894.738 27.8151 893.847 L33.8307 893.815 Z" fill="#000000" fill-rule="evenodd" fill-opacity="1" /><path clip-path="url(#clip150)" d="M46.0847 871.471 Q46.0847 878.569 47.7079 881.306 Q49.3312 884.043 53.2461 884.043 Q56.3653 884.043 58.2114 882.006 Q60.0256 879.938 60.0256 876.405 Q60.0256 871.535 56.5881 868.607 Q53.1188 865.647 47.3897 865.647 L46.0847 865.647 L46.0847 871.471 M43.6657 859.79 L64.0042 859.79 L64.0042 865.647 L58.5933 865.647 Q61.8398 867.652 63.3994 870.644 Q64.9272 873.636 64.9272 877.964 Q64.9272 883.439 61.8716 886.685 Q58.7843 889.9 53.6281 889.9 Q47.6125 889.9 44.5569 885.89 Q41.5014 881.847 41.5014 873.858 L41.5014 865.647 L40.9285 865.647 Q36.8862 865.647 34.6901 868.32 Q32.4621 870.962 32.4621 875.768 Q32.4621 878.824 33.1941 881.72 Q33.9262 884.616 35.3903 887.29 L29.9795 887.29 Q28.7381 884.075 28.1334 881.052 Q27.4968 878.028 27.4968 875.163 Q27.4968 867.429 31.5072 863.61 Q35.5176 859.79 43.6657 859.79 Z" fill="#000000" fill-rule="evenodd" fill-opacity="1" /><path clip-path="url(#clip150)" d="M18.2347 841.934 L28.3562 841.934 L28.3562 829.871 L32.9077 829.871 L32.9077 841.934 L52.2594 841.934 Q56.6199 841.934 57.8613 840.757 Q59.1026 839.547 59.1026 835.887 L59.1026 829.871 L64.0042 829.871 L64.0042 835.887 Q64.0042 842.666 61.4897 845.245 Q58.9434 847.823 52.2594 847.823 L32.9077 847.823 L32.9077 852.119 L28.3562 852.119 L28.3562 847.823 L18.2347 847.823 L18.2347 841.934 Z" fill="#000000" fill-rule="evenodd" fill-opacity="1" /><path clip-path="url(#clip150)" d="M28.3562 822.169 L28.3562 816.312 L64.0042 816.312 L64.0042 822.169 L28.3562 822.169 M14.479 822.169 L14.479 816.312 L21.895 816.312 L21.895 822.169 L14.479 822.169 Z" fill="#000000" fill-rule="evenodd" fill-opacity="1" /><path clip-path="url(#clip150)" d="M32.4621 790.245 Q32.4621 794.955 36.1542 797.693 Q39.8145 800.43 46.212 800.43 Q52.6095 800.43 56.3017 797.725 Q59.9619 794.987 59.9619 790.245 Q59.9619 785.566 56.2698 782.829 Q52.5777 780.092 46.212 780.092 Q39.8781 780.092 36.186 782.829 Q32.4621 785.566 32.4621 790.245 M27.4968 790.245 Q27.4968 782.606 32.4621 778.245 Q37.4273 773.885 46.212 773.885 Q54.9649 773.885 59.9619 778.245 Q64.9272 782.606 64.9272 790.245 Q64.9272 797.915 59.9619 802.276 Q54.9649 806.605 46.212 806.605 Q37.4273 806.605 32.4621 802.276 Q27.4968 797.915 27.4968 790.245 Z" fill="#000000" fill-rule="evenodd" fill-opacity="1" /><path clip-path="url(#clip150)" d="M42.4881 734.545 L64.0042 734.545 L64.0042 740.401 L42.679 740.401 Q37.6183 740.401 35.1038 742.375 Q32.5894 744.348 32.5894 748.295 Q32.5894 753.037 35.6131 755.775 Q38.6368 758.512 43.8567 758.512 L64.0042 758.512 L64.0042 764.4 L28.3562 764.4 L28.3562 758.512 L33.8944 758.512 Q30.6797 756.411 29.0883 753.578 Q27.4968 750.714 27.4968 746.99 Q27.4968 740.847 31.3163 737.696 Q35.1038 734.545 42.4881 734.545 Z" fill="#000000" fill-rule="evenodd" fill-opacity="1" /><path clip-path="url(#clip150)" d="M18.2347 696.351 L28.3562 696.351 L28.3562 684.288 L32.9077 684.288 L32.9077 696.351 L52.2594 696.351 Q56.6199 696.351 57.8613 695.173 Q59.1026 693.963 59.1026 690.303 L59.1026 684.288 L64.0042 684.288 L64.0042 690.303 Q64.0042 697.083 61.4897 699.661 Q58.9434 702.239 52.2594 702.239 L32.9077 702.239 L32.9077 706.536 L28.3562 706.536 L28.3562 702.239 L18.2347 702.239 L18.2347 696.351 Z" fill="#000000" fill-rule="evenodd" fill-opacity="1" /><path clip-path="url(#clip150)" d="M28.3562 676.585 L28.3562 670.729 L64.0042 670.729 L64.0042 676.585 L28.3562 676.585 M14.479 676.585 L14.479 670.729 L21.895 670.729 L21.895 676.585 L14.479 676.585 Z" fill="#000000" fill-rule="evenodd" fill-opacity="1" /><path clip-path="url(#clip150)" d="M35.1993 630.72 Q31.2526 628.524 29.3747 625.468 Q27.4968 622.413 27.4968 618.275 Q27.4968 612.705 31.4117 609.682 Q35.2948 606.658 42.4881 606.658 L64.0042 606.658 L64.0042 612.546 L42.679 612.546 Q37.5546 612.546 35.072 614.36 Q32.5894 616.175 32.5894 619.898 Q32.5894 624.45 35.6131 627.092 Q38.6368 629.734 43.8567 629.734 L64.0042 629.734 L64.0042 635.622 L42.679 635.622 Q37.5228 635.622 35.072 637.436 Q32.5894 639.25 32.5894 643.038 Q32.5894 647.526 35.6449 650.167 Q38.6686 652.809 43.8567 652.809 L64.0042 652.809 L64.0042 658.697 L28.3562 658.697 L28.3562 652.809 L33.8944 652.809 Q30.616 650.804 29.0564 648.003 Q27.4968 645.202 27.4968 641.351 Q27.4968 637.468 29.4702 634.762 Q31.4436 632.025 35.1993 630.72 Z" fill="#000000" fill-rule="evenodd" fill-opacity="1" /><path clip-path="url(#clip150)" d="M44.7161 564.485 L47.5806 564.485 L47.5806 591.412 Q53.6281 591.03 56.8109 587.784 Q59.9619 584.505 59.9619 578.681 Q59.9619 575.307 59.1344 572.156 Q58.3069 568.973 56.6518 565.854 L62.1899 565.854 Q63.5267 569.005 64.227 572.315 Q64.9272 575.625 64.9272 579.031 Q64.9272 587.561 59.9619 592.558 Q54.9967 597.523 46.5303 597.523 Q37.7774 597.523 32.6531 592.812 Q27.4968 588.07 27.4968 580.049 Q27.4968 572.856 32.1438 568.686 Q36.7589 564.485 44.7161 564.485 M42.9973 570.341 Q38.1912 570.405 35.3266 573.047 Q32.4621 575.657 32.4621 579.986 Q32.4621 584.887 35.2312 587.847 Q38.0002 590.775 43.0292 591.221 L42.9973 570.341 Z" fill="#000000" fill-rule="evenodd" fill-opacity="1" /><path clip-path="url(#clip150)" d="M14.479 534.694 L14.479 521.198 L19.0304 521.198 L19.0304 528.837 L68.0464 528.837 L68.0464 521.198 L72.5979 521.198 L72.5979 534.694 L14.479 534.694 Z" fill="#000000" fill-rule="evenodd" fill-opacity="1" /><path clip-path="url(#clip150)" d="M49.9359 509.326 L28.3562 509.326 L28.3562 503.47 L49.7131 503.47 Q54.7739 503.47 57.3202 501.496 Q59.8346 499.523 59.8346 495.576 Q59.8346 490.834 56.8109 488.097 Q53.7872 485.327 48.5673 485.327 L28.3562 485.327 L28.3562 479.471 L64.0042 479.471 L64.0042 485.327 L58.5296 485.327 Q61.7762 487.46 63.3676 490.293 Q64.9272 493.094 64.9272 496.818 Q64.9272 502.96 61.1078 506.143 Q57.2883 509.326 49.9359 509.326 M27.4968 494.59 L27.4968 494.59 Z" fill="#000000" fill-rule="evenodd" fill-opacity="1" /><path clip-path="url(#clip150)" d="M29.4065 444.682 L34.9447 444.682 Q33.6716 447.165 33.035 449.839 Q32.3984 452.512 32.3984 455.377 Q32.3984 459.737 33.7352 461.933 Q35.072 464.098 37.7456 464.098 Q39.7826 464.098 40.9603 462.538 Q42.1061 460.979 43.1565 456.268 L43.6021 454.263 Q44.9389 448.024 47.3897 445.414 Q49.8086 442.773 54.1691 442.773 Q59.1344 442.773 62.0308 446.719 Q64.9272 450.634 64.9272 457.509 Q64.9272 460.374 64.3543 463.493 Q63.8132 466.58 62.6992 470.018 L56.6518 470.018 Q58.3387 466.771 59.198 463.62 Q60.0256 460.469 60.0256 457.382 Q60.0256 453.244 58.6251 451.016 Q57.1929 448.788 54.6147 448.788 Q52.2276 448.788 50.9545 450.412 Q49.6813 452.003 48.5037 457.446 L48.0262 459.483 Q46.8804 464.925 44.5251 467.344 Q42.138 469.763 38.0002 469.763 Q32.9713 469.763 30.2341 466.199 Q27.4968 462.634 27.4968 456.077 Q27.4968 452.831 27.9743 449.966 Q28.4517 447.101 29.4065 444.682 Z" fill="#000000" fill-rule="evenodd" fill-opacity="1" /><path clip-path="url(#clip150)" d="M14.479 419.761 L72.5979 419.761 L72.5979 433.256 L68.0464 433.256 L68.0464 425.649 L19.0304 425.649 L19.0304 433.256 L14.479 433.256 L14.479 419.761 Z" fill="#000000" fill-rule="evenodd" fill-opacity="1" /><polyline clip-path="url(#clip152)" style="stroke:#009af9; stroke-linecap:butt; stroke-linejoin:round; stroke-width:4; stroke-opacity:1; fill:none" points="
  321.708,1334.37 814.681,1268.01 1159.25,1212.69 1307.65,1180.74 1652.23,983.919 1800.63,717.754 2145.2,374.093 2293.6,85.838 
  "/>
<path clip-path="url(#clip152)" d="M321.708 1318.37 L305.708 1334.37 L321.708 1350.37 L337.708 1334.37 L321.708 1318.37 Z" fill="#009af9" fill-rule="evenodd" fill-opacity="1" stroke="#000000" stroke-opacity="1" stroke-width="3.2"/>
<path clip-path="url(#clip152)" d="M814.681 1252.01 L798.681 1268.01 L814.681 1284.01 L830.681 1268.01 L814.681 1252.01 Z" fill="#009af9" fill-rule="evenodd" fill-opacity="1" stroke="#000000" stroke-opacity="1" stroke-width="3.2"/>
<path clip-path="url(#clip152)" d="M1159.25 1196.69 L1143.25 1212.69 L1159.25 1228.69 L1175.25 1212.69 L1159.25 1196.69 Z" fill="#009af9" fill-rule="evenodd" fill-opacity="1" stroke="#000000" stroke-opacity="1" stroke-width="3.2"/>
<path clip-path="url(#clip152)" d="M1307.65 1164.74 L1291.65 1180.74 L1307.65 1196.74 L1323.65 1180.74 L1307.65 1164.74 Z" fill="#009af9" fill-rule="evenodd" fill-opacity="1" stroke="#000000" stroke-opacity="1" stroke-width="3.2"/>
<path clip-path="url(#clip152)" d="M1652.23 967.919 L1636.23 983.919 L1652.23 999.919 L1668.23 983.919 L1652.23 967.919 Z" fill="#009af9" fill-rule="evenodd" fill-opacity="1" stroke="#000000" stroke-opacity="1" stroke-width="3.2"/>
<path clip-path="url(#clip152)" d="M1800.63 701.754 L1784.63 717.754 L1800.63 733.754 L1816.63 717.754 L1800.63 701.754 Z" fill="#009af9" fill-rule="evenodd" fill-opacity="1" stroke="#000000" stroke-opacity="1" stroke-width="3.2"/>
<path clip-path="url(#clip152)" d="M2145.2 358.093 L2129.2 374.093 L2145.2 390.093 L2161.2 374.093 L2145.2 358.093 Z" fill="#009af9" fill-rule="evenodd" fill-opacity="1" stroke="#000000" stroke-opacity="1" stroke-width="3.2"/>
<path clip-path="url(#clip152)" d="M2293.6 69.838 L2277.6 85.838 L2293.6 101.838 L2309.6 85.838 L2293.6 69.838 Z" fill="#009af9" fill-rule="evenodd" fill-opacity="1" stroke="#000000" stroke-opacity="1" stroke-width="3.2"/>
<polyline clip-path="url(#clip152)" style="stroke:#e26f46; stroke-linecap:butt; stroke-linejoin:round; stroke-width:4; stroke-opacity:1; fill:none" points="
  321.708,1338.35 814.681,1308.02 1159.25,1300.69 1307.65,1295.53 1652.23,1246.1 1800.63,1216.68 2145.2,1160.46 2293.6,1152.67 
  "/>
<path clip-path="url(#clip152)" d="M321.708 1322.35 L305.708 1354.35 L337.708 1354.35 L321.708 1322.35 Z" fill="#e26f46" fill-rule="evenodd" fill-opacity="1" stroke="#000000" stroke-opacity="1" stroke-width="3.2"/>
<path clip-path="url(#clip152)" d="M814.681 1292.02 L798.681 1324.02 L830.681 1324.02 L814.681 1292.02 Z" fill="#e26f46" fill-rule="evenodd" fill-opacity="1" stroke="#000000" stroke-opacity="1" stroke-width="3.2"/>
<path clip-path="url(#clip152)" d="M1159.25 1284.69 L1143.25 1316.69 L1175.25 1316.69 L1159.25 1284.69 Z" fill="#e26f46" fill-rule="evenodd" fill-opacity="1" stroke="#000000" stroke-opacity="1" stroke-width="3.2"/>
<path clip-path="url(#clip152)" d="M1307.65 1279.53 L1291.65 1311.53 L1323.65 1311.53 L1307.65 1279.53 Z" fill="#e26f46" fill-rule="evenodd" fill-opacity="1" stroke="#000000" stroke-opacity="1" stroke-width="3.2"/>
<path clip-path="url(#clip152)" d="M1652.23 1230.1 L1636.23 1262.1 L1668.23 1262.1 L1652.23 1230.1 Z" fill="#e26f46" fill-rule="evenodd" fill-opacity="1" stroke="#000000" stroke-opacity="1" stroke-width="3.2"/>
<path clip-path="url(#clip152)" d="M1800.63 1200.68 L1784.63 1232.68 L1816.63 1232.68 L1800.63 1200.68 Z" fill="#e26f46" fill-rule="evenodd" fill-opacity="1" stroke="#000000" stroke-opacity="1" stroke-width="3.2"/>
<path clip-path="url(#clip152)" d="M2145.2 1144.46 L2129.2 1176.46 L2161.2 1176.46 L2145.2 1144.46 Z" fill="#e26f46" fill-rule="evenodd" fill-opacity="1" stroke="#000000" stroke-opacity="1" stroke-width="3.2"/>
<path clip-path="url(#clip152)" d="M2293.6 1136.67 L2277.6 1168.67 L2309.6 1168.67 L2293.6 1136.67 Z" fill="#e26f46" fill-rule="evenodd" fill-opacity="1" stroke="#000000" stroke-opacity="1" stroke-width="3.2"/>
<polyline clip-path="url(#clip152)" style="stroke:#3da44d; stroke-linecap:butt; stroke-linejoin:round; stroke-width:4; stroke-opacity:1; fill:none" points="
  321.708,1372.12 814.681,1372.3 1159.25,1372.3 1307.65,1372.12 1652.23,1372.12 1800.63,1371.85 2145.2,1371.67 2293.6,1371.67 
  "/>
<path clip-path="url(#clip152)" d="M337.708 1356.12 L305.708 1356.12 L321.708 1388.12 L337.708 1356.12 Z" fill="#3da44d" fill-rule="evenodd" fill-opacity="1" stroke="#000000" stroke-opacity="1" stroke-width="3.2"/>
<path clip-path="url(#clip152)" d="M830.681 1356.3 L798.681 1356.3 L814.681 1388.3 L830.681 1356.3 Z" fill="#3da44d" fill-rule="evenodd" fill-opacity="1" stroke="#000000" stroke-opacity="1" stroke-width="3.2"/>
<path clip-path="url(#clip152)" d="M1175.25 1356.3 L1143.25 1356.3 L1159.25 1388.3 L1175.25 1356.3 Z" fill="#3da44d" fill-rule="evenodd" fill-opacity="1" stroke="#000000" stroke-opacity="1" stroke-width="3.2"/>
<path clip-path="url(#clip152)" d="M1323.65 1356.12 L1291.65 1356.12 L1307.65 1388.12 L1323.65 1356.12 Z" fill="#3da44d" fill-rule="evenodd" fill-opacity="1" stroke="#000000" stroke-opacity="1" stroke-width="3.2"/>
<path clip-path="url(#clip152)" d="M1668.23 1356.12 L1636.23 1356.12 L1652.23 1388.12 L1668.23 1356.12 Z" fill="#3da44d" fill-rule="evenodd" fill-opacity="1" stroke="#000000" stroke-opacity="1" stroke-width="3.2"/>
<path clip-path="url(#clip152)" d="M1816.63 1355.85 L1784.63 1355.85 L1800.63 1387.85 L1816.63 1355.85 Z" fill="#3da44d" fill-rule="evenodd" fill-opacity="1" stroke="#000000" stroke-opacity="1" stroke-width="3.2"/>
<path clip-path="url(#clip152)" d="M2161.2 1355.67 L2129.2 1355.67 L2145.2 1387.67 L2161.2 1355.67 Z" fill="#3da44d" fill-rule="evenodd" fill-opacity="1" stroke="#000000" stroke-opacity="1" stroke-width="3.2"/>
<path clip-path="url(#clip152)" d="M2309.6 1355.67 L2277.6 1355.67 L2293.6 1387.67 L2309.6 1355.67 Z" fill="#3da44d" fill-rule="evenodd" fill-opacity="1" stroke="#000000" stroke-opacity="1" stroke-width="3.2"/>
<path clip-path="url(#clip150)" d="
M332.225 300.059 L714.724 300.059 L714.724 92.6992 L332.225 92.6992  Z
  " fill="#ffffff" fill-rule="evenodd" fill-opacity="1"/>
<polyline clip-path="url(#clip150)" style="stroke:#000000; stroke-linecap:butt; stroke-linejoin:round; stroke-width:4; stroke-opacity:1; fill:none" points="
  332.225,300.059 714.724,300.059 714.724,92.6992 332.225,92.6992 332.225,300.059 
  "/>
<polyline clip-path="url(#clip150)" style="stroke:#009af9; stroke-linecap:butt; stroke-linejoin:round; stroke-width:4; stroke-opacity:1; fill:none" points="
  355.449,144.539 494.796,144.539 
  "/>
<path clip-path="url(#clip150)" d="M425.123 118.939 L399.523 144.539 L425.123 170.139 L450.723 144.539 L425.123 118.939 Z" fill="#009af9" fill-rule="evenodd" fill-opacity="1" stroke="#000000" stroke-opacity="1" stroke-width="5.12"/>
<path clip-path="url(#clip150)" d="M518.021 135.893 L522.28 135.893 L522.28 161.819 L518.021 161.819 L518.021 135.893 M518.021 125.801 L522.28 125.801 L522.28 131.194 L518.021 131.194 L518.021 125.801 Z" fill="#000000" fill-rule="evenodd" fill-opacity="1" /><path clip-path="url(#clip150)" d="M552.743 146.171 L552.743 161.819 L548.483 161.819 L548.483 146.31 Q548.483 142.629 547.048 140.801 Q545.613 138.972 542.743 138.972 Q539.294 138.972 537.303 141.171 Q535.312 143.37 535.312 147.166 L535.312 161.819 L531.03 161.819 L531.03 135.893 L535.312 135.893 L535.312 139.921 Q536.84 137.583 538.9 136.426 Q540.984 135.268 543.692 135.268 Q548.159 135.268 550.451 138.046 Q552.743 140.801 552.743 146.171 Z" fill="#000000" fill-rule="evenodd" fill-opacity="1" /><path clip-path="url(#clip150)" d="M577.766 136.657 L577.766 140.685 Q575.96 139.759 574.016 139.296 Q572.071 138.833 569.988 138.833 Q566.817 138.833 565.22 139.805 Q563.645 140.778 563.645 142.722 Q563.645 144.204 564.78 145.06 Q565.914 145.893 569.34 146.657 L570.798 146.981 Q575.335 147.954 577.233 149.736 Q579.155 151.495 579.155 154.666 Q579.155 158.278 576.284 160.384 Q573.437 162.49 568.437 162.49 Q566.354 162.49 564.085 162.074 Q561.84 161.68 559.34 160.87 L559.34 156.472 Q561.701 157.699 563.993 158.324 Q566.284 158.926 568.53 158.926 Q571.539 158.926 573.159 157.907 Q574.78 156.866 574.78 154.991 Q574.78 153.254 573.599 152.328 Q572.442 151.403 568.483 150.546 L567.002 150.199 Q563.044 149.366 561.284 147.653 Q559.525 145.916 559.525 142.907 Q559.525 139.25 562.118 137.259 Q564.71 135.268 569.479 135.268 Q571.84 135.268 573.923 135.616 Q576.006 135.963 577.766 136.657 Z" fill="#000000" fill-rule="evenodd" fill-opacity="1" /><path clip-path="url(#clip150)" d="M608.113 147.791 L608.113 149.875 L588.53 149.875 Q588.807 154.273 591.168 156.588 Q593.553 158.879 597.789 158.879 Q600.242 158.879 602.534 158.278 Q604.849 157.676 607.117 156.472 L607.117 160.5 Q604.826 161.472 602.418 161.981 Q600.011 162.49 597.534 162.49 Q591.33 162.49 587.696 158.879 Q584.085 155.268 584.085 149.111 Q584.085 142.745 587.511 139.018 Q590.96 135.268 596.793 135.268 Q602.025 135.268 605.057 138.648 Q608.113 142.004 608.113 147.791 M603.854 146.541 Q603.807 143.046 601.886 140.963 Q599.988 138.879 596.84 138.879 Q593.275 138.879 591.122 140.893 Q588.993 142.907 588.668 146.565 L603.854 146.541 Z" fill="#000000" fill-rule="evenodd" fill-opacity="1" /><path clip-path="url(#clip150)" d="M630.127 139.875 Q629.409 139.458 628.552 139.273 Q627.719 139.065 626.701 139.065 Q623.09 139.065 621.145 141.426 Q619.224 143.764 619.224 148.162 L619.224 161.819 L614.941 161.819 L614.941 135.893 L619.224 135.893 L619.224 139.921 Q620.566 137.56 622.719 136.426 Q624.872 135.268 627.951 135.268 Q628.39 135.268 628.923 135.338 Q629.455 135.384 630.103 135.5 L630.127 139.875 Z" fill="#000000" fill-rule="evenodd" fill-opacity="1" /><path clip-path="url(#clip150)" d="M638.807 128.532 L638.807 135.893 L647.58 135.893 L647.58 139.204 L638.807 139.204 L638.807 153.278 Q638.807 156.449 639.664 157.352 Q640.543 158.254 643.205 158.254 L647.58 158.254 L647.58 161.819 L643.205 161.819 Q638.275 161.819 636.4 159.99 Q634.525 158.139 634.525 153.278 L634.525 139.204 L631.4 139.204 L631.4 135.893 L634.525 135.893 L634.525 128.532 L638.807 128.532 Z" fill="#000000" fill-rule="evenodd" fill-opacity="1" /><polyline clip-path="url(#clip150)" style="stroke:#e26f46; stroke-linecap:butt; stroke-linejoin:round; stroke-width:4; stroke-opacity:1; fill:none" points="
  355.449,196.379 494.796,196.379 
  "/>
<path clip-path="url(#clip150)" d="M425.123 170.779 L399.523 221.979 L450.723 221.979 L425.123 170.779 Z" fill="#e26f46" fill-rule="evenodd" fill-opacity="1" stroke="#000000" stroke-opacity="1" stroke-width="5.12"/>
<path clip-path="url(#clip150)" d="M536.933 191.669 L536.933 177.641 L541.192 177.641 L541.192 213.659 L536.933 213.659 L536.933 209.77 Q535.59 212.085 533.53 213.219 Q531.493 214.33 528.622 214.33 Q523.923 214.33 520.96 210.58 Q518.021 206.831 518.021 200.719 Q518.021 194.608 520.96 190.858 Q523.923 187.108 528.622 187.108 Q531.493 187.108 533.53 188.243 Q535.59 189.354 536.933 191.669 M522.419 200.719 Q522.419 205.418 524.34 208.104 Q526.285 210.766 529.664 210.766 Q533.044 210.766 534.988 208.104 Q536.933 205.418 536.933 200.719 Q536.933 196.02 534.988 193.358 Q533.044 190.673 529.664 190.673 Q526.285 190.673 524.34 193.358 Q522.419 196.02 522.419 200.719 Z" fill="#000000" fill-rule="evenodd" fill-opacity="1" /><path clip-path="url(#clip150)" d="M572.141 199.631 L572.141 201.715 L552.558 201.715 Q552.835 206.113 555.196 208.428 Q557.581 210.719 561.817 210.719 Q564.27 210.719 566.562 210.118 Q568.877 209.516 571.145 208.312 L571.145 212.34 Q568.854 213.312 566.446 213.821 Q564.039 214.33 561.562 214.33 Q555.358 214.33 551.724 210.719 Q548.113 207.108 548.113 200.951 Q548.113 194.585 551.539 190.858 Q554.988 187.108 560.821 187.108 Q566.053 187.108 569.085 190.488 Q572.141 193.844 572.141 199.631 M567.882 198.381 Q567.835 194.886 565.914 192.803 Q564.016 190.719 560.868 190.719 Q557.303 190.719 555.15 192.733 Q553.02 194.747 552.696 198.405 L567.882 198.381 Z" fill="#000000" fill-rule="evenodd" fill-opacity="1" /><path clip-path="url(#clip150)" d="M579.131 177.641 L583.391 177.641 L583.391 213.659 L579.131 213.659 L579.131 177.641 Z" fill="#000000" fill-rule="evenodd" fill-opacity="1" /><path clip-path="url(#clip150)" d="M614.479 199.631 L614.479 201.715 L594.895 201.715 Q595.173 206.113 597.534 208.428 Q599.918 210.719 604.154 210.719 Q606.608 210.719 608.9 210.118 Q611.215 209.516 613.483 208.312 L613.483 212.34 Q611.191 213.312 608.784 213.821 Q606.377 214.33 603.9 214.33 Q597.696 214.33 594.062 210.719 Q590.451 207.108 590.451 200.951 Q590.451 194.585 593.877 190.858 Q597.326 187.108 603.159 187.108 Q608.391 187.108 611.423 190.488 Q614.479 193.844 614.479 199.631 M610.219 198.381 Q610.173 194.886 608.252 192.803 Q606.354 190.719 603.205 190.719 Q599.641 190.719 597.488 192.733 Q595.358 194.747 595.034 198.405 L610.219 198.381 Z" fill="#000000" fill-rule="evenodd" fill-opacity="1" /><path clip-path="url(#clip150)" d="M625.682 180.372 L625.682 187.733 L634.455 187.733 L634.455 191.044 L625.682 191.044 L625.682 205.118 Q625.682 208.289 626.539 209.192 Q627.418 210.094 630.08 210.094 L634.455 210.094 L634.455 213.659 L630.08 213.659 Q625.15 213.659 623.275 211.83 Q621.4 209.979 621.4 205.118 L621.4 191.044 L618.275 191.044 L618.275 187.733 L621.4 187.733 L621.4 180.372 L625.682 180.372 Z" fill="#000000" fill-rule="evenodd" fill-opacity="1" /><path clip-path="url(#clip150)" d="M662.233 199.631 L662.233 201.715 L642.65 201.715 Q642.927 206.113 645.289 208.428 Q647.673 210.719 651.909 210.719 Q654.363 210.719 656.654 210.118 Q658.969 209.516 661.238 208.312 L661.238 212.34 Q658.946 213.312 656.538 213.821 Q654.131 214.33 651.654 214.33 Q645.451 214.33 641.816 210.719 Q638.205 207.108 638.205 200.951 Q638.205 194.585 641.631 190.858 Q645.08 187.108 650.913 187.108 Q656.145 187.108 659.177 190.488 Q662.233 193.844 662.233 199.631 M657.974 198.381 Q657.927 194.886 656.006 192.803 Q654.108 190.719 650.96 190.719 Q647.395 190.719 645.242 192.733 Q643.113 194.747 642.789 198.405 L657.974 198.381 Z" fill="#000000" fill-rule="evenodd" fill-opacity="1" /><polyline clip-path="url(#clip150)" style="stroke:#3da44d; stroke-linecap:butt; stroke-linejoin:round; stroke-width:4; stroke-opacity:1; fill:none" points="
  355.449,248.219 494.796,248.219 
  "/>
<path clip-path="url(#clip150)" d="M450.723 222.619 L399.523 222.619 L425.123 273.819 L450.723 222.619 Z" fill="#3da44d" fill-rule="evenodd" fill-opacity="1" stroke="#000000" stroke-opacity="1" stroke-width="5.12"/>
<path clip-path="url(#clip150)" d="M518.021 229.481 L522.28 229.481 L522.28 265.499 L518.021 265.499 L518.021 229.481 Z" fill="#000000" fill-rule="evenodd" fill-opacity="1" /><path clip-path="url(#clip150)" d="M541.238 242.559 Q537.812 242.559 535.822 245.245 Q533.831 247.907 533.831 252.559 Q533.831 257.212 535.798 259.897 Q537.789 262.559 541.238 262.559 Q544.641 262.559 546.632 259.874 Q548.622 257.189 548.622 252.559 Q548.622 247.953 546.632 245.268 Q544.641 242.559 541.238 242.559 M541.238 238.948 Q546.794 238.948 549.965 242.559 Q553.136 246.171 553.136 252.559 Q553.136 258.925 549.965 262.559 Q546.794 266.17 541.238 266.17 Q535.659 266.17 532.488 262.559 Q529.34 258.925 529.34 252.559 Q529.34 246.171 532.488 242.559 Q535.659 238.948 541.238 238.948 Z" fill="#000000" fill-rule="evenodd" fill-opacity="1" /><path clip-path="url(#clip150)" d="M570.243 242.559 Q566.817 242.559 564.826 245.245 Q562.835 247.907 562.835 252.559 Q562.835 257.212 564.803 259.897 Q566.794 262.559 570.243 262.559 Q573.645 262.559 575.636 259.874 Q577.627 257.189 577.627 252.559 Q577.627 247.953 575.636 245.268 Q573.645 242.559 570.243 242.559 M570.243 238.948 Q575.798 238.948 578.969 242.559 Q582.141 246.171 582.141 252.559 Q582.141 258.925 578.969 262.559 Q575.798 266.17 570.243 266.17 Q564.664 266.17 561.493 262.559 Q558.345 258.925 558.345 252.559 Q558.345 246.171 561.493 242.559 Q564.664 238.948 570.243 238.948 Z" fill="#000000" fill-rule="evenodd" fill-opacity="1" /><path clip-path="url(#clip150)" d="M589.039 229.481 L593.321 229.481 L593.321 250.754 L606.029 239.573 L611.469 239.573 L597.719 251.703 L612.048 265.499 L606.492 265.499 L593.321 252.837 L593.321 265.499 L589.039 265.499 L589.039 229.481 Z" fill="#000000" fill-rule="evenodd" fill-opacity="1" /><path clip-path="url(#clip150)" d="M614.756 255.268 L614.756 239.573 L619.016 239.573 L619.016 255.106 Q619.016 258.786 620.451 260.638 Q621.886 262.467 624.756 262.467 Q628.205 262.467 630.196 260.268 Q632.21 258.069 632.21 254.272 L632.21 239.573 L636.469 239.573 L636.469 265.499 L632.21 265.499 L632.21 261.518 Q630.659 263.879 628.599 265.036 Q626.562 266.17 623.853 266.17 Q619.386 266.17 617.071 263.393 Q614.756 260.615 614.756 255.268 M625.474 238.948 L625.474 238.948 Z" fill="#000000" fill-rule="evenodd" fill-opacity="1" /><path clip-path="url(#clip150)" d="M649.363 261.61 L649.363 275.36 L645.08 275.36 L645.08 239.573 L649.363 239.573 L649.363 243.509 Q650.705 241.194 652.742 240.083 Q654.802 238.948 657.65 238.948 Q662.372 238.948 665.312 242.698 Q668.275 246.448 668.275 252.559 Q668.275 258.671 665.312 262.42 Q662.372 266.17 657.65 266.17 Q654.802 266.17 652.742 265.059 Q650.705 263.925 649.363 261.61 M663.853 252.559 Q663.853 247.86 661.909 245.198 Q659.988 242.513 656.608 242.513 Q653.228 242.513 651.284 245.198 Q649.363 247.86 649.363 252.559 Q649.363 257.258 651.284 259.944 Q653.228 262.606 656.608 262.606 Q659.988 262.606 661.909 259.944 Q663.853 257.258 663.853 252.559 Z" fill="#000000" fill-rule="evenodd" fill-opacity="1" /></svg>
